<svg width="32" height="40" viewBox="0 0 32 40" fill="none" xmlns="http://www.w3.org/2000/svg">
<path d="M31.7562 8.87922C31.7127 8.87922 31.7127 8.83569 31.6692 8.79217C31.6257 8.74864 31.6257 8.70511 31.5821 8.66159L24.0957 0.261153C24.0522 0.217628 23.9652 0.174102 23.9216 0.130577C23.8781 0.130577 23.8781 0.0870511 23.8346 0.0870511C23.7475 0.0435256 23.617 0 23.4864 0H5.11859C2.42 0 0.200195 2.2198 0.200195 4.91839V35.0816C0.200195 37.7802 2.42 40 5.11859 40H26.8814C29.58 40 31.7998 37.7802 31.7998 35.0816V9.1839C31.7998 9.09684 31.7562 8.96627 31.7562 8.87922ZM24.3134 2.95974L29.1447 8.40043H24.3134V2.95974ZM30.1458 35.0381C30.1458 36.8662 28.7094 38.346 26.8814 38.346H5.11859C3.29051 38.346 1.85417 36.8662 1.85417 35.0816V4.87486C1.85417 3.04679 3.33404 1.61045 5.11859 1.61045H22.6594V9.1839C22.6594 9.61915 23.0076 10.0109 23.4864 10.0109H30.1458V35.0381Z" fill="#898796"/>
<path d="M6.07601 10.0109H13.3448C13.78 10.0109 14.1718 9.6627 14.1718 9.18392C14.1718 8.70514 13.8236 8.35693 13.3448 8.35693H6.07601C5.64075 8.35693 5.24902 8.70514 5.24902 9.18392C5.24902 9.6627 5.64075 10.0109 6.07601 10.0109Z" fill="#898796"/>
<path d="M13.3448 29.9891H6.07601C5.64075 29.9891 5.24902 30.3373 5.24902 30.8161C5.24902 31.2514 5.59723 31.6431 6.07601 31.6431H13.3448C13.78 31.6431 14.1718 31.2949 14.1718 30.8161C14.1718 30.3809 13.78 29.9891 13.3448 29.9891Z" fill="#898796"/>
<path d="M5.24902 14.6682C5.24902 15.1034 5.59723 15.4952 6.07601 15.4952H25.4884C25.9237 15.4952 26.3154 15.147 26.3154 14.6682C26.3154 14.2329 25.9672 13.8412 25.4884 13.8412H6.07601C5.64075 13.8412 5.24902 14.1894 5.24902 14.6682Z" fill="#898796"/>
<path d="M25.4884 17.9325H6.07601C5.64075 17.9325 5.24902 18.2807 5.24902 18.7595C5.24902 19.1947 5.59723 19.5865 6.07601 19.5865H25.4884C25.9237 19.5865 26.3154 19.2383 26.3154 18.7595C26.3154 18.2807 25.9672 17.9325 25.4884 17.9325Z" fill="#898796"/>
<path d="M25.4884 21.9803H6.07601C5.64075 21.9803 5.24902 22.3286 5.24902 22.8073C5.24902 23.2426 5.59723 23.6343 6.07601 23.6343H25.4884C25.9237 23.6343 26.3154 23.2861 26.3154 22.8073C26.3154 22.3286 25.9672 21.9803 25.4884 21.9803Z" fill="#898796"/>
<path d="M25.4884 26.0283H6.07601C5.64075 26.0283 5.24902 26.3765 5.24902 26.8553C5.24902 27.2906 5.59723 27.6823 6.07601 27.6823H25.4884C25.9237 27.6823 26.3154 27.3341 26.3154 26.8553C26.3154 26.4201 25.9672 26.0283 25.4884 26.0283Z" fill="#898796"/>
</svg>
