<svg width="40" height="40" viewBox="0 0 40 40" fill="none" xmlns="http://www.w3.org/2000/svg">
<g clip-path="url(#clip0)">
<path d="M3.82663 36.0059C2.90885 34.6579 2.32567 33.243 2.45952 31.5986C2.66984 28.9313 5.16507 26.6177 7.82282 26.7038C9.2951 26.7516 10.4136 27.4399 11.1115 28.7305C11.7808 29.9638 11.5896 31.2353 10.71 32.2296C9.64883 33.4342 8.41555 34.4762 7.23964 35.5661C6.99108 35.7955 6.69471 35.9676 6.42702 36.1684C7.41173 37.3347 8.71192 37.4877 9.83047 36.5317C10.2607 36.1588 10.6049 35.6999 10.9777 35.2602C11.2836 34.9064 11.5609 34.524 11.8764 34.1799C13.2148 32.698 14.8114 32.4877 16.4748 33.6254C17.0102 33.9887 17.4882 34.438 17.9471 34.8969C18.406 35.3558 18.798 35.8816 19.362 36.5412C19.3238 35.8911 19.3238 35.394 19.2664 34.9064C19.0848 33.4915 19.2473 32.1818 19.8401 30.8242C23.645 22.1053 27.3735 13.3481 31.1116 4.60051C31.4558 3.78789 31.8955 3.13779 32.8898 3.08999C33.0523 3.08043 33.2531 2.85099 33.3487 2.66934C33.5781 2.22957 33.7215 1.75156 33.951 1.32135C34.5628 0.164562 35.9204 -0.303889 37.0868 0.202803C38.234 0.699935 38.8076 1.96189 38.4443 3.18559C38.3583 3.46284 38.2531 3.72097 38.1384 3.98865C37.8803 4.58139 37.6412 5.08808 38.1671 5.7573C38.4539 6.12058 38.32 6.81848 38.3869 7.55462C39.2952 8.13779 39.9453 9.11294 39.6776 10.48C39.5915 10.9294 39.3812 11.3692 39.1231 11.7516C37.6699 13.9122 36.6852 16.2162 36.6279 18.8644C36.6183 19.4284 36.4367 19.9542 35.7292 19.8682C35.0217 19.7822 35.0409 19.2277 35.06 18.6732C35.146 15.7955 36.1976 13.2621 37.8038 10.9103C38.3965 10.0403 38.32 9.60051 37.5265 8.92173C37.1441 9.81083 36.7521 10.6808 36.3889 11.5604C33.0906 19.3137 29.7923 27.067 26.4653 34.8013C26.2454 35.3271 25.8439 35.8242 25.4137 36.1971C24.0944 37.3347 22.7273 38.4246 21.3601 39.5049C20.471 40.2124 20.1173 40.1741 19.4194 39.2946C18.6641 38.3386 17.9662 37.3252 17.1536 36.4074C16.6278 35.8051 16.0064 35.2697 15.3467 34.8204C14.5532 34.2755 13.9127 34.3711 13.2435 35.0498C12.7559 35.547 12.3257 36.111 11.8859 36.656C9.86871 39.1607 7.86106 39.4093 5.27979 37.459C5.17463 37.3825 5.06947 37.306 4.93562 37.2104C3.83619 37.8892 2.73676 38.5776 1.62777 39.2563C1.44613 39.3615 1.27404 39.4762 1.0924 39.5718C0.662189 39.8013 0.184176 39.7726 0.031212 39.3233C-0.0643905 39.0269 0.069453 38.4533 0.298899 38.2812C1.14976 37.6407 2.08667 37.1244 2.98533 36.5508C3.27214 36.3787 3.5207 36.1971 3.82663 36.0059ZM28.8267 14.8491C28.6929 15.1263 28.5781 15.3558 28.473 15.5948C26.255 20.7764 24.037 25.9581 21.819 31.1397C21.0351 32.9753 21.1594 33.2525 23.081 33.9313C23.3009 34.0078 23.5399 34.046 23.7502 34.1321C24.3907 34.3711 24.7062 34.1416 24.9644 33.5106C27.0867 28.4533 29.2378 23.4246 31.3888 18.3768C31.6757 17.7171 31.9529 17.0479 32.2588 16.3309C31.0734 15.8147 29.9644 15.3366 28.8267 14.8491ZM32.8802 14.8682C34.0753 12.0766 35.2416 9.34238 36.4175 6.56992C35.2416 6.05366 34.1518 5.58521 32.9854 5.07852C31.7904 7.86055 30.624 10.5948 29.4194 13.3864C30.6049 13.9026 31.7234 14.3711 32.8802 14.8682ZM5.25111 35.1168C6.19758 34.3711 7.18228 33.6636 8.08095 32.851C8.66412 32.3156 9.18038 31.6751 9.62015 31.0154C10.1268 30.2506 9.93563 29.4475 9.23774 28.8644C8.57808 28.3003 7.81326 28.1474 6.98152 28.3672C3.9796 29.1416 3.02357 32.7076 5.25111 35.1168ZM35.9491 4.25634C36.1785 3.70185 36.4367 3.21427 36.5705 2.70758C36.6279 2.4877 36.3984 2.20089 36.2933 1.94276C36.0638 2.05749 35.7292 2.10529 35.6145 2.28693C35.3372 2.74582 35.1651 3.27164 34.9357 3.81657C35.2894 3.96953 35.5858 4.09382 35.9491 4.25634ZM21.1881 34.8395C21.2454 35.5661 21.2932 36.2162 21.3506 37.0288C22.0007 36.503 22.4978 36.0919 23.0523 35.633C22.364 35.3462 21.8286 35.1168 21.1881 34.8395Z" fill="#898796"/>
</g>
<defs>
<clipPath id="clip0">
<rect width="39.7323" height="40" fill="white"/>
</clipPath>
</defs>
</svg>
