<svg width="40" height="40" viewBox="0 0 40 40" fill="none" xmlns="http://www.w3.org/2000/svg">
<path d="M36.875 18.125C36.875 13.9894 33.5106 10.625 29.375 10.625C25.2394 10.625 21.875 13.9894 21.875 18.125C21.875 22.2606 25.2394 25.625 29.375 25.625C33.5106 25.625 36.875 22.2606 36.875 18.125ZM23.125 18.125C23.125 14.6788 25.9288 11.875 29.375 11.875C32.8212 11.875 35.625 14.6788 35.625 18.125C35.625 21.5712 32.8212 24.375 29.375 24.375C25.9288 24.375 23.125 21.5712 23.125 18.125Z" fill="#898796"/>
<path d="M31.875 27.7956C36.1806 26.6812 39.375 22.7744 39.375 18.125C39.375 12.6112 34.8887 8.125 29.375 8.125V3.75C29.375 2.02688 27.9731 0.625 26.25 0.625H3.75C2.02688 0.625 0.625 2.02688 0.625 3.75V16.25C0.625 17.9731 2.02688 19.375 3.75 19.375H12.1656L14.2381 22.4837C14.5056 22.8856 14.9531 23.125 15.4356 23.125C16.2294 23.125 16.875 22.4794 16.875 21.6856V19.375H19.4619C19.975 23.4631 22.9619 26.7831 26.875 27.7956V28.75C26.875 29.0856 26.9706 29.3962 27.1256 29.6694C26.6012 30.0019 26.25 30.5844 26.25 31.25V36.25C26.25 37.9731 27.6519 39.375 29.375 39.375C31.0981 39.375 32.5 37.9731 32.5 36.25V31.25C32.5 30.5844 32.1488 30.0019 31.6244 29.6694C31.7794 29.3962 31.875 29.0856 31.875 28.75V27.7956ZM15.625 18.125V21.6856C15.625 21.8537 15.3719 21.93 15.2781 21.7906L12.8344 18.125H3.75C2.71625 18.125 1.875 17.2838 1.875 16.25V3.75C1.875 2.71625 2.71625 1.875 3.75 1.875H26.25C27.2838 1.875 28.125 2.71625 28.125 3.75V8.21187C25.6444 8.52313 23.4487 9.745 21.875 11.5331V7.5C21.875 6.46625 22.7162 5.625 23.75 5.625C24.7838 5.625 25.625 6.46625 25.625 7.5H26.875C26.875 5.77688 25.4731 4.375 23.75 4.375C22.0269 4.375 20.625 5.77688 20.625 7.5V12.5C20.625 12.7244 20.6575 12.9456 20.705 13.1637C19.8637 14.6275 19.375 16.3188 19.375 18.125H15.625ZM20.625 18.125C20.625 13.3 24.55 9.375 29.375 9.375C34.2 9.375 38.125 13.3 38.125 18.125C38.125 22.95 34.2 26.875 29.375 26.875C24.55 26.875 20.625 22.95 20.625 18.125ZM29.375 28.125C29.7994 28.125 30.2144 28.09 30.625 28.0381V28.75C30.625 29.0944 30.345 29.375 30 29.375H28.75C28.405 29.375 28.125 29.0944 28.125 28.75V28.0381C28.5356 28.09 28.9506 28.125 29.375 28.125ZM31.25 36.25C31.25 37.2837 30.4088 38.125 29.375 38.125C28.3412 38.125 27.5 37.2837 27.5 36.25V31.25C27.5 30.9056 27.78 30.625 28.125 30.625H28.75H30H30.625C30.97 30.625 31.25 30.9056 31.25 31.25V36.25Z" fill="#898796"/>
<path d="M18.125 7.5C18.125 5.77688 16.7231 4.375 15 4.375H11.875V15.625H15C16.7231 15.625 18.125 14.2231 18.125 12.5C18.125 11.4788 17.6325 10.5706 16.8731 10C17.6325 9.42938 18.125 8.52125 18.125 7.5ZM16.875 12.5C16.875 13.5337 16.0338 14.375 15 14.375H13.125V10.625H15C16.0338 10.625 16.875 11.4662 16.875 12.5ZM15 9.375H13.125V5.625H15C16.0338 5.625 16.875 6.46625 16.875 7.5C16.875 8.53375 16.0338 9.375 15 9.375Z" fill="#898796"/>
<path d="M6.25 4.375C4.52688 4.375 3.125 5.77688 3.125 7.5V15.625H4.375V11.875H8.125V15.625H9.375V7.5C9.375 5.77688 7.97312 4.375 6.25 4.375ZM4.375 10.625V7.5C4.375 6.46625 5.21625 5.625 6.25 5.625C7.28375 5.625 8.125 6.46625 8.125 7.5V10.625H4.375Z" fill="#898796"/>
<path d="M32.6826 14.5581L27.4995 19.7412L26.0664 18.3081L25.1826 19.1919L27.4995 21.5087L33.5664 15.4419L32.6826 14.5581Z" fill="#898796"/>
</svg>
