<svg width="35" height="40" viewBox="0 0 35 40" fill="none" xmlns="http://www.w3.org/2000/svg">
<path d="M33.0336 21.8002C33.0336 24.739 33.0195 27.6779 33.0383 30.6167C33.0492 32.2617 32.7678 33.8131 31.9015 35.2474C31.7655 35.4722 31.8062 36.0153 31.9797 36.1683C32.3722 36.5116 32.6849 36.1683 32.9054 35.8124C33.6997 34.5248 34.1829 33.1248 34.1876 31.614C34.2079 25.1901 34.272 18.7645 34.1719 12.3421C34.0719 5.76832 28.7023 0.330727 22.1945 0.0154595C15.4771 -0.309173 9.69013 4.43389 8.85984 11.0405C8.28755 15.5916 9.43056 19.754 12.045 23.5138C12.8612 24.6875 13.7149 25.8362 14.5655 26.9865C16.0166 28.9468 17.169 31.0522 17.8132 33.4198C17.9758 34.0191 18.2072 34.6028 18.4543 35.1741C20.1962 39.2117 23.7628 40.8739 27.9721 39.5566C28.8525 39.2804 29.664 38.7778 30.4927 38.3502C30.8742 38.1535 31.126 37.8148 30.8383 37.395C30.5396 36.9564 30.1643 37.1531 29.8203 37.3919C28.2348 38.4938 26.4757 38.8886 24.5618 38.7263C22.8121 38.578 21.3736 37.8382 20.4683 36.3509C19.8272 35.2989 19.294 34.1424 18.9296 32.9656C18.14 30.4201 16.8609 28.1664 15.3255 26.011C13.9714 24.1085 12.4968 22.2356 11.5039 20.1458C9.55565 16.0457 9.11002 11.7537 11.1646 7.50854C13.4131 2.86067 18.7217 0.355699 23.8629 1.417C28.8822 2.45176 32.7631 6.86864 32.9554 11.9722C33.079 15.2435 32.9789 18.5242 32.9789 21.8002C32.9961 21.8002 33.0148 21.8002 33.0336 21.8002Z" fill="#898796"/>
<path d="M27.1864 8.39674C26.0105 8.61524 24.8597 8.6964 23.798 9.04912C19.8013 10.3789 18.0594 14.2073 19.5809 18.1279C19.7372 18.529 19.9655 18.9145 20.4111 18.6648C20.616 18.5493 20.763 18.028 20.6848 17.7674C20.3251 16.5781 20.1203 15.3795 20.3674 14.1558C20.8099 11.9552 22.766 10.176 25.2725 9.86227C28.5405 9.45335 28.8282 10.0464 29.2957 12.8682C29.3207 13.0212 29.3285 13.1788 29.3301 13.3349C29.3332 13.7672 29.4474 14.1621 29.9587 14.1262C30.4763 14.0903 30.4888 13.6626 30.4825 13.2459C30.4293 9.25826 27.1926 5.68419 23.1553 5.1629C18.9554 4.62133 14.9681 7.2137 13.8423 11.2092C13.7204 11.6431 13.6109 12.0801 14.1441 12.2502C14.7008 12.4281 14.8368 11.9661 14.9681 11.5557C15.8078 8.92583 17.5387 7.18093 20.2219 6.49733C22.8786 5.81685 25.1943 6.56288 27.1864 8.39674Z" fill="#898796"/>
<path d="M28.7922 26.3013C28.7891 25.1916 28.4811 24.1662 27.6852 23.389C26.2232 21.9609 27.1066 19.7806 28.9048 19.6573C29.1237 19.6417 29.3176 19.2577 29.5225 19.0439C29.2754 18.8785 29.0237 18.5663 28.7797 18.5726C27.5241 18.6053 26.611 19.253 26.0762 20.3705C25.5102 21.5551 25.69 22.6788 26.4577 23.7433C26.8471 24.2833 27.274 24.842 27.4788 25.4585C27.9432 26.86 27.2833 28.4364 26.0528 29.1746C24.7377 29.9628 23.1303 29.7911 22.0374 28.6877C21.6214 28.2678 21.2743 27.7684 20.9538 27.2674C19.7341 25.3664 18.5645 23.4327 17.3246 21.5442C15.9658 19.4731 14.9197 17.299 14.743 14.7862C14.7336 14.6567 14.7493 14.4897 14.6758 14.4085C14.4787 14.1885 14.2411 14.0059 14.019 13.8092C13.8595 14.0402 13.5359 14.2993 13.5687 14.4975C13.7954 15.8475 14.0284 17.2069 14.4037 18.5211C14.6351 19.3311 15.0651 20.1052 15.5123 20.8309C17.0634 23.3531 18.6474 25.8534 20.2423 28.3474C21.4056 30.1672 22.9974 31.1411 25.2428 30.7307C27.3005 30.353 28.7907 28.5004 28.7922 26.3013Z" fill="#898796"/>
<path d="M4.88222 13.9171C4.7243 14.3198 4.5523 14.596 4.52571 14.8879C4.51164 15.0408 4.73524 15.2281 4.86971 15.3842C8.36444 19.3984 8.35662 24.5816 4.84469 28.6286C4.56324 28.9532 4.23175 29.3059 4.64455 29.7008C5.05735 30.0941 5.38884 29.771 5.69688 29.4511C9.61847 25.3588 9.60909 18.5541 5.66717 14.5211C5.49204 14.3416 5.26844 14.2121 4.88222 13.9171Z" fill="#898796"/>
<path d="M5.13672 22.0673C5.12577 20.107 4.48781 18.4261 3.19 16.9996C2.91949 16.7015 2.61928 16.3785 2.20492 16.7203C1.75303 17.0933 2.03448 17.4413 2.31749 17.7816C4.53159 20.4332 4.53003 23.536 2.31593 26.2064C2.03291 26.5482 1.73426 26.9446 2.22055 27.2427C2.41757 27.3629 2.96953 27.185 3.17593 26.968C4.48781 25.5961 5.10857 23.9262 5.13672 22.0673Z" fill="#898796"/>
<path d="M0.0603974 18.9878C-0.106911 19.1142 -0.374291 19.2141 -0.396182 19.353C-0.435273 19.598 -0.408693 19.9336 -0.263275 20.1162C0.487267 21.0573 0.668647 22.064 0.180795 23.1643C0.0572684 23.4437 -0.233566 23.6606 -0.311747 23.9431C-0.385238 24.21 -0.280475 24.5268 -0.253894 24.8203C0.0213051 24.7687 0.382505 24.8124 0.556068 24.6533C1.97428 23.3485 1.96177 20.6125 0.55763 19.3109C0.43254 19.1922 0.265233 19.1173 0.0603974 18.9878Z" fill="#898796"/>
</svg>
