<svg width="40" height="40" viewBox="0 0 40 40" fill="none" xmlns="http://www.w3.org/2000/svg">
<path d="M27.545 20.9216C27.5445 20.9206 27.544 20.9199 27.5436 20.9189C27.4685 20.7592 27.3394 20.6239 27.167 20.5435C26.7761 20.3611 26.3111 20.5303 26.1288 20.9214L21.3565 31.1573C21.1743 31.5484 21.3435 32.0132 21.7345 32.1955C21.8413 32.2454 21.9536 32.2688 22.0641 32.2688C22.3583 32.2688 22.6402 32.1018 22.7727 31.8175L24.2629 28.6212H29.4094L30.8989 31.8174C31.0314 32.1018 31.3132 32.2688 31.6075 32.2688C31.718 32.2688 31.8302 32.2453 31.937 32.1955C32.3281 32.0133 32.4974 31.5485 32.3151 31.1574L27.545 20.9216ZM24.9914 27.0587L26.8367 23.1007L28.6811 27.0587H24.9914Z" fill="#898796"/>
<path d="M39.9622 38.5112L37.8143 31.8559C38.915 29.6512 39.3307 27.1074 38.9855 24.6537C38.6124 22.001 37.4115 19.5951 35.5126 17.6961C32.8172 15.0007 29.0832 13.7328 25.3426 14.1938C25.6346 11.7505 25.1994 9.31521 24.0752 7.12849C23.8779 6.74474 23.4069 6.59349 23.0231 6.79092C22.6394 6.98818 22.4883 7.4592 22.6855 7.84294C24.8203 11.9954 24.0348 17.0053 20.7308 20.3093C17.4238 23.6165 12.2356 24.3871 8.11425 22.1837C7.92729 22.0838 7.70776 22.0642 7.50612 22.1291L1.99262 23.9067L3.77027 18.3931C3.83535 18.1914 3.81558 17.9719 3.71566 17.785C1.51215 13.6636 2.28293 8.47529 5.5898 5.16826C8.89901 1.86093 13.911 1.07694 18.0619 3.21725C18.4454 3.41498 18.9166 3.26444 19.1143 2.88092C19.312 2.49749 19.1615 2.02632 18.778 1.8285C16.4852 0.646318 13.9174 0.222647 11.3524 0.603193C8.73628 0.991396 6.36167 2.18772 4.48511 4.06319C2.58652 5.96193 1.3859 8.36779 1.01301 11.0208C0.668168 13.474 1.08371 16.018 2.18348 18.223L0.0377008 24.8785C-0.0522209 25.1575 0.021529 25.4634 0.228872 25.6707C0.3777 25.8195 0.577309 25.8995 0.781371 25.8995C0.861527 25.8995 0.942387 25.8872 1.02106 25.8619L7.67636 23.716C9.81487 24.7828 12.2722 25.2056 14.6563 24.9156C14.2096 28.6451 15.4798 32.3648 18.1643 35.0473C20.063 36.9459 22.4685 38.1466 25.1209 38.5194C27.5737 38.8644 30.1176 38.4489 32.3236 37.349L38.979 39.4948C39.0576 39.5201 39.1385 39.5325 39.2186 39.5325C39.4227 39.5325 39.6224 39.4525 39.7712 39.3036C39.9784 39.0962 40.0522 38.7902 39.9622 38.5112ZM32.4937 35.762C32.292 35.6971 32.0726 35.7166 31.8858 35.8166C27.6981 38.0545 22.6279 37.3012 19.2688 33.942C16.8079 31.4831 15.71 28.0248 16.2793 24.6064C18.3772 24.0603 20.2773 22.9725 21.8356 21.4142C23.4027 19.8471 24.4953 17.9316 25.0387 15.8179C28.4664 15.2347 31.9372 16.3304 34.4076 18.801C37.7161 22.1096 38.4868 27.2977 36.2821 31.4176C36.182 31.6047 36.1622 31.8243 36.2274 32.0262L38.0067 37.5394L32.4937 35.762Z" fill="#898796"/>
<path d="M18.7149 12.2105C18.7149 8.85829 15.9888 6.1311 12.6379 6.1311C9.28578 6.1311 6.55859 8.85829 6.55859 12.2105C6.55859 15.5615 9.28578 18.2877 12.6379 18.2877C14.0314 18.2877 15.3159 17.8151 16.3422 17.0233L18.3281 19.0093C18.4807 19.1618 18.6806 19.2381 18.8805 19.2381C19.0805 19.2381 19.2805 19.1618 19.433 19.0093C19.738 18.7042 19.7381 18.2095 19.433 17.9044L17.4474 15.9188C18.241 14.8919 18.7149 13.6058 18.7149 12.2105ZM16.3309 14.8024L14.4945 12.9659C14.1895 12.661 13.6948 12.6609 13.3897 12.9659C13.0846 13.271 13.0845 13.7657 13.3897 14.0709L15.2255 15.9067C14.4921 16.4217 13.6 16.7252 12.6378 16.7252C10.1473 16.7252 8.12102 14.6999 8.12102 12.2106C8.12102 9.71993 10.1473 7.69368 12.6378 7.69368C15.1271 7.69368 17.1523 9.72001 17.1523 12.2106C17.1524 13.1745 16.8477 14.0682 16.3309 14.8024Z" fill="#898796"/>
<path d="M21.2974 5.2733C21.4952 5.2733 21.6931 5.19869 21.8452 5.04908C22.1528 4.74658 22.157 4.25197 21.8545 3.94423L21.8522 3.94197C21.5496 3.63447 21.0563 3.63126 20.7485 3.93384C20.4409 4.23634 20.4378 4.73212 20.7404 5.03978C20.8933 5.19533 21.0953 5.2733 21.2974 5.2733Z" fill="#898796"/>
</svg>
