<svg width="40" height="40" viewBox="0 0 40 40" fill="none" xmlns="http://www.w3.org/2000/svg">
<g clip-path="url(#clip0)">
<path d="M12.3173 8.01673C11.9714 8.01673 11.691 8.29712 11.691 8.64306C11.691 9.40283 11.0729 10.021 10.3131 10.021C9.55332 10.021 8.9352 9.40283 8.9352 8.64306C8.9352 7.88329 9.55332 7.26517 10.3131 7.26517C10.6589 7.26517 10.9394 6.98478 10.9394 6.63884C10.9394 6.2929 10.659 6.01251 10.3131 6.01251C8.86262 6.01251 7.68262 7.19259 7.68262 8.64298C7.68262 10.0934 8.8627 11.2735 10.3131 11.2735C11.7635 11.2735 12.9436 10.0934 12.9436 8.64298C12.9436 8.29712 12.6632 8.01673 12.3173 8.01673Z" fill="#898796"/>
<path d="M12.3173 15.3653C11.9714 15.3653 11.691 15.6457 11.691 15.9916C11.691 16.7514 11.0729 17.3695 10.3131 17.3695C9.55332 17.3695 8.9352 16.7514 8.9352 15.9916C8.9352 15.2319 9.55332 14.6137 10.3131 14.6137C10.6589 14.6137 10.9394 14.3333 10.9394 13.9874C10.9394 13.6415 10.659 13.3611 10.3131 13.3611C8.86262 13.3611 7.68262 14.5412 7.68262 15.9916C7.68262 17.4419 8.8627 18.622 10.3131 18.622C11.7635 18.622 12.9436 17.4419 12.9436 15.9916C12.9436 15.6458 12.6632 15.3653 12.3173 15.3653Z" fill="#898796"/>
<path d="M19.665 16.7015H14.9886C14.6428 16.7015 14.3623 16.9819 14.3623 17.3278C14.3623 17.6737 14.6427 17.9541 14.9886 17.9541H19.665C20.0109 17.9541 20.2914 17.6737 20.2914 17.3278C20.2914 16.9819 20.011 16.7015 19.665 16.7015Z" fill="#898796"/>
<path d="M19.665 14.0292H14.9886C14.6428 14.0292 14.3623 14.3096 14.3623 14.6556C14.3623 15.0015 14.6427 15.2819 14.9886 15.2819H19.665C20.0109 15.2819 20.2914 15.0015 20.2914 14.6556C20.2914 14.3096 20.011 14.0292 19.665 14.0292Z" fill="#898796"/>
<path d="M18.3289 24.05H14.9886C14.6428 24.05 14.3623 24.3304 14.3623 24.6764C14.3623 25.0223 14.6427 25.3027 14.9886 25.3027H18.3289C18.6748 25.3027 18.9553 25.0223 18.9553 24.6764C18.9553 24.3304 18.6748 24.05 18.3289 24.05Z" fill="#898796"/>
<path d="M19.665 21.3779H14.9886C14.6428 21.3779 14.3623 21.6583 14.3623 22.0043C14.3623 22.3502 14.6427 22.6306 14.9886 22.6306H19.665C20.0109 22.6306 20.2914 22.3502 20.2914 22.0043C20.2914 21.6583 20.011 21.3779 19.665 21.3779Z" fill="#898796"/>
<path d="M25.6776 9.35278H14.9886C14.6428 9.35278 14.3623 9.63317 14.3623 9.97911C14.3623 10.325 14.6427 10.6054 14.9886 10.6054H25.6775C26.0234 10.6054 26.3039 10.325 26.3039 9.97911C26.3039 9.63317 26.0235 9.35278 25.6776 9.35278Z" fill="#898796"/>
<path d="M23.0054 6.68054H14.9886C14.6428 6.68054 14.3623 6.96093 14.3623 7.30687C14.3623 7.65281 14.6427 7.9332 14.9886 7.9332H23.0054C23.3512 7.9332 23.6317 7.65281 23.6317 7.30687C23.6317 6.96093 23.3513 6.68054 23.0054 6.68054Z" fill="#898796"/>
<path d="M12.3173 22.714C11.9714 22.714 11.691 22.9944 11.691 23.3403C11.691 24.1001 11.0729 24.7182 10.3131 24.7182C9.55332 24.7182 8.9352 24.1001 8.9352 23.3403C8.9352 22.5806 9.55332 21.9624 10.3131 21.9624C10.6589 21.9624 10.9394 21.682 10.9394 21.3361C10.9394 20.9902 10.659 20.7098 10.3131 20.7098C8.86262 20.7098 7.68262 21.8899 7.68262 23.3402C7.68262 24.7906 8.8627 25.9707 10.3131 25.9707C11.7635 25.9707 12.9436 24.7906 12.9436 23.3402C12.9436 22.9944 12.6632 22.714 12.3173 22.714Z" fill="#898796"/>
<path d="M28.3512 0H5.63723C4.5552 0 3.6748 0.880313 3.6748 1.96242V30.0209C3.6748 31.103 4.55512 31.9833 5.63723 31.9833H16.9943C17.3401 31.9833 17.6206 31.7029 17.6206 31.357C17.6206 31.0111 17.3402 30.7306 16.9943 30.7306H5.63723C5.24582 30.7306 4.92738 30.4122 4.92738 30.0208V1.96242C4.92738 1.57102 5.24582 1.25258 5.63723 1.25258H28.3512C28.7426 1.25258 29.0611 1.57102 29.0611 1.96242V22.6723C29.0611 23.0182 29.3414 23.2987 29.6874 23.2987C30.0332 23.2987 30.3137 23.0183 30.3137 22.6723V1.96242C30.3136 0.880313 29.4333 0 28.3512 0Z" fill="#898796"/>
<path d="M34.2648 25.398C33.6826 25.3399 33.1009 25.5049 32.6404 25.8545C32.2736 25.2391 31.6481 24.8024 30.9244 24.7299C30.3422 24.672 29.7605 24.837 29.3001 25.1865C28.9333 24.571 28.3078 24.1344 27.5841 24.0619C27.1396 24.0175 26.6957 24.1031 26.3056 24.3016V16.3257C26.3056 15.6781 26.0301 15.0573 25.5496 14.6226C25.0695 14.1882 24.4226 13.9762 23.7745 14.041C22.6184 14.1568 21.7127 15.2022 21.7127 16.421V24.4171L19.8716 26.2582C18.8933 27.2366 18.4984 28.6247 18.8153 29.9716L20.213 35.912C20.7794 38.3191 22.9019 40.0002 25.3748 40.0002H31.0237C33.9476 40.0002 36.3265 37.6214 36.3265 34.6974V27.7781C36.3266 26.5591 35.4209 25.5138 34.2648 25.398ZM35.0739 34.6973C35.0739 36.9305 33.257 38.7473 31.0238 38.7473H25.3748C23.4862 38.7473 21.8649 37.4634 21.4323 35.6248L20.0346 29.6845C19.8177 28.763 20.088 27.8131 20.7573 27.1438L21.7127 26.1884V28.3507C21.7127 28.6966 21.9931 28.977 22.3391 28.977C22.685 28.977 22.9654 28.6966 22.9654 28.3507V16.4209C22.9654 15.8377 23.3756 15.3398 23.8994 15.2874C24.2003 15.2572 24.488 15.3511 24.7093 15.5514C24.9278 15.7491 25.0531 16.0314 25.0531 16.3258V27.3488C25.0531 27.6946 25.3335 27.9751 25.6794 27.9751C26.0254 27.9751 26.3058 27.6947 26.3058 27.3488V26.3466C26.3058 26.0523 26.431 25.77 26.6496 25.5723C26.871 25.372 27.1586 25.278 27.4594 25.3083C27.9832 25.3607 28.3935 25.8587 28.3935 26.4419V28.0166C28.3935 28.3625 28.6739 28.643 29.0198 28.643C29.3657 28.643 29.6462 28.3626 29.6462 28.0166V27.0145C29.6462 26.7202 29.7714 26.4379 29.99 26.2402C30.2114 26.0398 30.4991 25.9459 30.7998 25.9762C31.3236 26.0286 31.7339 26.5266 31.7339 27.1098V28.6846C31.7339 29.0305 32.0143 29.3109 32.3602 29.3109C32.7061 29.3109 32.9866 29.0305 32.9866 28.6846V27.6825C32.9866 27.3881 33.1118 27.1059 33.3304 26.9081C33.5518 26.7079 33.8392 26.6138 34.1402 26.6442C34.664 26.6966 35.0743 27.1945 35.0743 27.7777V34.6973H35.0739Z" fill="#898796"/>
</g>
<defs>
<clipPath id="clip0">
<rect width="40" height="40" fill="white"/>
</clipPath>
</defs>
</svg>
