<svg width="38" height="30" viewBox="0 0 38 30" fill="none" xmlns="http://www.w3.org/2000/svg">
<path d="M37.125 4C36.9592 4 36.8003 4.06585 36.6831 4.18306C36.5658 4.30027 36.5 4.45924 36.5 4.625V27.125H33.1063C29.0843 27.1254 25.0753 27.582 21.1562 28.4863C20.9104 28.5425 20.6533 28.5228 20.4189 28.4297C20.1846 28.3366 19.984 28.1746 19.8437 27.965C22.0752 26.5991 24.6405 25.8758 27.2569 25.875H34.625C34.7908 25.875 34.9497 25.8092 35.0669 25.6919C35.1842 25.5747 35.25 25.4158 35.25 25.25V20.875C35.25 20.7092 35.1842 20.5503 35.0669 20.4331C34.9497 20.3158 34.7908 20.25 34.625 20.25C34.4592 20.25 34.3003 20.3158 34.1831 20.4331C34.0658 20.5503 34 20.7092 34 20.875V24.625H27.2569C24.5821 24.6225 21.9524 25.3142 19.625 26.6325V9.625C19.625 9.45924 19.5592 9.30027 19.4419 9.18306C19.3247 9.06585 19.1658 9 19 9C18.8342 9 18.6753 9.06585 18.5581 9.18306C18.4408 9.30027 18.375 9.45924 18.375 9.625V26.6319C16.0476 25.3137 13.4179 24.6222 10.7431 24.625H4V2.125H13.625C14.8851 2.12583 16.0932 2.62697 16.9839 3.51826C17.8747 4.40956 18.375 5.61806 18.375 6.87813C18.375 7.04389 18.4408 7.20286 18.5581 7.32007C18.6753 7.43728 18.8342 7.50313 19 7.50313C19.1658 7.50313 19.3247 7.43728 19.4419 7.32007C19.5592 7.20286 19.625 7.04389 19.625 6.87813C19.625 5.61806 20.1253 4.40956 21.0161 3.51826C21.9068 2.62697 23.1149 2.12583 24.375 2.125H34V18.375C34 18.5408 34.0658 18.6997 34.1831 18.8169C34.3003 18.9342 34.4592 19 34.625 19C34.7908 19 34.9497 18.9342 35.0669 18.8169C35.1842 18.6997 35.25 18.5408 35.25 18.375V1.5C35.25 1.33424 35.1842 1.17527 35.0669 1.05806C34.9497 0.940848 34.7908 0.875 34.625 0.875H24.375C23.2578 0.87583 22.163 1.18812 21.2135 1.7768C20.2641 2.36548 19.4975 3.20723 19 4.2075C18.5025 3.20723 17.7359 2.36548 16.7865 1.7768C15.837 1.18812 14.7422 0.87583 13.625 0.875H3.375C3.20924 0.875 3.05027 0.940848 2.93306 1.05806C2.81585 1.17527 2.75 1.33424 2.75 1.5V25.25C2.75 25.4158 2.81585 25.5747 2.93306 25.6919C3.05027 25.8092 3.20924 25.875 3.375 25.875H10.7431C13.3599 25.8756 15.9257 26.5988 18.1575 27.965C18.0168 28.1741 17.8161 28.3357 17.5819 28.4287C17.3477 28.5218 17.0908 28.5418 16.845 28.4863C12.9256 27.5819 8.91617 27.1252 4.89375 27.125H1.5V4.625C1.5 4.45924 1.43415 4.30027 1.31694 4.18306C1.19973 4.06585 1.04076 4 0.875 4C0.70924 4 0.550268 4.06585 0.433058 4.18306C0.315848 4.30027 0.25 4.45924 0.25 4.625V27.75C0.25 27.9158 0.315848 28.0747 0.433058 28.1919C0.550268 28.3092 0.70924 28.375 0.875 28.375H4.89375C8.82108 28.3756 12.7357 28.8216 16.5625 29.7044C17.0025 29.8059 17.4618 29.7859 17.8912 29.6462C18.3206 29.5066 18.7039 29.2528 19 28.9119C19.296 29.2529 19.6793 29.5068 20.1088 29.6464C20.5382 29.7861 20.9975 29.8061 21.4375 29.7044C25.2644 28.8217 29.1789 28.3758 33.1063 28.375H37.125C37.2908 28.375 37.4497 28.3092 37.5669 28.1919C37.6842 28.0747 37.75 27.9158 37.75 27.75V4.625C37.75 4.45924 37.6842 4.30027 37.5669 4.18306C37.4497 4.06585 37.2908 4 37.125 4Z" fill="#898796"/>
<path d="M16.9519 6.25813C15.967 5.60044 14.8093 5.2496 13.625 5.25H6.5C6.33424 5.25 6.17527 5.31585 6.05806 5.43306C5.94085 5.55027 5.875 5.70924 5.875 5.875C5.875 6.04076 5.94085 6.19973 6.05806 6.31694C6.17527 6.43415 6.33424 6.5 6.5 6.5H13.625C14.5634 6.49893 15.481 6.77672 16.2613 7.29813C16.3992 7.39012 16.568 7.42356 16.7305 7.3911C16.8931 7.35863 17.0361 7.26291 17.1281 7.125C17.2201 6.98709 17.2536 6.81828 17.2211 6.65571C17.1886 6.49314 17.0929 6.35012 16.955 6.25813H16.9519Z" fill="#898796"/>
<path d="M31.5008 5.25H24.3758C23.1905 5.24906 22.0315 5.59992 21.0458 6.25813C20.9775 6.30368 20.9188 6.36224 20.8732 6.43045C20.8275 6.49867 20.7958 6.57521 20.7797 6.65571C20.7636 6.73621 20.7635 6.81908 20.7795 6.8996C20.7954 6.98013 20.8271 7.05672 20.8727 7.125C20.9182 7.19329 20.9768 7.25194 21.045 7.2976C21.1132 7.34325 21.1897 7.37503 21.2702 7.3911C21.3507 7.40718 21.4336 7.40724 21.5141 7.39129C21.5947 7.37534 21.6712 7.34368 21.7395 7.29813C22.5199 6.7769 23.4374 6.49912 24.3758 6.5H31.5008C31.6665 6.5 31.8255 6.43416 31.9427 6.31695C32.0599 6.19973 32.1258 6.04076 32.1258 5.875C32.1258 5.70924 32.0599 5.55027 31.9427 5.43306C31.8255 5.31585 31.6665 5.25 31.5008 5.25Z" fill="#898796"/>
<path d="M16.9519 9.38313C15.967 8.72544 14.8093 8.3746 13.625 8.375H6.5C6.33424 8.375 6.17527 8.44085 6.05806 8.55806C5.94085 8.67527 5.875 8.83424 5.875 9C5.875 9.16576 5.94085 9.32473 6.05806 9.44194C6.17527 9.55915 6.33424 9.625 6.5 9.625H13.625C14.5634 9.62393 15.481 9.90172 16.2613 10.4231C16.3992 10.5151 16.568 10.5486 16.7305 10.5161C16.8931 10.4836 17.0361 10.3879 17.1281 10.25C17.2201 10.1121 17.2536 9.94328 17.2211 9.78071C17.1886 9.61814 17.0929 9.47512 16.955 9.38313H16.9519Z" fill="#898796"/>
<path d="M31.5008 8.375H24.3758C23.1905 8.37406 22.0315 8.72492 21.0458 9.38313C20.9775 9.42868 20.9188 9.48724 20.8732 9.55545C20.8275 9.62367 20.7958 9.70021 20.7797 9.78071C20.7636 9.86121 20.7635 9.94408 20.7795 10.0246C20.7954 10.1051 20.8271 10.1817 20.8727 10.25C20.9182 10.3183 20.9768 10.3769 21.045 10.4226C21.1132 10.4683 21.1897 10.5 21.2702 10.5161C21.3507 10.5322 21.4336 10.5322 21.5141 10.5163C21.5947 10.5003 21.6712 10.4687 21.7395 10.4231C22.5199 9.9019 23.4374 9.62412 24.3758 9.625H31.5008C31.6665 9.625 31.8255 9.55915 31.9427 9.44194C32.0599 9.32473 32.1258 9.16576 32.1258 9C32.1258 8.83424 32.0599 8.67527 31.9427 8.55806C31.8255 8.44085 31.6665 8.375 31.5008 8.375Z" fill="#898796"/>
<path d="M16.9519 12.5081C15.967 11.8504 14.8093 11.4996 13.625 11.5H6.5C6.33424 11.5 6.17527 11.5658 6.05806 11.6831C5.94085 11.8003 5.875 11.9592 5.875 12.125C5.875 12.2908 5.94085 12.4497 6.05806 12.5669C6.17527 12.6842 6.33424 12.75 6.5 12.75H13.625C14.5634 12.7489 15.481 13.0267 16.2613 13.5481C16.3992 13.6401 16.568 13.6736 16.7305 13.6411C16.8931 13.6086 17.0361 13.5129 17.1281 13.375C17.2201 13.2371 17.2536 13.0683 17.2211 12.9057C17.1886 12.7431 17.0929 12.6001 16.955 12.5081H16.9519Z" fill="#898796"/>
<path d="M31.5008 11.5H24.3758C23.1905 11.4991 22.0315 11.8499 21.0458 12.5081C20.9775 12.5537 20.9188 12.6122 20.8732 12.6805C20.8275 12.7487 20.7958 12.8252 20.7797 12.9057C20.7636 12.9862 20.7635 13.0691 20.7795 13.1496C20.7954 13.2301 20.8271 13.3067 20.8727 13.375C20.9182 13.4433 20.9768 13.5019 21.045 13.5476C21.1132 13.5933 21.1897 13.625 21.2702 13.6411C21.3507 13.6572 21.4336 13.6572 21.5141 13.6413C21.5947 13.6253 21.6712 13.5937 21.7395 13.5481C22.5199 13.0269 23.4374 12.7491 24.3758 12.75H31.5008C31.6665 12.75 31.8255 12.6842 31.9427 12.5669C32.0599 12.4497 32.1258 12.2908 32.1258 12.125C32.1258 11.9592 32.0599 11.8003 31.9427 11.6831C31.8255 11.5658 31.6665 11.5 31.5008 11.5Z" fill="#898796"/>
<path d="M16.9519 15.6331C15.967 14.9754 14.8093 14.6246 13.625 14.625H6.5C6.33424 14.625 6.17527 14.6908 6.05806 14.8081C5.94085 14.9253 5.875 15.0842 5.875 15.25C5.875 15.4158 5.94085 15.5747 6.05806 15.6919C6.17527 15.8092 6.33424 15.875 6.5 15.875H13.625C14.5634 15.8739 15.481 16.1517 16.2612 16.6731C16.3295 16.7187 16.4061 16.7503 16.4866 16.7663C16.5672 16.7822 16.65 16.7822 16.7305 16.7661C16.811 16.75 16.8876 16.7182 16.9558 16.6726C17.024 16.6269 17.0826 16.5683 17.1281 16.5C17.1737 16.4317 17.2053 16.3551 17.2213 16.2746C17.2372 16.1941 17.2372 16.1112 17.2211 16.0307C17.205 15.9502 17.1732 15.8737 17.1276 15.8055C17.0819 15.7372 17.0233 15.6787 16.955 15.6331H16.9519Z" fill="#898796"/>
<path d="M31.5008 14.625H24.3758C23.1905 14.6241 22.0315 14.9749 21.0458 15.6331C20.9079 15.7251 20.8122 15.8681 20.7797 16.0307C20.7472 16.1933 20.7807 16.3621 20.8727 16.5C20.9647 16.6379 21.1077 16.7336 21.2702 16.7661C21.4328 16.7986 21.6016 16.7651 21.7395 16.6731C22.5199 16.1519 23.4374 15.8741 24.3758 15.875H31.5008C31.6665 15.875 31.8255 15.8092 31.9427 15.6919C32.0599 15.5747 32.1258 15.4158 32.1258 15.25C32.1258 15.0842 32.0599 14.9253 31.9427 14.8081C31.8255 14.6908 31.6665 14.625 31.5008 14.625Z" fill="#898796"/>
<path d="M16.9519 18.7581C15.967 18.1004 14.8093 17.7496 13.625 17.75H6.5C6.33424 17.75 6.17527 17.8158 6.05806 17.9331C5.94085 18.0503 5.875 18.2092 5.875 18.375C5.875 18.5408 5.94085 18.6997 6.05806 18.8169C6.17527 18.9342 6.33424 19 6.5 19H13.625C14.5634 18.9989 15.481 19.2767 16.2613 19.7981C16.3992 19.8901 16.568 19.9236 16.7305 19.8911C16.8931 19.8586 17.0361 19.7629 17.1281 19.625C17.2201 19.4871 17.2536 19.3183 17.2211 19.1557C17.1886 18.9931 17.0929 18.8501 16.955 18.7581H16.9519Z" fill="#898796"/>
<path d="M31.5008 17.75H24.3758C23.1905 17.7491 22.0315 18.0999 21.0458 18.7581C20.9775 18.8037 20.9188 18.8622 20.8732 18.9305C20.8275 18.9987 20.7958 19.0752 20.7797 19.1557C20.7636 19.2362 20.7635 19.3191 20.7795 19.3996C20.7954 19.4801 20.8271 19.5567 20.8727 19.625C20.9647 19.7629 21.1077 19.8586 21.2702 19.8911C21.3507 19.9072 21.4336 19.9072 21.5141 19.8913C21.5947 19.8753 21.6712 19.8437 21.7395 19.7981C22.5199 19.2769 23.4374 18.9991 24.3758 19H31.5008C31.6665 19 31.8255 18.9342 31.9427 18.8169C32.0599 18.6997 32.1258 18.5408 32.1258 18.375C32.1258 18.2092 32.0599 18.0503 31.9427 17.9331C31.8255 17.8158 31.6665 17.75 31.5008 17.75Z" fill="#898796"/>
<path d="M13.625 20.875H6.5C6.33424 20.875 6.17527 20.9408 6.05806 21.0581C5.94085 21.1753 5.875 21.3342 5.875 21.5C5.875 21.6658 5.94085 21.8247 6.05806 21.9419C6.17527 22.0592 6.33424 22.125 6.5 22.125H13.625C14.5634 22.1239 15.481 22.4017 16.2612 22.9231C16.3295 22.9687 16.4061 23.0003 16.4866 23.0163C16.5672 23.0322 16.65 23.0322 16.7305 23.0161C16.811 23 16.8876 22.9682 16.9558 22.9226C17.024 22.8769 17.0826 22.8183 17.1281 22.75C17.1737 22.6817 17.2053 22.6051 17.2213 22.5246C17.2372 22.4441 17.2372 22.3612 17.2211 22.2807C17.205 22.2002 17.1732 22.1237 17.1276 22.0555C17.0819 21.9872 17.0233 21.9287 16.955 21.8831C15.9693 21.2248 14.8103 20.874 13.625 20.875Z" fill="#898796"/>
<path d="M31.5008 20.875H24.3758C23.1905 20.8741 22.0315 21.2249 21.0458 21.8831C20.9775 21.9287 20.9188 21.9872 20.8732 22.0555C20.8275 22.1237 20.7958 22.2002 20.7797 22.2807C20.7636 22.3612 20.7635 22.4441 20.7795 22.5246C20.7954 22.6051 20.8271 22.6817 20.8727 22.75C20.9182 22.8183 20.9768 22.8769 21.045 22.9226C21.1132 22.9683 21.1897 23 21.2702 23.0161C21.3507 23.0322 21.4336 23.0322 21.5141 23.0163C21.5947 23.0003 21.6712 22.9687 21.7395 22.9231C22.5199 22.4019 23.4374 22.1241 24.3758 22.125H31.5008C31.6665 22.125 31.8255 22.0592 31.9427 21.9419C32.0599 21.8247 32.1258 21.6658 32.1258 21.5C32.1258 21.3342 32.0599 21.1753 31.9427 21.0581C31.8255 20.9408 31.6665 20.875 31.5008 20.875Z" fill="#898796"/>
</svg>
