<svg width="28" height="40" viewBox="0 0 28 40" fill="none" xmlns="http://www.w3.org/2000/svg">
<path d="M13.2031 27.4219H14.1406C18.6638 27.4219 22.3438 23.742 22.3438 19.2188V8.28125C22.3438 3.71492 18.6638 0 14.1406 0H13.2031C8.68492 0 5.00812 3.70687 5 8.26625V19.2188C5 23.742 8.67992 27.4219 13.2031 27.4219ZM13.2031 2.34375H14.1406C17.1366 2.34375 19.613 4.63453 19.9575 7.57812H18.0469C17.3997 7.57812 16.875 8.10281 16.875 8.75C16.875 9.39719 17.3997 9.92188 18.0469 9.92188H20V12.5781H16.7969C16.1497 12.5781 15.625 13.1028 15.625 13.75C15.625 14.3972 16.1497 14.9219 16.7969 14.9219H20V17.5781H18.0469C17.3997 17.5781 16.875 18.1028 16.875 18.75C16.875 19.3972 17.3997 19.9219 18.0469 19.9219H19.9563C19.6077 22.8223 17.1334 25.0781 14.1406 25.0781H13.2031C10.2104 25.0781 7.73609 22.8223 7.38742 19.9219H9.29688C9.94406 19.9219 10.4688 19.3972 10.4688 18.75C10.4688 18.1028 9.94406 17.5781 9.29688 17.5781H7.34375V14.9219H10.5469C11.1941 14.9219 11.7188 14.3972 11.7188 13.75C11.7188 13.1028 11.1941 12.5781 10.5469 12.5781H7.34375V9.92188H9.29688C9.94406 9.92188 10.4688 9.39719 10.4688 8.75C10.4688 8.10281 9.94406 7.57812 9.29688 7.57812H7.38625C7.7307 4.63453 10.2072 2.34375 13.2031 2.34375Z" fill="#898796"/>
<path d="M27.3438 18.75C27.3438 18.1028 26.8191 17.5781 26.1719 17.5781C25.5247 17.5781 25 18.1028 25 18.75C25 24.9963 19.9182 30.0781 13.6719 30.0781C7.42555 30.0781 2.34375 24.9963 2.34375 18.75C2.34375 18.1028 1.81906 17.5781 1.17188 17.5781C0.524687 17.5781 0 18.1028 0 18.75C0 25.8939 5.50789 31.7747 12.5 32.3711V37.6562H6.17188C5.52469 37.6562 5 38.1809 5 38.8281C5 39.4753 5.52469 40 6.17188 40H21.1719C21.8191 40 22.3438 39.4753 22.3438 38.8281C22.3438 38.1809 21.8191 37.6562 21.1719 37.6562H14.8438V32.3711C21.8359 31.7747 27.3438 25.8939 27.3438 18.75Z" fill="#898796"/>
</svg>
