<svg width="41" height="41" viewBox="0 0 41 41" fill="none" xmlns="http://www.w3.org/2000/svg">
<path d="M16.4406 4.53173C19.4453 3.31379 22.3921 3.30093 25.4386 4.53173C25.4386 3.98542 25.429 3.51624 25.4418 3.05027C25.4675 1.81948 26.2291 1.01609 27.4406 1.00966C31.2423 0.993591 35.0439 0.996804 38.8488 1.00966C40.07 1.01287 40.8573 1.80341 40.8669 3.02778C40.8862 5.1166 40.8862 7.20541 40.8669 9.29423C40.8541 10.5057 40.0571 11.277 38.8263 11.2931C37.4348 11.3091 36.0401 11.2738 34.6487 11.3156C34.353 11.3252 34.067 11.5759 33.7746 11.7173C33.7521 11.7269 33.7424 11.759 33.7232 11.7783C32.216 13.173 31.734 14.8473 31.8207 16.9232C31.9846 20.7731 31.8593 24.6358 31.8818 28.4921C31.885 28.8938 32.0103 29.3308 32.1935 29.694C32.7944 30.8862 33.1544 32.1266 33.1544 33.4667C33.1511 35.8993 33.1544 38.3352 33.1544 40.8772C32.8266 40.8772 32.5438 40.8772 32.2578 40.8772C26.6597 40.8772 21.0649 40.8643 15.4669 40.8836C13.2399 40.89 11.6942 39.9195 10.7976 37.8789C10.2931 36.7285 9.73389 35.6005 9.24222 34.4436C8.41312 32.4898 8.56737 30.5905 9.61178 28.7395C9.83351 28.3475 9.98455 27.8526 9.98776 27.4059C10.0167 23.1736 10.0135 18.9414 9.98776 14.7091C9.98455 14.346 9.80138 13.9603 9.62463 13.6261C8.5995 11.7076 7.05699 10.8592 4.85248 11.277C4.25797 11.3895 3.6249 11.3059 3.0079 11.2899C1.82209 11.2609 1.02191 10.4993 1.00906 9.3328C0.986564 7.21827 0.986564 5.10053 1.00906 2.986C1.02513 1.81626 1.81888 1.01609 2.99183 1.01287C6.79348 0.996804 10.5951 1.00002 14.4 1.00966C15.6597 1.01287 16.4181 1.80662 16.4406 3.09205C16.447 3.54195 16.4406 3.99506 16.4406 4.53173ZM11.2989 26.9528C13.0149 25.722 14.8949 25.5709 16.6848 25.1725C17.6136 24.9668 17.2665 24.2148 17.4786 23.7167C17.5429 23.5657 17.289 23.1672 17.0833 23.0258C15.3576 21.8432 14.204 20.2525 13.9887 18.1701C13.8119 16.4733 13.8858 14.7477 13.8987 13.0348C13.8987 12.8806 14.2586 12.6299 14.4803 12.5914C16.2799 12.2796 17.906 11.5887 19.3874 10.5186C20.0494 10.0398 20.4415 9.51597 20.3097 8.66116C20.2487 8.27875 20.3001 7.87705 20.3001 7.49463C20.7853 7.49463 21.1678 7.49463 21.5887 7.49463C21.5887 7.97988 21.6369 8.4105 21.5791 8.83148C21.4827 9.52882 21.7783 9.96265 22.3182 10.3772C23.819 11.5277 25.4804 12.2861 27.341 12.5528C27.897 12.6331 28.048 12.8356 28.0287 13.3626C27.9934 14.3781 27.9966 15.4 28.0223 16.4155C28.1091 19.8315 26.6469 22.277 23.5137 23.691C23.4719 23.7103 23.4462 23.7681 23.4173 23.8035C23.4719 24.2277 23.5233 24.6454 23.5747 25.06C25.9785 25.7059 28.5333 25.8023 30.5867 27.6373C30.5867 23.2861 30.5932 19.1342 30.5674 14.9822C30.5674 14.7669 30.3425 14.4809 30.14 14.3524C29.5937 14.0021 29.2949 13.549 29.2981 12.8999C29.3013 12.376 29.2981 11.8522 29.2981 11.2899C28.5943 11.2899 28.0062 11.3027 27.4214 11.2866C26.2484 11.2513 25.4707 10.4768 25.445 9.30387C25.4257 8.39443 25.4161 7.48178 25.4514 6.57234C25.4675 6.1353 25.3293 5.89107 24.918 5.72075C22.2604 4.60885 19.6156 4.60885 16.958 5.72717C16.5467 5.90071 16.4149 6.14172 16.431 6.58198C16.4663 7.49142 16.4567 8.40408 16.4374 9.31351C16.4085 10.4865 15.6276 11.2545 14.4514 11.2899C13.844 11.3059 13.2399 11.2931 12.5811 11.2931C12.5811 11.9294 12.6839 12.4885 12.5522 12.9834C12.4269 13.459 12.1569 14.0246 11.7713 14.2656C11.3278 14.542 11.2925 14.8184 11.2957 15.2297C11.3021 17.9901 11.2989 20.7506 11.2989 23.5078C11.2989 24.6069 11.2989 25.6963 11.2989 26.9528ZM23.7001 26.429C22.3022 30.9762 20.4286 35.2823 18.5712 39.55C21.2063 39.55 23.9282 39.55 26.724 39.55C26.724 37.3744 26.6758 35.2406 26.7497 33.1068C26.7754 32.3901 27.1064 31.6799 27.3217 30.8894C27.8681 31.1626 28.1926 31.3264 28.3758 31.4164C28.2087 32.4737 28.0577 33.4153 27.9066 34.3858C29.3559 34.3858 30.5964 34.3858 31.8304 34.3858C32.065 30.8637 30.2686 28.0807 27.2028 27.2324C26.0202 26.9046 24.8087 26.6796 23.7001 26.429ZM11.2378 10.0076C12.3401 10.0076 13.2752 9.98836 14.2104 10.0141C14.9013 10.0334 15.168 9.72485 15.1616 9.04679C15.1423 7.11865 15.1423 5.18729 15.1616 3.25915C15.168 2.58431 14.9109 2.28544 14.2168 2.28866C10.5437 2.30151 6.87382 2.2983 3.20392 2.28866C2.55478 2.28866 2.28806 2.56824 2.29127 3.21095C2.30734 5.16801 2.31055 7.12186 2.29127 9.07892C2.28484 9.77948 2.60299 10.0269 3.27141 10.0141C4.45079 9.99158 5.63659 10.0944 6.80312 9.98194C7.97607 9.86946 8.76982 10.2262 9.39325 11.2288C9.84637 11.9583 10.4602 12.5881 11.0033 13.263C11.0804 13.2309 11.1543 13.2019 11.2314 13.1698C11.2378 12.1511 11.2378 11.1292 11.2378 10.0076ZM15.1777 13.7707C15.1777 15.114 15.0877 16.4026 15.2002 17.6752C15.3608 19.5455 16.3153 21.0045 17.9253 21.9814C18.1567 22.1228 18.5937 22.1356 18.8379 22.0103C20.0912 21.3708 21.2417 21.4608 22.3825 22.277C22.5882 22.4217 22.9899 22.4763 23.2148 22.3767C25.0015 21.6054 26.2291 20.2686 26.5408 18.3468C26.7819 16.859 26.7176 15.3229 26.7883 13.7836C24.4938 13.3401 22.601 12.3407 20.9235 10.9171C19.2428 12.3953 17.3661 13.3176 15.1777 13.7707ZM30.6414 13.1762C30.7024 13.1987 30.7667 13.218 30.8277 13.2405C31.0013 13.0573 31.1845 12.8806 31.3451 12.6878C31.9364 11.9615 32.4859 11.1967 33.119 10.509C33.3536 10.2551 33.7682 10.0462 34.1056 10.0334C35.6031 9.98194 37.1038 9.998 38.6046 10.0173C39.273 10.0269 39.5944 9.78591 39.5879 9.08214C39.5686 7.12507 39.5719 5.17123 39.5879 3.21416C39.5911 2.57145 39.3276 2.28866 38.6753 2.29187C35.0054 2.30151 31.3355 2.30151 27.6656 2.28866C26.9747 2.28544 26.7144 2.58431 26.7208 3.25915C26.7401 5.18729 26.7401 7.11865 26.7208 9.04679C26.7144 9.72485 26.9779 10.0334 27.672 10.0141C28.6264 9.98836 29.5809 10.0076 30.6446 10.0076C30.6414 11.1292 30.6414 12.1511 30.6414 13.1762ZM11.4274 36.1082C11.6428 36.5967 11.8163 36.9823 11.9866 37.3744C12.5972 38.7851 13.6352 39.6239 15.2066 39.5692C16.7395 39.5178 17.6875 38.6341 18.237 37.2298C19.2943 34.5175 20.3387 31.7988 21.4923 29.1284C22.1158 27.679 22.3022 26.2072 22.2218 24.6712C22.1704 23.691 21.5148 22.9712 20.599 22.8812C19.6863 22.7944 18.9086 23.3921 18.6805 24.3402C18.4298 25.3813 18.4587 26.3872 18.8219 27.4155C18.9536 27.7851 18.9022 28.3121 18.7351 28.6753C18.1052 30.0603 17.3982 31.41 16.717 32.7726C16.1835 33.8395 15.6404 34.9064 15.0523 36.0761C14.5928 35.7547 14.2136 35.488 13.7091 35.1345C13.1017 35.3916 12.2951 35.7355 11.4274 36.1082ZM14.0722 33.5534C13.8055 32.824 13.5612 32.1588 13.3074 31.4646C13.7251 31.2943 14.0626 31.1593 14.445 31.0051C14.7117 31.6253 14.9495 32.178 15.2323 32.8368C15.8814 31.5418 16.4149 30.3142 17.0962 29.1734C17.6714 28.2157 17.6585 27.348 17.0994 26.3743C15.9232 26.6539 14.7053 26.8532 13.5452 27.2324C10.2191 28.3218 8.94657 32.1555 10.9904 34.8903C12.0027 34.45 13.0214 34.0098 14.0722 33.5534ZM28.0673 35.774C28.0673 37.0659 28.0673 38.3031 28.0673 39.5307C29.3591 39.5307 30.5964 39.5307 31.8272 39.5307C31.8272 38.2517 31.8272 37.0337 31.8272 35.774C30.5707 35.774 29.3527 35.774 28.0673 35.774Z" fill="#898796"/>
<path d="M12.3554 4.71488C10.678 6.15134 9.06474 7.53639 7.46117 8.90858C6.67063 8.11162 5.92187 7.36286 5.09277 6.53054C5.37557 6.32166 5.668 6.10314 6.0472 5.81713C6.4489 6.19955 6.94057 6.6623 7.48688 7.1829C8.83658 6.02923 10.167 4.89484 11.5231 3.73474C11.7995 4.06252 12.0405 4.34532 12.3554 4.71488Z" fill="#898796"/>
<path d="M23.4529 20.6476C23.0415 20.8533 22.7137 21.014 22.3988 21.1714C21.2002 19.9953 20.6603 19.9953 19.4938 21.1747C19.1788 21.0204 18.851 20.8565 18.459 20.6637C18.925 19.6546 19.6737 19.1212 20.6988 19.0312C21.9039 18.9284 22.7941 19.4715 23.4529 20.6476Z" fill="#898796"/>
<path d="M19.2527 14.8022C19.5258 15.0465 19.799 15.2907 20.0657 15.5253C19.0952 16.7304 17.6844 16.7368 16.6689 15.5317C16.9421 15.3068 17.2249 15.0754 17.3502 14.9726C18.0701 14.9726 18.6581 14.9726 19.2462 14.9726C19.2462 14.9147 19.2494 14.8601 19.2527 14.8022Z" fill="#898796"/>
<path d="M21.8145 15.5286C22.0876 15.3005 22.3672 15.0659 22.4764 14.9727C23.2188 14.9727 23.8069 14.9727 24.3949 14.9727C24.411 14.902 24.4271 14.8345 24.4432 14.7638C24.6649 15.0305 24.8834 15.2972 25.1148 15.5736C24.4464 16.7241 22.8396 16.7626 21.8145 15.5286Z" fill="#898796"/>
<path d="M29.5498 4.07213C29.8455 3.70257 30.0768 3.41335 30.3436 3.07593C31.1405 3.71543 31.9246 4.31315 32.6734 4.95586C33.0237 5.25794 33.2743 5.26758 33.631 4.96229C34.3798 4.31958 35.1639 3.72185 35.9641 3.07914C36.2308 3.41014 36.4622 3.70257 36.7578 4.07213C35.9255 4.75341 35.1093 5.41862 34.2127 6.15131C35.0675 6.84865 35.8837 7.51386 36.7578 8.22727C36.4879 8.56791 36.2469 8.8732 35.9673 9.22991C35.1671 8.59041 34.383 7.98947 33.6375 7.34997C33.284 7.0479 33.0333 7.04468 32.6798 7.34997C31.9311 7.99268 31.1469 8.59041 30.3468 9.23312C30.08 8.89891 29.8487 8.60969 29.5562 8.24013C30.3918 7.55885 31.208 6.89364 32.1014 6.16416C31.2434 5.45718 30.4271 4.78876 29.5498 4.07213Z" fill="#898796"/>
</svg>
