<svg width="40" height="40" viewBox="0 0 40 40" fill="none" xmlns="http://www.w3.org/2000/svg">
<g clip-path="url(#clip0)">
<path d="M39.7672 19.4406C37.1149 16.203 34.0225 13.6929 30.5759 11.9772C27.2562 10.325 23.7491 9.47662 20.1502 9.45404C20.1001 9.45312 20.0501 9.45312 20 9.45312C19.95 9.45312 19.8999 9.45312 19.8499 9.45404C16.2509 9.47662 12.7438 10.325 9.42414 11.9772C5.97749 13.6929 2.88514 16.203 0.232857 19.4397C0.0781329 19.5923 -0.000907668 19.7952 7.86322e-06 20C-0.000907668 20.2048 0.0781329 20.4077 0.232857 20.5603C2.88514 23.797 5.97749 26.3071 9.42414 28.0228C12.7438 29.675 16.2509 30.5234 19.8499 30.546C19.8999 30.5469 19.95 30.5469 20 30.5469C20.0501 30.5469 20.1001 30.5469 20.1502 30.546C23.7491 30.5234 27.2562 29.675 30.5759 28.0228C34.0335 26.3025 37.1344 23.7811 39.7922 20.5289C39.9228 20.3867 40 20.1978 40 19.9969C40 19.7827 39.9133 19.5844 39.7672 19.4406ZM10.1202 26.6241C7.02668 25.0842 4.22974 22.8577 1.80085 20C4.22974 17.1423 7.02668 14.9158 10.1202 13.3759C11.0312 12.9227 11.9571 12.5345 12.8952 12.211C10.7813 14.1415 9.45313 16.9186 9.45313 20C9.45313 23.0814 10.7813 25.8585 12.8952 27.789C11.9571 27.4655 11.0312 27.0773 10.1202 26.6241ZM20 28.9844C15.0461 28.9844 11.0156 24.9539 11.0156 20C11.0156 15.0461 15.0461 11.0156 20 11.0156C24.9539 11.0156 28.9844 15.0461 28.9844 20C28.9844 24.9539 24.9539 28.9844 20 28.9844ZM29.8798 26.6241C28.9688 27.0773 28.0429 27.4655 27.1048 27.789C29.2188 25.8585 30.5469 23.0814 30.5469 20C30.5469 16.9186 29.2188 14.1415 27.1048 12.211C28.0429 12.5345 28.9688 12.9227 29.8798 13.3759C32.9733 14.9158 35.7703 17.1423 38.1992 20C35.7703 22.8577 32.9733 25.0842 29.8798 26.6241Z" fill="#898796"/>
<path d="M20 24.2969C17.6306 24.2969 15.7031 22.3694 15.7031 20C15.7031 17.6306 17.6306 15.7031 20 15.7031C22.3694 15.7031 24.2969 17.6306 24.2969 20C24.2969 22.3694 22.3694 24.2969 20 24.2969ZM20 17.2656C18.4921 17.2656 17.2656 18.4921 17.2656 20C17.2656 21.5079 18.4921 22.7344 20 22.7344C21.5079 22.7344 22.7344 21.5079 22.7344 20C22.7344 18.4921 21.5079 17.2656 20 17.2656Z" fill="#898796"/>
<path d="M20 36.7932C19.5685 36.7932 19.2188 36.4435 19.2188 36.012V32.887C19.2188 32.4557 19.5685 32.1057 20 32.1057C20.4315 32.1057 20.7812 32.4557 20.7812 32.887V36.012C20.7812 36.4435 20.4315 36.7932 20 36.7932Z" fill="#898796"/>
<path d="M25.7929 35.878C25.5927 35.878 25.3928 35.8017 25.2402 35.6491L23.0304 33.4396C22.7255 33.1345 22.7255 32.6398 23.0304 32.3346C23.3356 32.0297 23.8303 32.0294 24.1355 32.3346L26.3452 34.5444C26.6504 34.8496 26.6504 35.3442 26.3452 35.6491C26.1926 35.8017 25.9927 35.878 25.7929 35.878Z" fill="#898796"/>
<path d="M14.2078 35.878C14.0079 35.878 13.808 35.8017 13.6554 35.6491C13.3505 35.3443 13.3505 34.8496 13.6554 34.5444L15.8652 32.3346C16.1707 32.0297 16.6651 32.0297 16.9702 32.3346C17.2751 32.6398 17.2751 33.1345 16.9702 33.4397L14.7605 35.6491C14.6079 35.8017 14.408 35.878 14.2078 35.878Z" fill="#898796"/>
<path d="M20 7.88696C19.5685 7.88696 19.2188 7.53723 19.2188 7.10571V3.98071C19.2188 3.5495 19.5685 3.19946 20 3.19946C20.4315 3.19946 20.7812 3.5495 20.7812 3.98071V7.10571C20.7812 7.53723 20.4315 7.88696 20 7.88696Z" fill="#898796"/>
<path d="M16.4179 7.88696C16.2177 7.88696 16.0178 7.81097 15.8652 7.65839L13.6554 5.44861C13.3505 5.14343 13.3505 4.64874 13.6554 4.34387C13.9606 4.0387 14.4553 4.0387 14.7605 4.34387L16.9702 6.55334C17.2754 6.85852 17.2754 7.35321 16.9702 7.65839C16.8176 7.81067 16.6178 7.88696 16.4179 7.88696Z" fill="#898796"/>
<path d="M23.5828 7.88696C23.3829 7.88696 23.183 7.81097 23.0304 7.65839C22.7255 7.35321 22.7255 6.85852 23.0304 6.55334L25.2402 4.34387C25.5454 4.0387 26.04 4.0387 26.3452 4.34387C26.6504 4.64874 26.6501 5.14343 26.3452 5.44861L24.1355 7.65839C23.9829 7.81067 23.783 7.88696 23.5828 7.88696Z" fill="#898796"/>
<path d="M20.0003 1.64063C19.5691 1.64063 19.2188 1.29089 19.2188 0.859375C19.2188 0.427856 19.5682 0.078125 19.9997 0.078125H20.0003C20.4318 0.078125 20.7816 0.427856 20.7816 0.859375C20.7816 1.29089 20.4318 1.64063 20.0003 1.64063Z" fill="#898796"/>
<path d="M20.0003 39.9219C19.5691 39.9219 19.2188 39.5721 19.2188 39.1406C19.2188 38.7091 19.5682 38.3594 19.9997 38.3594H20.0003C20.4318 38.3594 20.7816 38.7091 20.7816 39.1406C20.7816 39.5721 20.4318 39.9219 20.0003 39.9219Z" fill="#898796"/>
</g>
<defs>
<clipPath id="clip0">
<rect width="40" height="40" fill="white"/>
</clipPath>
</defs>
</svg>
