<svg width="31" height="40" viewBox="0 0 31 40" fill="none" xmlns="http://www.w3.org/2000/svg">
<path d="M3.99096 34.4421C3.99096 34.0345 3.99096 33.7253 3.99096 33.4177C3.99096 24.7786 3.99096 16.1396 3.99096 7.50059C3.99096 7.29289 3.92693 7.05552 4.00658 6.88217C4.12995 6.61045 4.35014 6.38245 4.52973 6.13727C4.74055 6.38088 5.00135 6.59795 5.14346 6.87593C5.23872 7.06176 5.16532 7.33505 5.16532 7.5693C5.16532 16.1568 5.16532 24.7427 5.16532 33.3302C5.16532 33.6628 5.16532 33.9955 5.16532 34.4421C5.81184 34.4421 6.3756 34.4421 6.93779 34.4421C8.75867 34.4421 10.5811 34.4405 12.402 34.4437C12.8205 34.4452 13.3265 34.4171 13.3374 34.9996C13.3499 35.6305 12.8346 35.6118 12.3786 35.6102C9.04757 35.6087 5.71658 35.6133 2.38715 35.6071C0.875478 35.604 0.0243808 34.7654 0.010326 33.2396C-0.00841376 31.3141 0.0040794 29.3886 0.0040794 27.4631C0.0040794 19.241 0.0040794 11.0174 0.0040794 2.79535C0.0040794 0.705864 0.717751 0 2.82129 0C11.2526 0 19.6824 0 28.1137 0C30.0017 0 30.7794 0.762083 30.781 2.63294C30.7841 8.61716 30.7826 14.603 30.781 20.5872C30.781 20.7699 30.8388 20.9963 30.7529 21.1228C30.5998 21.3493 30.3797 21.6194 30.147 21.6678C30.0111 21.6959 29.7331 21.3571 29.6301 21.1322C29.541 20.9385 29.6035 20.6731 29.6035 20.4388C29.6035 14.4796 29.6035 8.52034 29.602 2.56266C29.602 1.46482 29.3224 1.17904 28.2121 1.17904C20.7693 1.17436 13.328 1.17592 5.88524 1.17904C5.68222 1.17904 5.48077 1.20715 5.16532 1.23058C5.16532 1.92551 5.19655 2.59389 5.15439 3.25916C5.12472 3.74795 5.41362 4.52721 4.55628 4.51784C3.76765 4.50847 4.02063 3.77294 3.99877 3.2982C3.96754 2.62825 3.99096 1.95518 3.99096 1.32115C3.88165 1.25712 3.84104 1.2134 3.79732 1.21028C1.06756 1.06504 1.17219 1.23526 1.17688 3.59959C1.19405 13.3318 1.18312 23.0639 1.18468 32.7961C1.18468 34.2547 1.3752 34.4421 2.86501 34.4437C3.22107 34.4437 3.58025 34.4421 3.99096 34.4421Z" fill="#898796"/>
<path d="M6.26286 17.0109C6.47525 13.0303 8.56005 9.52595 12.8171 7.59888C17.007 5.70304 20.9829 6.36205 24.5825 9.22767C24.7637 9.37135 24.9948 9.53063 25.0526 9.7274C25.1151 9.9351 25.0682 10.2537 24.937 10.4145C24.8386 10.5348 24.5123 10.541 24.3155 10.4879C24.1312 10.4379 23.9875 10.2459 23.8236 10.1163C20.5144 7.50362 16.8742 6.94611 13.0841 8.77324C9.26435 10.616 7.37632 13.8361 7.44659 18.0853C7.53717 23.5776 12.2846 27.8487 17.9643 27.6426C23.2504 27.4505 27.5934 22.6516 27.3248 17.3139C27.2436 15.6991 26.8313 14.189 26.0317 12.7835C25.8084 12.39 25.5242 11.9574 26.0817 11.6467C26.5971 11.3593 26.8219 11.806 27.0359 12.1667C31.0759 18.9708 26.4737 28.0049 18.5843 28.7607C11.9004 29.401 6.22695 24.296 6.26286 17.0109Z" fill="#898796"/>
<path d="M26.0154 35.6118C26.0154 36.6768 26.0201 37.6591 26.0138 38.6414C26.0076 39.8641 25.3236 40.367 24.3413 39.7095C22.9124 38.7522 21.6568 38.785 20.2435 39.7298C19.3269 40.342 18.621 39.8641 18.5991 38.7601C18.5788 37.7481 18.5944 36.7362 18.5944 35.6118C17.7199 35.6118 16.8969 35.6196 16.0739 35.6086C15.5992 35.6024 14.9511 35.7445 14.9621 35.0043C14.973 34.325 15.5961 34.4483 16.0443 34.4468C20.0233 34.439 24.0009 34.4437 27.9799 34.4421C29.3979 34.4421 29.604 34.2328 29.6056 32.8195C29.6056 30.0367 29.6056 27.2554 29.6056 24.4725C29.6056 24.2649 29.5447 24.0212 29.6306 23.8573C29.7493 23.6355 29.9773 23.3357 30.1709 23.3279C30.3599 23.3185 30.6129 23.6027 30.744 23.8151C30.8377 23.9697 30.7847 24.2196 30.7847 24.4273C30.7862 27.2882 30.7893 30.1476 30.7847 33.0085C30.7815 34.8325 29.996 35.6071 28.1689 35.6102C27.4911 35.6118 26.8149 35.6118 26.0154 35.6118ZM19.8078 38.7819C21.4757 37.3608 23.106 37.289 24.7911 38.785C24.7911 37.581 24.7911 36.6393 24.7911 35.6586C23.1123 35.6586 21.471 35.6586 19.8078 35.6586C19.8078 36.6487 19.8078 37.5919 19.8078 38.7819Z" fill="#898796"/>
<path d="M13.4312 12.0124C13.7014 11.4689 13.2485 10.5304 14.1761 10.5585C15.0194 10.585 14.6165 11.4564 14.832 12.0092C15.6456 12.0092 16.4749 11.964 17.2963 12.0342C17.5758 12.0577 18.0131 12.3309 18.0584 12.5558C18.1646 13.0712 17.718 13.2086 17.2947 13.1508C16.6232 13.0602 16.3687 13.3554 16.1626 13.9754C15.8955 14.778 15.4458 15.5198 14.9913 16.4568C15.7081 16.8644 16.4718 17.3235 17.2588 17.7374C17.6477 17.9419 18.0756 18.1184 17.8601 18.6447C17.6383 19.1834 17.1917 19.0335 16.8075 18.8258C15.9018 18.3339 15.0069 17.8201 14.1449 17.336C13.2657 17.8279 12.3475 18.3527 11.4183 18.8571C11.0482 19.0585 10.6343 19.1382 10.4282 18.6556C10.2252 18.1824 10.5672 17.9732 10.9482 17.7764C11.7478 17.3626 12.527 16.9081 13.261 16.5005C12.7753 15.3808 12.3599 14.3876 11.9039 13.4147C11.8415 13.282 11.5807 13.2117 11.3995 13.1727C11.1996 13.1305 10.9451 13.2289 10.7874 13.1383C10.5562 13.0071 10.3876 12.762 10.1924 12.5668C10.4016 12.3825 10.6 12.0561 10.8202 12.0405C11.6947 11.9765 12.577 12.0124 13.4312 12.0124ZM15.2521 13.2414C14.4416 13.2414 13.8013 13.2414 13.0065 13.2414C13.3922 14.0175 13.7139 14.6656 14.0356 15.3153C14.1137 15.3121 14.1918 15.309 14.2714 15.3074C14.59 14.6375 14.9086 13.9676 15.2521 13.2414Z" fill="#898796"/>
<path d="M16.8604 23.5778C17.852 20.9839 18.7843 18.5118 19.7603 16.0553C19.8368 15.8617 20.2413 15.654 20.4459 15.6946C20.6989 15.7446 21.0065 16.0022 21.1112 16.2458C21.539 17.2453 21.8982 18.2744 22.2839 19.2926C22.7618 20.5529 23.2412 21.8131 23.7238 23.0702C23.8831 23.4825 24.0143 23.9213 23.4802 24.1228C22.9258 24.3321 22.7103 23.8698 22.6306 23.47C22.4432 22.5205 21.906 22.1973 20.9862 22.355C20.7082 22.4019 20.4115 22.3972 20.132 22.3566C19.0591 22.1957 18.2893 22.4409 18.0534 23.6605C18.0144 23.862 17.5865 24.0759 17.3179 24.1072C17.1836 24.1243 16.9993 23.7496 16.8604 23.5778ZM21.7389 21.1713C21.2954 20.0063 20.88 18.91 20.4631 17.8153C20.4037 17.8294 20.3428 17.845 20.2835 17.859C19.8821 18.9381 19.4808 20.0157 19.0513 21.1713C19.9821 21.1713 20.7926 21.1713 21.7389 21.1713Z" fill="#898796"/>
</svg>
