<svg width="41" height="40" viewBox="0 0 41 40" fill="none" xmlns="http://www.w3.org/2000/svg">
<path d="M12.3888 27.4993C12.7513 29.428 12.5157 31.1792 11.7833 32.8795C11.689 33.1007 11.7217 33.3907 11.7325 33.6481C11.7942 35.421 11.8667 37.1902 11.9356 38.9631C11.9537 39.4126 12.0117 39.9601 11.4063 39.9963C10.7283 40.0398 10.7645 39.4416 10.7464 38.9776C10.6667 37.0778 10.5941 35.1744 10.5434 33.2747C10.5361 32.9738 10.5869 32.6438 10.7138 32.3719C11.399 30.8964 11.4534 29.3628 11.2794 27.7821C11.2322 27.347 11.3011 26.8467 11.4751 26.4479C12.1168 24.9941 12.8274 23.5765 13.5054 22.1408C13.8825 21.3396 13.7737 20.7305 13.1827 20.4477C12.4721 20.1069 12.0153 20.4731 11.6129 21.0423C10.0213 23.301 8.41522 25.5451 6.81276 27.7966C6.69312 27.967 6.60248 28.2135 6.43571 28.2824C6.18555 28.3912 5.85201 28.4637 5.61635 28.3766C5.50033 28.3331 5.4532 27.8763 5.51483 27.6443C5.58372 27.3833 5.8085 27.1621 6.02965 26.8358C4.77524 25.8968 4.75348 24.5228 4.77886 23.1161C4.80786 21.5535 4.78611 19.9873 4.78249 18.4247C4.78249 18.1782 4.76073 17.9316 4.73898 17.5002C4.21328 18.1999 3.7891 18.751 3.38305 19.3093C3.12926 19.6574 2.82835 19.9365 2.41504 19.6429C1.99086 19.3419 2.16851 18.9685 2.42592 18.6241C2.78484 18.1455 3.08576 17.609 3.50269 17.1848C4.60484 16.0609 4.86225 14.7484 4.81512 13.2076C4.71723 10.0027 4.78249 6.79413 4.78611 3.5892C4.78974 1.26163 6.04778 -3.66224e-05 8.35359 -0.00366211C17.7654 -3.66224e-05 27.1771 -3.66224e-05 36.5889 -3.66224e-05C38.8512 -3.66224e-05 40.1129 1.26888 40.1129 3.54206C40.1165 10.3471 40.1165 17.1485 40.1129 23.9536C40.1129 26.2267 38.8512 27.4993 36.5889 27.4993C28.8738 27.5029 21.1552 27.4993 13.4401 27.4993C13.132 27.4993 12.8238 27.4993 12.3888 27.4993ZM33.4093 3.54206C33.0577 3.54206 32.7495 3.54206 32.445 3.54206C26.9958 3.54206 21.5467 3.54206 16.0976 3.54206C15.8366 3.54206 15.5466 3.60007 15.3254 3.50218C15.1042 3.4043 14.778 3.10338 14.8106 2.96561C14.865 2.72996 15.1405 2.51605 15.3725 2.36741C15.5031 2.28402 15.7278 2.34565 15.9091 2.34565C21.699 2.34565 27.4853 2.34565 33.2752 2.34565C34.4462 2.34565 34.6384 2.53418 34.6384 3.69796C34.6384 10.3979 34.6384 17.1014 34.6384 23.8013C34.6384 24.9651 34.4462 25.1572 33.2752 25.1572C26.9668 25.1572 20.6549 25.1753 14.3465 25.1391C13.48 25.1355 13.0413 25.4001 12.9471 26.3029C13.219 26.3029 13.4764 26.3029 13.7374 26.3029C21.3002 26.3029 28.8593 26.3029 36.4221 26.3029C38.3074 26.3029 38.9418 25.6612 38.9454 23.7578C38.9454 17.1086 38.9454 10.4595 38.9454 3.81035C38.9454 1.80546 38.3364 1.19637 36.3351 1.19637C27.0792 1.19637 17.8234 1.19637 8.56387 1.19637C8.32821 1.19637 8.09256 1.18912 7.86053 1.20725C6.7765 1.27976 6.00428 2.03749 6.00065 3.13238C5.98615 10.1985 5.98252 17.2645 6.01515 24.3306C6.01878 24.8418 6.34145 25.3494 6.51547 25.8606C6.62061 25.8569 6.72575 25.8497 6.83089 25.8461C6.97953 25.4908 7.21519 25.1463 7.25507 24.7802C7.3022 24.356 7.13905 23.9101 7.13905 23.475C7.12818 17.2174 7.14268 10.9598 7.12818 4.70222C7.12455 2.20063 7.07017 2.3239 9.45574 2.34203C10.5506 2.34928 11.6492 2.3094 12.7404 2.37466C12.9725 2.38916 13.1791 2.75533 13.4003 2.96199C13.19 3.15414 13.0087 3.39704 12.7658 3.51669C12.5737 3.60732 12.3054 3.54206 12.0697 3.54569C10.8516 3.54569 9.63339 3.54569 8.37897 3.54569C8.37897 10.2057 8.37897 16.7787 8.37897 23.3771C8.47323 23.3372 8.53124 23.33 8.55299 23.2973C9.16208 22.4526 9.76753 21.6042 10.373 20.7559C11.4933 19.1824 12.6172 18.7474 13.8063 19.4326C15.0027 20.1214 15.1876 21.336 14.3683 23.0617C14.2414 23.33 14.1217 23.6019 13.9803 23.9064C20.5171 23.9064 26.9487 23.9064 33.4057 23.9064C33.4093 17.1123 33.4093 10.3725 33.4093 3.54206Z" fill="#898796"/>
<path d="M1.96892 35.8561C1.96892 35.751 1.95805 35.6458 1.96892 35.5443C2.22271 33.5684 1.90366 31.7665 0.986415 29.9284C-0.333263 27.2818 -0.249876 24.4431 0.761635 21.6551C0.91028 21.2454 1.02992 20.7124 1.639 20.9118C2.25171 21.1149 2.03418 21.5898 1.88191 22.014C0.841396 24.889 1.01179 27.7024 2.45836 30.3852C3.03482 31.4584 3.30673 32.5061 3.21972 33.7243C3.09282 35.5153 3.0892 37.3135 3.04569 39.1082C3.03482 39.5541 2.99494 40.0181 2.43298 39.9964C1.86016 39.9746 1.88554 39.4888 1.88916 39.0538C1.89641 37.9879 1.89279 36.9184 1.89279 35.8525C1.91454 35.8561 1.94354 35.8561 1.96892 35.8561Z" fill="#898796"/>
<path d="M21.0823 7.63513C18.2725 7.63513 15.7891 9.45512 14.9625 12.1235C14.1286 14.8172 15.1764 17.772 17.5257 19.3418C19.8533 20.8972 22.9313 20.7521 25.1066 18.9901C25.1863 18.9249 25.2661 18.856 25.3422 18.7871C25.6504 18.5007 25.9912 18.2687 26.3501 18.6711C26.7018 19.0699 26.4444 19.3926 26.129 19.6645C24.3779 21.1836 22.3367 21.8543 20.049 21.5171C16.0429 20.9262 13.3346 17.5798 13.5159 13.5519C13.6827 9.79954 16.7643 6.73963 20.6654 6.44597C26.1254 6.03629 30.2874 11.9422 28.0686 16.9454C27.8837 17.3587 27.6589 17.7357 27.1441 17.4964C26.6583 17.2717 26.8359 16.8692 26.981 16.4886C28.6414 12.1126 25.6577 7.63513 21.0823 7.63513Z" fill="#898796"/>
<path d="M18.1641 14.0234C18.1641 13.088 18.1423 12.149 18.1713 11.2136C18.2148 9.78881 19.5091 9.09634 20.7019 9.87945C22.0724 10.7786 23.4138 11.7139 24.7443 12.6711C25.7522 13.3962 25.7595 14.6325 24.7552 15.3539C23.4283 16.3111 22.0796 17.2428 20.7128 18.1419C19.4946 18.9432 18.204 18.2253 18.1677 16.7497C18.146 15.8434 18.1641 14.9334 18.1641 14.0234ZM19.317 13.9835C19.317 14.8681 19.3025 15.7527 19.3206 16.6374C19.3351 17.2899 19.6252 17.4603 20.1472 17.1087C21.4234 16.2567 22.6778 15.3721 23.9431 14.5019C24.4072 14.1829 24.4325 13.8747 23.9431 13.5412C22.6959 12.6892 21.4633 11.8191 20.2125 10.9743C19.6107 10.5683 19.3279 10.7387 19.3134 11.4855C19.3061 12.3158 19.317 13.1496 19.317 13.9835Z" fill="#898796"/>
<path d="M36.1935 14.5708C36.1935 14.3134 36.121 14.0233 36.2116 13.8058C36.3131 13.5593 36.5633 13.378 36.7482 13.1677C36.944 13.3671 37.2739 13.5484 37.3065 13.7696C37.3863 14.3243 37.3863 14.908 37.3065 15.4663C37.2739 15.6874 36.9367 15.8651 36.7409 16.0609C36.5596 15.847 36.3022 15.6621 36.2116 15.4155C36.121 15.1654 36.1935 14.8536 36.1935 14.5708Z" fill="#898796"/>
</svg>
