<svg width="40" height="40" viewBox="0 0 40 40" fill="none" xmlns="http://www.w3.org/2000/svg">
<g clip-path="url(#clip0)">
<path d="M27.7653 39.9999C28.6715 39.9999 29.4606 39.3904 29.695 38.5231L31.5387 31.6389L38.5153 29.7714C39.5778 29.4823 40.2106 28.3883 39.9215 27.3256L36.3121 13.8308L36.6012 12.7681C36.859 11.7835 36.3434 10.7677 35.3981 10.3926L33.7653 4.30547C33.4762 3.24276 32.3825 2.60983 31.3121 2.89113L19.4137 6.08707L9.42933 3.40686C9.02308 3.29746 8.58558 3.3209 8.19496 3.47719L5.70277 0.984511C4.85902 0.140597 3.63246 -0.195406 2.47621 0.109341C1.31996 0.414088 0.421523 1.32051 0.109023 2.47699C-0.203477 3.63347 0.132461 4.86027 0.984023 5.70418L5.5309 10.2519L0.0855855 30.5762C-0.195664 31.6389 0.429336 32.7407 1.49184 33.0298L27.2496 39.9296C27.4137 39.9765 27.5934 39.9999 27.7653 39.9999ZM38.6403 27.6694C38.734 28.021 38.5231 28.3883 38.1715 28.4821L31.9371 30.1465L35.6246 16.4094L38.6403 27.6694ZM31.6559 4.18045C31.8278 4.13356 32.0075 4.15701 32.1637 4.24296C32.32 4.32891 32.4293 4.47738 32.4762 4.64929L33.8981 9.96282L21.984 6.7747L31.6559 4.18045ZM20.195 20.1992L16.8278 19.074L19.07 16.8314L20.195 20.1992ZM17.484 16.5422L11.8278 10.8849C11.57 10.627 11.1481 10.627 10.8825 10.8849C10.6246 11.1427 10.6246 11.5647 10.8825 11.8304L16.5387 17.4877L15.5934 18.4332L6.17152 9.0017L7.10902 8.0562L8.99183 9.93938C9.16371 10.1113 9.4059 10.1738 9.63246 10.1113C9.85902 10.0488 10.0387 9.86906 10.1012 9.64245C10.1637 9.41584 10.0934 9.16579 9.92933 9.0017L8.05433 7.11071L8.99965 6.17302L18.4215 15.6046L17.484 16.5422ZM4.28871 7.11071L7.10902 4.28984L8.05433 5.23534L5.22621 8.06402L4.28871 7.11071ZM1.3434 3.34435C1.3434 2.53169 1.82777 1.80498 2.57777 1.50024C3.32777 1.18768 4.18715 1.35958 4.75746 1.93782L6.17152 3.34435L3.3434 6.17302L1.92934 4.75869C1.55434 4.38361 1.3434 3.8757 1.3434 3.34435ZM1.39809 30.9279C1.41371 30.7559 1.46059 30.584 1.49965 30.4199C3.21059 24.0593 4.91371 17.6987 6.62465 11.3303C8.85902 13.5729 11.0934 15.8155 13.3356 18.066C13.8981 18.6286 14.4606 19.1912 15.109 19.6444C16.1403 20.3633 17.3512 20.7618 18.5387 21.1603C19.445 21.4651 20.6481 21.6839 21.2028 20.9025C21.5934 20.3555 21.4215 19.5975 21.234 18.949C20.8434 17.5893 20.4371 16.1984 19.609 15.0498C19.2106 14.495 18.7262 14.0105 18.2418 13.526C15.3356 10.627 12.4371 7.7202 9.5309 4.8212C17.9059 7.06382 26.2809 9.30645 34.6559 11.5569C34.8746 11.6116 35.109 11.6819 35.234 11.8694C35.3825 12.0882 35.32 12.3852 35.2496 12.643C32.984 21.0978 30.7184 29.5604 28.4528 38.0152C28.3981 38.2183 28.3356 38.4293 28.1715 38.5543C27.945 38.7184 27.6325 38.6559 27.3668 38.5856C27.0621 38.5075 26.7653 38.4215 26.4606 38.3434C26.1559 38.2652 25.859 38.1793 25.5543 38.1011C25.2496 38.023 24.9528 37.937 24.6481 37.8589C24.3434 37.7808 24.0465 37.6948 23.7418 37.6167C23.4371 37.5385 23.1403 37.4526 22.8356 37.3744C22.5309 37.2963 22.234 37.2103 21.9293 37.1322C21.6246 37.0541 21.3278 36.9681 21.0231 36.89C20.7184 36.8118 20.4215 36.7259 20.1168 36.6477C19.8121 36.5696 19.5153 36.4836 19.2106 36.4055C18.9059 36.3273 18.609 36.2414 18.3043 36.1632C17.9996 36.0851 17.7028 35.9992 17.3981 35.921C17.0934 35.8429 16.7965 35.7569 16.4918 35.6788C16.1871 35.6006 15.8903 35.5147 15.5856 35.4365C15.2809 35.3584 14.984 35.2724 14.6793 35.1943C14.3746 35.1162 14.0778 35.0302 13.7731 34.9521C13.4684 34.8739 13.1715 34.788 12.8668 34.7098C12.5621 34.6317 12.2653 34.5457 11.9606 34.4676C11.6559 34.3895 11.359 34.3035 11.0543 34.2254C10.7496 34.1472 10.4528 34.0613 10.1481 33.9831C9.8434 33.905 9.54652 33.819 9.24183 33.7409C8.93715 33.6628 8.64027 33.5768 8.33558 33.4987C8.0309 33.4205 7.73402 33.3346 7.42933 33.2564C7.12465 33.1783 6.82777 33.0923 6.52309 33.0142C6.2184 32.9361 5.92152 32.8501 5.61684 32.772C5.31215 32.6938 5.01527 32.6079 4.71059 32.5297C4.4059 32.4516 4.10902 32.3656 3.80434 32.2875C3.49965 32.2094 3.20277 32.1234 2.89809 32.0453C2.63246 31.9749 2.37465 31.8968 2.10121 31.8343C1.99965 31.8108 1.9059 31.803 1.80434 31.7796C1.69496 31.7561 1.5934 31.6858 1.50746 31.6077C1.4684 31.5686 1.43715 31.5295 1.4059 31.4826C1.38246 31.4436 1.35121 31.3889 1.3434 31.342C1.39027 31.2092 1.39027 31.0685 1.39809 30.9279Z" fill="#898796"/>
<path d="M30.8219 15.6827C31.1579 15.6827 31.4391 15.4326 31.486 15.1045C31.5329 14.7763 31.3219 14.4637 30.9938 14.3777L21.5172 11.8382C21.2829 11.7679 21.0329 11.8304 20.861 12.0023C20.6891 12.1742 20.6188 12.4242 20.6891 12.6587C20.7516 12.8931 20.9391 13.0728 21.1735 13.1275L30.6501 15.6671C30.7048 15.6749 30.7594 15.6827 30.8219 15.6827Z" fill="#898796"/>
<path d="M29.7815 19.543C30.1174 19.543 30.3987 19.2929 30.4456 18.9647C30.4924 18.6365 30.2815 18.324 29.9534 18.2302L23.5081 16.5033C23.2737 16.4408 23.0237 16.5033 22.8596 16.6674C22.6878 16.8393 22.6252 17.0816 22.6877 17.316C22.7502 17.5504 22.9378 17.7301 23.1721 17.7848L29.6174 19.5117C29.6643 19.5352 29.7268 19.543 29.7815 19.543Z" fill="#898796"/>
<path d="M28.8831 23.7937C29.219 23.7937 29.5003 23.5436 29.5471 23.2155C29.594 22.8873 29.3831 22.5747 29.0549 22.4809L22.6096 20.754C22.3753 20.6915 22.1253 20.754 21.9612 20.9181C21.7893 21.09 21.7268 21.3323 21.7893 21.5667C21.8518 21.8011 22.0393 21.9808 22.2737 22.0355L28.719 23.7624C28.7659 23.7859 28.8284 23.7937 28.8831 23.7937Z" fill="#898796"/>
<path d="M9.22037 20.9572L7.29068 20.4415C7.05631 20.3711 6.80631 20.4336 6.63443 20.6056C6.46256 20.7775 6.39225 21.0275 6.46256 21.2541C6.52506 21.4885 6.71256 21.6683 6.94693 21.723L8.87662 22.2387C8.93131 22.2543 8.99381 22.2621 9.0485 22.2621C9.38444 22.2621 9.66569 22.0121 9.71256 21.6839C9.75162 21.3557 9.54068 21.0431 9.22037 20.9572Z" fill="#898796"/>
<path d="M28.36 26.7709C28.4538 26.4193 28.2428 26.052 27.8913 25.9582L13.0866 21.9887C12.7428 21.9184 12.4069 22.1294 12.3132 22.4732C12.2194 22.8092 12.4069 23.1608 12.7428 23.278L27.5475 27.2476C27.6022 27.2632 27.6647 27.271 27.7194 27.271C28.0163 27.2632 28.2741 27.0678 28.36 26.7709Z" fill="#898796"/>
<path d="M8.18048 24.8173L6.25079 24.3016C5.89923 24.2078 5.53204 24.4188 5.43829 24.7704C5.34454 25.122 5.55548 25.4893 5.90704 25.5831L7.83673 26.0988C7.89141 26.1144 7.95391 26.1222 8.0086 26.1222C8.34454 26.1222 8.62579 25.8722 8.67266 25.544C8.71173 25.2158 8.5086 24.9033 8.18048 24.8173Z" fill="#898796"/>
<path d="M26.8532 29.8183L12.0485 25.8488C11.8141 25.7785 11.5641 25.841 11.3922 26.0129C11.2204 26.1848 11.1501 26.4349 11.2204 26.6693C11.2829 26.9037 11.4704 27.0834 11.7047 27.1381L26.5094 31.1076C26.5641 31.1233 26.6266 31.1311 26.6813 31.1311C27.0172 31.1311 27.2985 30.881 27.3454 30.5529C27.3844 30.2168 27.1735 29.9043 26.8532 29.8183Z" fill="#898796"/>
</g>
<defs>
<clipPath id="clip0">
<rect width="40" height="40" fill="white"/>
</clipPath>
</defs>
</svg>
