<svg width="20" height="20" viewBox="0 0 20 20" fill="none" xmlns="http://www.w3.org/2000/svg">
<path d="M10 2L9.80006 2.08342L1.81539 5.76114L0 6.58397L1.05717 7.0494V14.7333C0.675822 15.038 0.418397 15.5939 0.418397 16.2437C0.418397 16.7095 0.552995 17.1562 0.792581 17.4856C1.03217 17.815 1.35712 18 1.69594 18C2.03477 18 2.35972 17.815 2.59931 17.4856C2.83889 17.1562 2.97349 16.7095 2.97349 16.2437C2.97349 15.5939 2.71606 15.038 2.33472 14.7333V7.65532L3.61226 8.23052V12.7311C3.61226 13.4512 3.93165 14.0483 4.31108 14.461C4.69051 14.8711 5.16193 15.1609 5.72788 15.4209C6.86107 15.939 8.35452 16.2437 10 16.2437C11.6455 16.2437 13.1389 15.9398 14.2721 15.42C14.8381 15.1609 15.3095 14.8711 15.6889 14.4602C16.0683 14.0483 16.3877 13.4512 16.3877 12.7311V8.23052L18.1846 7.40681L20 6.58397L18.184 5.76026L10.1993 2.08342L10 2ZM10 3.83974L15.9885 6.58397L10 9.32821L4.0115 6.58397L10 3.83974ZM4.88981 8.83469L9.8007 11.0845L10 11.1671L10.1999 11.0836L15.1102 8.83381V12.7311C15.1102 12.7398 15.1127 12.8417 14.9103 13.0604C14.7084 13.2799 14.3462 13.5565 13.8722 13.7743C12.9256 14.2072 11.5299 14.4874 10 14.4874C8.47014 14.4874 7.07442 14.2081 6.12712 13.7734C5.65442 13.5565 5.2916 13.279 5.08975 13.0604C4.88662 12.8408 4.88981 12.7398 4.88981 12.7311V8.83381V8.83469Z" fill="#5B5D63"/>
</svg>
