<svg width="20" height="20" viewBox="0 0 20 20" fill="none" xmlns="http://www.w3.org/2000/svg">
<path d="M10 20C15.5228 20 20 15.5228 20 10C20 4.47719 15.5228 0 10 0C4.47719 0 0 4.47719 0 10C0 15.5228 4.47719 20 10 20ZM10 18C5.58172 18 2 14.4183 2 10C2 5.58172 5.58172 2 10 2C14.4183 2 18 5.58172 18 10C18 14.4183 14.4183 18 10 18Z" fill="#5B5D63"/>
<path d="M7.60039 7.60008C7.60039 5.20008 12.4004 4.60008 12.2004 7.20008C12.2004 9.00008 9.00039 9.80008 9.00039 11.8001V13.2001H11.0004V12.4001C11.0004 10.6001 14.4004 10.0001 14.4004 7.00008C14.0004 2.60008 5.40039 2.60008 5.40039 7.60008H7.60039V7.60008ZM9.00039 14.0001H11.0004V16.0001H9.00039V14.0001V14.0001Z" fill="#5B5D63"/>
</svg>
