<svg width="26" height="18" viewBox="0 0 26 18" fill="none" xmlns="http://www.w3.org/2000/svg">
<path d="M1.11839e-07 1.29298C1.41649e-07 0.951986 0.135609 0.624959 0.376995 0.383841C0.618382 0.142723 0.945773 0.00726475 1.28714 0.00726478L11.5843 0.00726568C11.7633 -0.0106789 11.944 0.00904622 12.1149 0.0651671C12.2858 0.121288 12.443 0.212558 12.5764 0.333094C12.7097 0.45363 12.8164 0.600755 12.8893 0.764979C12.9623 0.929203 13 1.10688 13 1.28655C13 1.46622 12.9623 1.6439 12.8893 1.80812C12.8164 1.97235 12.7097 2.11947 12.5764 2.24001C12.443 2.36054 12.2858 2.45182 12.1149 2.50794C11.944 2.56406 11.7633 2.58378 11.5843 2.56584L1.28714 2.56584C0.947991 2.56585 0.622538 2.43216 0.381517 2.19382C0.140498 1.95547 0.0033923 1.63174 1.11839e-07 1.29298Z" fill="#2D405A"/>
<path d="M2.01919e-06 9.00587C2.049e-06 8.66488 0.136284 8.33785 0.37887 8.09673C0.621456 7.85561 0.950474 7.72015 1.29354 7.72015L24.5773 7.72016C24.7571 7.70221 24.9388 7.72193 25.1105 7.77806C25.2822 7.83418 25.4402 7.92545 25.5743 8.04598C25.7083 8.16652 25.8155 8.31364 25.8888 8.47787C25.9621 8.64209 26 8.81977 26 8.99944C26 9.17911 25.9621 9.35679 25.8888 9.52102C25.8155 9.68524 25.7083 9.83236 25.5743 9.9529C25.4402 10.0734 25.2822 10.1647 25.1105 10.2208C24.9388 10.2769 24.7571 10.2967 24.5773 10.2787L1.29354 10.2787C0.952703 10.2787 0.625631 10.1451 0.383413 9.90671C0.141197 9.66836 0.00341042 9.34463 2.01919e-06 9.00587Z" fill="#2D405A"/>
<path d="M1.43003 15.435C1.24927 15.4171 1.06671 15.4368 0.894135 15.4929C0.721556 15.549 0.562788 15.6403 0.428066 15.7608C0.293345 15.8814 0.185665 16.0285 0.111967 16.1927C0.0382711 16.3569 0.000194678 16.5346 0.000194662 16.7143C0.000194646 16.894 0.038271 17.0716 0.111967 17.2359C0.185665 17.4001 0.293345 17.5472 0.428066 17.6677C0.562788 17.7883 0.721556 17.8795 0.894135 17.9357C1.06671 17.9918 1.24927 18.0115 1.43003 17.9936L17.03 17.9936C17.3507 17.9617 17.648 17.8132 17.8642 17.5768C18.0805 17.3404 18.2002 17.033 18.2002 16.7143C18.2002 16.3955 18.0805 16.0881 17.8642 15.8517C17.648 15.6154 17.3507 15.4668 17.03 15.435L1.43003 15.435Z" fill="#2D405A"/>
</svg>
