<svg width="24" height="25" viewBox="0 0 24 25" fill="none" xmlns="http://www.w3.org/2000/svg">
<path d="M3.3 20.6004V24.743L4.9665 23.7431L10.2047 20.6004H15.4C16.6133 20.6004 17.6 19.6137 17.6 18.4004V9.60039C17.6 8.38709 16.6133 7.40039 15.4 7.40039H2.2C0.9867 7.40039 0 8.38709 0 9.60039V18.4004C0 19.6137 0.9867 20.6004 2.2 20.6004H3.3ZM2.2 9.60039H15.4V18.4004H9.5953L5.5 20.8578V18.4004H2.2V9.60039Z" fill="#5B5D63"/>
<path opacity="0.5" d="M19.8004 3H6.60039C5.38709 3 4.40039 3.9867 4.40039 5.2H17.6004C18.8137 5.2 19.8004 6.1867 19.8004 7.4V16.2C21.0137 16.2 22.0004 15.2133 22.0004 14V5.2C22.0004 3.9867 21.0137 3 19.8004 3Z" fill="#5B5D63"/>
</svg>
