<svg width="21" height="25" viewBox="0 0 21 25" fill="none" xmlns="http://www.w3.org/2000/svg">
<path d="M16 10C16 8.4087 15.3679 6.88258 14.2426 5.75736C13.1174 4.63214 11.5913 4 10 4C8.4087 4 6.88258 4.63214 5.75736 5.75736C4.63214 6.88258 4 8.4087 4 10C4 17 1 19 1 19H19C19 19 16 17 16 10Z" stroke="#5B5D63" stroke-width="2" stroke-linecap="round" stroke-linejoin="round"/>
<path d="M11.7295 23C11.5537 23.3031 11.3014 23.5547 10.9978 23.7295C10.6941 23.9044 10.3499 23.9965 9.99953 23.9965C9.64915 23.9965 9.30492 23.9044 9.0013 23.7295C8.69769 23.5547 8.44534 23.3031 8.26953 23" stroke="#5B5D63" stroke-width="2" stroke-linecap="round" stroke-linejoin="round"/>
</svg>
