<svg width="22" height="20" viewBox="0 0 22 20" fill="none" xmlns="http://www.w3.org/2000/svg">
<path d="M3.07227 4.84375H8.57227V6.13281H3.07227V4.84375Z" fill="#13BBED"/>
<path d="M13.4277 4.84375H18.9277V6.13281H13.4277V4.84375Z" fill="#13BBED"/>
<path fill-rule="evenodd" clip-rule="evenodd" d="M12.7188 0.259766H22V15.7572H17.0598C16.0435 18.0977 13.71 19.739 11 19.739C8.29005 19.739 5.95654 18.0977 4.94025 15.7572H0V0.259766H9.28125C9.95801 0.259766 10.5688 0.546152 11 1.00355C11.4312 0.546152 12.042 0.259766 12.7188 0.259766ZM17.4678 14.4681H20.7109V1.54883H12.7188C12.1264 1.54883 11.6445 2.03072 11.6445 2.62305V6.56474C12.7203 6.66946 13.7212 7.03336 14.5839 7.59311H18.9277V8.88217H16.0456C16.4183 9.32359 16.7342 9.81429 16.9821 10.3431H18.9277V11.6322H17.4299C17.5429 12.1154 17.6029 12.6189 17.6029 13.1361C17.6029 13.5922 17.5563 14.0377 17.4678 14.4681ZM8.64062 12.2418V15.7133L9.60742 16.2714L14.0719 13.6939V12.5776L11.3463 11.0039L9.60742 10L8.64062 10.5582V12.2418ZM9.28125 1.54883H1.28906V14.4681H4.53217C4.44366 14.0377 4.39712 13.5922 4.39712 13.136C4.39712 12.6188 4.45706 12.1154 4.57007 11.6321H3.07227V10.3431H5.01785C5.26573 9.81425 5.58168 9.32355 5.95439 8.88213H3.07227V7.59307H7.41602C8.27879 7.03331 9.2797 6.66941 10.3555 6.5647V2.62305C10.3555 2.03072 9.87357 1.54883 9.28125 1.54883ZM12.4605 13.1357L9.92969 11.6745V14.5969L12.4605 13.1357Z" fill="#13BBED"/>
</svg>
