<svg width="30" height="30" viewBox="0 0 30 30" fill="none" xmlns="http://www.w3.org/2000/svg">
<path d="M15.0005 10.0009C17.7298 10.0009 19.9423 7.78836 19.9423 5.05905C19.9423 2.32973 17.7298 0.117188 15.0005 0.117188C12.2711 0.117188 10.0586 2.32973 10.0586 5.05905C10.0586 7.78836 12.2711 10.0009 15.0005 10.0009Z" fill="#13BBED"/>
<path d="M18.6313 10.6719C17.585 11.3514 16.3378 11.7466 15 11.7466C13.6621 11.7466 12.415 11.3514 11.3687 10.6719C10.212 11.1139 9.13953 11.7661 8.20703 12.603L15 15.1504L21.793 12.603C20.8605 11.7661 19.788 11.1139 18.6313 10.6719Z" fill="#13BBED"/>
<path d="M25.4652 18.1406H24.8838C24.4022 18.1406 24.0117 18.5311 24.0117 19.0127V21.3383C24.0117 21.8199 24.4022 22.2104 24.8838 22.2104H25.4652C26.589 22.2104 27.5001 21.2993 27.5001 20.1755C27.5001 19.0517 26.589 18.1406 25.4652 18.1406Z" fill="#13BBED"/>
<path opacity="0.7" d="M5.20152 13.7374C4.9664 13.9004 4.82617 14.1682 4.82617 14.4542V16.3958H5.11687C6.55949 16.3958 7.73315 17.5694 7.73315 19.012V21.3376C7.73315 22.7802 6.55949 23.9539 5.11687 23.9539H4.82617V25.7914C4.82617 26.155 5.0517 26.4804 5.39204 26.608L14.1285 29.8841V16.6841L6.00449 13.6376C5.73664 13.5371 5.43658 13.5744 5.20152 13.7374V13.7374Z" fill="#13BBED"/>
<path opacity="0.7" d="M22.2664 21.3376V19.012C22.2664 17.5694 23.4401 16.3958 24.8827 16.3958H25.1734V14.4542C25.1734 14.1682 25.0332 13.9004 24.7981 13.7374C24.563 13.5744 24.2628 13.5371 23.9951 13.6376L15.8711 16.6841V29.8841L24.6075 26.608C24.9479 26.4804 25.1734 26.155 25.1734 25.7914V23.9539H24.8827C23.4401 23.9539 22.2664 22.7802 22.2664 21.3376V21.3376Z" fill="#13BBED"/>
<path d="M5.98837 21.3383V19.0127C5.98837 18.5311 5.59791 18.1406 5.11628 18.1406H4.53488C3.41105 18.1406 2.5 19.0517 2.5 20.1755C2.5 21.2993 3.41105 22.2104 4.53488 22.2104H5.11628C5.59791 22.2104 5.98837 21.8199 5.98837 21.3383Z" fill="#13BBED"/>
</svg>
