<svg width="20" height="20" viewBox="0 0 20 20" fill="none" xmlns="http://www.w3.org/2000/svg">
<path d="M20 4.61522H0V6.1535H20V4.61522Z" fill="#F5F5F5"/>
<path d="M18.9551 1.53848H1.04387C0.664648 1.98333 0.372813 2.50493 0.195312 3.07696H19.8037C19.6262 2.50493 19.3343 1.98333 18.9551 1.53848Z" fill="#F5F5F5"/>
<path d="M20 7.6922H0V9.23048H20V7.6922Z" fill="#F5F5F5"/>
<path d="M20 10.7691H0V12.3074H20V10.7691Z" fill="#F5F5F5"/>
<path d="M20 13.8461H0V15.3844H20V13.8461Z" fill="#F5F5F5"/>
<path d="M19.8037 16.9231H0.195312C0.372773 17.4951 0.664648 18.0167 1.04387 18.4615H18.9551C19.3343 18.0167 19.6262 17.4951 19.8037 16.9231Z" fill="#F5F5F5"/>
<path d="M15.6251 0H4.37506C3.04115 0 1.84689 0.597148 1.04443 1.53848H18.9556C18.1532 0.597148 16.959 0 15.6251 0Z" fill="#FF4B55"/>
<path d="M20 6.15388H0V7.69217H20V6.15388Z" fill="#FF4B55"/>
<path d="M20 4.37501C20 3.92302 19.9314 3.48708 19.8042 3.07697H0.19582C0.0685547 3.48708 0 3.92302 0 4.37501V4.6154H20V4.37501Z" fill="#FF4B55"/>
<path d="M20 9.23087H0V10.7691H20V9.23087Z" fill="#FF4B55"/>
<path d="M20 15.625V15.3846H0V15.625C0 16.077 0.0685547 16.5129 0.19582 16.9231H19.8042C19.9314 16.5129 20 16.077 20 15.625Z" fill="#FF4B55"/>
<path d="M18.9557 18.4615H1.04443C1.84689 19.4028 3.04115 20 4.37506 20H15.6251C16.959 20 18.1532 19.4028 18.9557 18.4615Z" fill="#FF4B55"/>
<path d="M20 12.3078H0V13.8461H20V12.3078Z" fill="#FF4B55"/>
<path d="M10.7692 0H4.375C1.95875 0 0 1.95875 0 4.375V10.7692H10.7692V0Z" fill="#41479B"/>
<path d="M1.16239 1.68217C1.15216 1.71455 1.189 1.74135 1.21665 1.72158L1.43005 1.56908L1.64345 1.72158C1.67107 1.74135 1.70794 1.71455 1.69771 1.68217L1.6186 1.43209L1.82962 1.27627C1.85692 1.25608 1.84286 1.21276 1.80888 1.21248L1.54661 1.21045L1.50185 1.07623C1.38942 1.17424 1.2822 1.27799 1.18036 1.38686L1.24157 1.43209L1.16239 1.68217Z" fill="#F5F5F5"/>
<path d="M1.4632 3.03729L1.54617 3.28612L1.80843 3.28815C1.84238 3.28843 1.85648 3.33175 1.82918 3.35194L1.61816 3.50776L1.69726 3.75784C1.7075 3.79022 1.67066 3.81698 1.643 3.79725L1.42961 3.64472L1.21621 3.79725C1.18859 3.81702 1.15171 3.79022 1.16195 3.75784L1.24105 3.50776L1.03003 3.35194C1.00273 3.33178 1.01679 3.28843 1.05074 3.28815L1.313 3.28612L1.39597 3.03729C1.40687 3.00507 1.45246 3.00507 1.4632 3.03729Z" fill="#F5F5F5"/>
<path d="M1.4632 5.33937L1.54617 5.5882L1.80843 5.59023C1.84238 5.5905 1.85648 5.63382 1.82918 5.65402L1.61816 5.80984L1.69726 6.05991C1.7075 6.0923 1.67066 6.11905 1.643 6.09933L1.42961 5.94683L1.21621 6.09933C1.18859 6.11905 1.15171 6.0923 1.16195 6.05991L1.24105 5.80984L1.03003 5.65402C1.00273 5.63386 1.01679 5.5905 1.05074 5.59023L1.313 5.5882L1.39597 5.33937C1.40687 5.30714 1.45246 5.30714 1.4632 5.33937Z" fill="#F5F5F5"/>
<path d="M1.4632 7.45447L1.54617 7.70329L1.80843 7.70533C1.84238 7.7056 1.85648 7.74892 1.82918 7.76912L1.61816 7.92494L1.69726 8.17501C1.7075 8.20739 1.67066 8.23415 1.643 8.21443L1.42961 8.06189L1.21621 8.21443C1.18859 8.23415 1.15171 8.20739 1.16195 8.17501L1.24105 7.92494L1.03003 7.76912C1.00273 7.74896 1.01679 7.7056 1.05074 7.70533L1.313 7.70329L1.39597 7.45447C1.40687 7.42224 1.45246 7.42224 1.4632 7.45447Z" fill="#F5F5F5"/>
<path d="M1.4632 9.37912L1.54617 9.62795L1.80843 9.62998C1.84238 9.63025 1.85648 9.67357 1.82918 9.69377L1.61816 9.84959L1.69726 10.0997C1.7075 10.132 1.67066 10.1588 1.643 10.1391L1.42961 9.98658L1.21621 10.1391C1.18859 10.1588 1.15171 10.132 1.16195 10.0997L1.24105 9.84959L1.03003 9.69377C1.00273 9.67361 1.01679 9.63025 1.05074 9.62998L1.313 9.62795L1.39597 9.37912C1.40687 9.34689 1.45246 9.34689 1.4632 9.37912Z" fill="#F5F5F5"/>
<path d="M2.47334 1.9446L2.5563 2.19342L2.81857 2.19545C2.85251 2.19573 2.86662 2.23905 2.83931 2.2592L2.6283 2.41503L2.7074 2.6651C2.71763 2.69749 2.6808 2.72428 2.65314 2.70452L2.43982 2.55198L2.22642 2.70452C2.1988 2.72428 2.16193 2.69749 2.17216 2.6651L2.25127 2.41503L2.04029 2.2592C2.01298 2.23905 2.02705 2.19569 2.06099 2.19545L2.32326 2.19342L2.40623 1.9446C2.41701 1.91237 2.46259 1.91237 2.47334 1.9446Z" fill="#F5F5F5"/>
<path d="M2.47292 4.24664L2.55589 4.49547L2.81816 4.4975C2.8521 4.49778 2.86621 4.5411 2.8389 4.56129L2.62789 4.71711L2.70699 4.96719C2.71722 4.99957 2.68039 5.02637 2.65273 5.0066L2.43933 4.85407L2.22593 5.0066C2.19832 5.02637 2.16144 4.99957 2.17168 4.96719L2.25078 4.71711L2.0398 4.56129C2.0125 4.54114 2.02656 4.49778 2.0605 4.4975L2.32277 4.49547L2.40574 4.24664C2.4166 4.21442 2.46218 4.21442 2.47292 4.24664Z" fill="#F5F5F5"/>
<path d="M2.47292 6.43379L2.55589 6.68262L2.81816 6.68465C2.8521 6.68493 2.86621 6.72825 2.8389 6.74844L2.62789 6.90426L2.70699 7.15434C2.71722 7.18673 2.68039 7.21348 2.65273 7.19376L2.43933 7.04122L2.22593 7.19376C2.19832 7.21352 2.16144 7.18673 2.17168 7.15434L2.25078 6.90426L2.0398 6.74844C2.0125 6.72829 2.02656 6.68493 2.0605 6.68465L2.32277 6.68262L2.40574 6.43379C2.4166 6.40161 2.46218 6.40161 2.47292 6.43379Z" fill="#F5F5F5"/>
<path d="M2.47292 8.39793L2.55589 8.64676L2.81816 8.64879C2.8521 8.64907 2.86621 8.69239 2.8389 8.71258L2.62789 8.8684L2.70699 9.11848C2.71722 9.15086 2.68039 9.17766 2.65273 9.15789L2.43933 9.00539L2.22593 9.15789C2.19832 9.17766 2.16144 9.15086 2.17168 9.11848L2.25078 8.8684L2.0398 8.71258C2.0125 8.69243 2.02656 8.64907 2.0605 8.64879L2.32277 8.64676L2.40574 8.39793C2.4166 8.36571 2.46218 8.36571 2.47292 8.39793Z" fill="#F5F5F5"/>
<path d="M3.48416 0.961641L3.56712 1.21047L3.82939 1.2125C3.86333 1.21277 3.87744 1.25609 3.85013 1.27625L3.63912 1.43207L3.71822 1.68215C3.72845 1.71453 3.69162 1.74129 3.66396 1.72156L3.45056 1.56902L3.23716 1.72156C3.20955 1.74133 3.17267 1.71453 3.18291 1.68215L3.26201 1.43207L3.05103 1.27625C3.02373 1.25609 3.03779 1.21273 3.07173 1.2125L3.334 1.21047L3.41697 0.961641C3.42783 0.929453 3.47341 0.929453 3.48416 0.961641Z" fill="#F5F5F5"/>
<path d="M3.48416 3.03729L3.56712 3.28612L3.82939 3.28815C3.86333 3.28843 3.87744 3.33175 3.85013 3.35194L3.63912 3.50776L3.71822 3.75784C3.72845 3.79022 3.69162 3.81698 3.66396 3.79725L3.45056 3.64472L3.23716 3.79725C3.20955 3.81702 3.17267 3.79022 3.18291 3.75784L3.26201 3.50776L3.05103 3.35194C3.02373 3.33178 3.03779 3.28843 3.07173 3.28815L3.334 3.28612L3.41697 3.03729C3.42783 3.00507 3.47341 3.00507 3.48416 3.03729Z" fill="#F5F5F5"/>
<path d="M3.48416 5.33937L3.56712 5.5882L3.82939 5.59023C3.86333 5.5905 3.87744 5.63382 3.85013 5.65402L3.63912 5.80984L3.71822 6.05991C3.72845 6.0923 3.69162 6.11905 3.66396 6.09933L3.45056 5.94683L3.23716 6.09933C3.20955 6.11905 3.17267 6.0923 3.18291 6.05991L3.26201 5.80984L3.05103 5.65402C3.02373 5.63386 3.03779 5.5905 3.07173 5.59023L3.334 5.5882L3.41697 5.33937C3.42783 5.30714 3.47341 5.30714 3.48416 5.33937Z" fill="#F5F5F5"/>
<path d="M3.48416 7.45447L3.56712 7.70329L3.82939 7.70533C3.86333 7.7056 3.87744 7.74892 3.85013 7.76912L3.63912 7.92494L3.71822 8.17501C3.72845 8.20739 3.69162 8.23415 3.66396 8.21443L3.45056 8.06189L3.23716 8.21443C3.20955 8.23415 3.17267 8.20739 3.18291 8.17501L3.26201 7.92494L3.05103 7.76912C3.02373 7.74896 3.03779 7.7056 3.07173 7.70533L3.334 7.70329L3.41697 7.45447C3.42783 7.42224 3.47341 7.42224 3.48416 7.45447Z" fill="#F5F5F5"/>
<path d="M3.48416 9.37912L3.56712 9.62795L3.82939 9.62998C3.86333 9.63025 3.87744 9.67357 3.85013 9.69377L3.63912 9.84959L3.71822 10.0997C3.72845 10.132 3.69162 10.1588 3.66396 10.1391L3.45056 9.98658L3.23716 10.1391C3.20955 10.1588 3.17267 10.132 3.18291 10.0997L3.26201 9.84959L3.05103 9.69377C3.02373 9.67361 3.03779 9.63025 3.07173 9.62998L3.334 9.62795L3.41697 9.37912C3.42783 9.34689 3.47341 9.34689 3.48416 9.37912Z" fill="#F5F5F5"/>
<path d="M4.49396 1.9446L4.57693 2.19342L4.83919 2.19545C4.87314 2.19573 4.88724 2.23905 4.8599 2.2592L4.64892 2.41503L4.72802 2.6651C4.73826 2.69749 4.70142 2.72428 4.67376 2.70452L4.46037 2.55198L4.24697 2.70452C4.21935 2.72428 4.18247 2.69749 4.19271 2.6651L4.27181 2.41503L4.06079 2.2592C4.03349 2.23905 4.04755 2.19569 4.08154 2.19545L4.3438 2.19342L4.42677 1.9446C4.43767 1.91237 4.48322 1.91237 4.49396 1.9446Z" fill="#F5F5F5"/>
<path d="M4.49396 4.24664L4.57693 4.49547L4.83919 4.4975C4.87314 4.49778 4.88724 4.5411 4.8599 4.56129L4.64892 4.71711L4.72802 4.96719C4.73826 4.99957 4.70142 5.02637 4.67376 5.0066L4.46037 4.85407L4.24697 5.0066C4.21935 5.02637 4.18247 4.99957 4.19271 4.96719L4.27181 4.71711L4.06079 4.56129C4.03349 4.54114 4.04755 4.49778 4.08154 4.4975L4.3438 4.49547L4.42677 4.24664C4.43767 4.21442 4.48322 4.21442 4.49396 4.24664Z" fill="#F5F5F5"/>
<path d="M4.49396 6.43379L4.57693 6.68262L4.83919 6.68465C4.87314 6.68493 4.88724 6.72825 4.8599 6.74844L4.64892 6.90426L4.72802 7.15434C4.73826 7.18673 4.70142 7.21348 4.67376 7.19376L4.46037 7.04122L4.24697 7.19376C4.21935 7.21352 4.18247 7.18673 4.19271 7.15434L4.27181 6.90426L4.06079 6.74844C4.03349 6.72829 4.04755 6.68493 4.08154 6.68465L4.3438 6.68262L4.42677 6.43379C4.43767 6.40161 4.48322 6.40161 4.49396 6.43379Z" fill="#F5F5F5"/>
<path d="M4.49396 8.39793L4.57693 8.64676L4.83919 8.64879C4.87314 8.64907 4.88724 8.69239 4.8599 8.71258L4.64892 8.8684L4.72802 9.11848C4.73826 9.15086 4.70142 9.17766 4.67376 9.15789L4.46037 9.00539L4.24697 9.15789C4.21935 9.17766 4.18247 9.15086 4.19271 9.11848L4.27181 8.8684L4.06079 8.71258C4.03349 8.69243 4.04755 8.64907 4.08154 8.64879L4.3438 8.64676L4.42677 8.39793C4.43767 8.36571 4.48322 8.36571 4.49396 8.39793Z" fill="#F5F5F5"/>
<path d="M5.50466 0.961641L5.58763 1.21047L5.8499 1.2125C5.88384 1.21277 5.89794 1.25609 5.8706 1.27625L5.65962 1.43207L5.73873 1.68215C5.74896 1.71453 5.71212 1.74129 5.68447 1.72156L5.47107 1.56902L5.25767 1.72156C5.23005 1.74133 5.19318 1.71453 5.20341 1.68215L5.28251 1.43207L5.07154 1.27625C5.04423 1.25609 5.05829 1.21273 5.09228 1.2125L5.35455 1.21047L5.43751 0.961641C5.44837 0.929453 5.49392 0.929453 5.50466 0.961641Z" fill="#F5F5F5"/>
<path d="M5.50365 3.03733L5.58661 3.28616L5.84888 3.28819C5.88282 3.28846 5.89693 3.33178 5.86958 3.35198L5.65861 3.5078L5.73775 3.75784C5.74798 3.79022 5.71115 3.81698 5.68349 3.79725L5.47009 3.64471L5.25669 3.79725C5.22908 3.81702 5.1922 3.79022 5.20243 3.75784L5.28154 3.50776L5.07056 3.35194C5.04326 3.33178 5.05732 3.28842 5.0913 3.28815L5.35357 3.28612L5.43654 3.03729C5.44736 3.0051 5.4929 3.0051 5.50365 3.03733Z" fill="#F5F5F5"/>
<path d="M5.50466 5.33937L5.58763 5.5882L5.8499 5.59023C5.88384 5.5905 5.89794 5.63382 5.8706 5.65402L5.65962 5.80984L5.73873 6.05991C5.74896 6.0923 5.71212 6.11905 5.68447 6.09933L5.47107 5.94683L5.25767 6.09933C5.23005 6.11905 5.19318 6.0923 5.20341 6.05991L5.28251 5.80984L5.07154 5.65402C5.04423 5.63386 5.05829 5.5905 5.09228 5.59023L5.35455 5.5882L5.43751 5.33937C5.44837 5.30714 5.49392 5.30714 5.50466 5.33937Z" fill="#F5F5F5"/>
<path d="M5.50466 7.45447L5.58763 7.70329L5.8499 7.70533C5.88384 7.7056 5.89794 7.74892 5.8706 7.76912L5.65962 7.92494L5.73873 8.17501C5.74896 8.20739 5.71212 8.23415 5.68447 8.21443L5.47107 8.06189L5.25767 8.21443C5.23005 8.23415 5.19318 8.20739 5.20341 8.17501L5.28251 7.92494L5.07154 7.76912C5.04423 7.74896 5.05829 7.7056 5.09228 7.70533L5.35455 7.70329L5.43751 7.45447C5.44837 7.42224 5.49392 7.42224 5.50466 7.45447Z" fill="#F5F5F5"/>
<path d="M5.50466 9.37912L5.58763 9.62795L5.8499 9.62998C5.88384 9.63025 5.89794 9.67357 5.8706 9.69377L5.65962 9.84959L5.73873 10.0997C5.74896 10.132 5.71212 10.1588 5.68447 10.1391L5.47107 9.98658L5.25767 10.1391C5.23005 10.1588 5.19318 10.132 5.20341 10.0997L5.28251 9.84959L5.07154 9.69377C5.04423 9.67361 5.05829 9.63025 5.09228 9.62998L5.35455 9.62795L5.43751 9.37912C5.44837 9.34689 5.49392 9.34689 5.50466 9.37912Z" fill="#F5F5F5"/>
<path d="M6.51447 1.9446L6.59744 2.19342L6.8597 2.19545C6.89365 2.19573 6.90775 2.23905 6.8804 2.2592L6.66939 2.41503L6.74849 2.6651C6.75873 2.69749 6.72185 2.72428 6.69423 2.70452L6.48083 2.55198L6.26744 2.70452C6.23982 2.72428 6.20295 2.69749 6.21318 2.6651L6.29228 2.41503L6.0813 2.2592C6.054 2.23905 6.06806 2.19569 6.10201 2.19545L6.36427 2.19342L6.44724 1.9446C6.45818 1.91237 6.50373 1.91237 6.51447 1.9446Z" fill="#F5F5F5"/>
<path d="M6.51447 4.24664L6.59744 4.49547L6.8597 4.4975C6.89365 4.49778 6.90775 4.5411 6.8804 4.56129L6.66939 4.71711L6.74849 4.96719C6.75873 4.99957 6.72185 5.02637 6.69423 5.0066L6.48083 4.85407L6.26744 5.0066C6.23982 5.02637 6.20295 4.99957 6.21318 4.96719L6.29228 4.71711L6.0813 4.56129C6.054 4.54114 6.06806 4.49778 6.10201 4.4975L6.36427 4.49547L6.44724 4.24664C6.45818 4.21442 6.50373 4.21442 6.51447 4.24664Z" fill="#F5F5F5"/>
<path d="M6.51447 6.43379L6.59744 6.68262L6.8597 6.68465C6.89365 6.68493 6.90775 6.72825 6.8804 6.74844L6.66939 6.90426L6.74849 7.15434C6.75873 7.18673 6.72185 7.21348 6.69423 7.19376L6.48083 7.04122L6.26744 7.19376C6.23982 7.21352 6.20295 7.18673 6.21318 7.15434L6.29228 6.90426L6.0813 6.74844C6.054 6.72829 6.06806 6.68493 6.10201 6.68465L6.36427 6.68262L6.44724 6.43379C6.45818 6.40161 6.50373 6.40161 6.51447 6.43379Z" fill="#F5F5F5"/>
<path d="M6.51447 8.39793L6.59744 8.64676L6.8597 8.64879C6.89365 8.64907 6.90775 8.69239 6.8804 8.71258L6.66939 8.8684L6.74849 9.11848C6.75873 9.15086 6.72185 9.17766 6.69423 9.15789L6.48083 9.00539L6.26744 9.15789C6.23982 9.17766 6.20295 9.15086 6.21318 9.11848L6.29228 8.8684L6.0813 8.71258C6.054 8.69243 6.06806 8.64907 6.10201 8.64879L6.36427 8.64676L6.44724 8.39793C6.45818 8.36571 6.50373 8.36571 6.51447 8.39793Z" fill="#F5F5F5"/>
<path d="M7.52525 0.961641L7.60822 1.21047L7.87048 1.2125C7.90443 1.21277 7.91853 1.25609 7.89119 1.27625L7.68017 1.43207L7.75927 1.68215C7.76951 1.71453 7.73263 1.74129 7.70501 1.72156L7.49162 1.56902L7.27822 1.72156C7.2506 1.74133 7.21372 1.71453 7.22396 1.68215L7.30306 1.43207L7.09204 1.27625C7.06474 1.25609 7.0788 1.21273 7.11279 1.2125L7.37505 1.21047L7.45802 0.961641C7.46896 0.929453 7.51451 0.929453 7.52525 0.961641Z" fill="#F5F5F5"/>
<path d="M7.52525 3.03729L7.60822 3.28612L7.87048 3.28815C7.90443 3.28843 7.91853 3.33175 7.89119 3.35194L7.68017 3.50776L7.75927 3.75784C7.76951 3.79022 7.73263 3.81698 7.70501 3.79725L7.49162 3.64472L7.27822 3.79725C7.2506 3.81702 7.21372 3.79022 7.22396 3.75784L7.30306 3.50776L7.09204 3.35194C7.06474 3.33178 7.0788 3.28843 7.11279 3.28815L7.37505 3.28612L7.45802 3.03729C7.46896 3.00507 7.51451 3.00507 7.52525 3.03729Z" fill="#F5F5F5"/>
<path d="M7.52525 5.33937L7.60822 5.5882L7.87048 5.59023C7.90443 5.5905 7.91853 5.63382 7.89119 5.65402L7.68017 5.80984L7.75927 6.05991C7.76951 6.0923 7.73263 6.11905 7.70501 6.09933L7.49162 5.94683L7.27822 6.09933C7.2506 6.11905 7.21372 6.0923 7.22396 6.05991L7.30306 5.80984L7.09204 5.65402C7.06474 5.63386 7.0788 5.5905 7.11279 5.59023L7.37505 5.5882L7.45802 5.33937C7.46896 5.30714 7.51451 5.30714 7.52525 5.33937Z" fill="#F5F5F5"/>
<path d="M7.52525 7.45447L7.60822 7.70329L7.87048 7.70533C7.90443 7.7056 7.91853 7.74892 7.89119 7.76912L7.68017 7.92494L7.75927 8.17501C7.76951 8.20739 7.73263 8.23415 7.70501 8.21443L7.49162 8.06189L7.27822 8.21443C7.2506 8.23415 7.21372 8.20739 7.22396 8.17501L7.30306 7.92494L7.09204 7.76912C7.06474 7.74896 7.0788 7.7056 7.11279 7.70533L7.37505 7.70329L7.45802 7.45447C7.46896 7.42224 7.51451 7.42224 7.52525 7.45447Z" fill="#F5F5F5"/>
<path d="M7.52525 9.37912L7.60822 9.62795L7.87048 9.62998C7.90443 9.63025 7.91853 9.67357 7.89119 9.69377L7.68017 9.84959L7.75927 10.0997C7.76951 10.132 7.73263 10.1588 7.70501 10.1391L7.49162 9.98658L7.27822 10.1391C7.2506 10.1588 7.21372 10.132 7.22396 10.0997L7.30306 9.84959L7.09204 9.69377C7.06474 9.67361 7.0788 9.63025 7.11279 9.62998L7.37505 9.62795L7.45802 9.37912C7.46896 9.34689 7.51451 9.34689 7.52525 9.37912Z" fill="#F5F5F5"/>
<path d="M8.53498 1.9446L8.61794 2.19342L8.88025 2.19545C8.91419 2.19573 8.9283 2.23905 8.90095 2.2592L8.68994 2.41503L8.76904 2.6651C8.77927 2.69749 8.7424 2.72428 8.71478 2.70452L8.50138 2.55198L8.28798 2.70452C8.26037 2.72428 8.22349 2.69749 8.23373 2.6651L8.31283 2.41503L8.10181 2.2592C8.07451 2.23905 8.08857 2.19569 8.12252 2.19545L8.38482 2.19342L8.46779 1.9446C8.47869 1.91237 8.52423 1.91237 8.53498 1.9446Z" fill="#F5F5F5"/>
<path d="M8.53498 4.24664L8.61794 4.49547L8.88025 4.4975C8.91419 4.49778 8.9283 4.5411 8.90095 4.56129L8.68994 4.71711L8.76904 4.96719C8.77927 4.99957 8.7424 5.02637 8.71478 5.0066L8.50138 4.85407L8.28798 5.0066C8.26037 5.02637 8.22349 4.99957 8.23373 4.96719L8.31283 4.71711L8.10181 4.56129C8.07451 4.54114 8.08857 4.49778 8.12252 4.4975L8.38482 4.49547L8.46779 4.24664C8.47869 4.21442 8.52423 4.21442 8.53498 4.24664Z" fill="#F5F5F5"/>
<path d="M8.53498 6.43379L8.61794 6.68262L8.88025 6.68465C8.91419 6.68493 8.9283 6.72825 8.90095 6.74844L8.68994 6.90426L8.76904 7.15434C8.77927 7.18673 8.7424 7.21348 8.71478 7.19376L8.50138 7.04122L8.28798 7.19376C8.26037 7.21352 8.22349 7.18673 8.23373 7.15434L8.31283 6.90426L8.10181 6.74844C8.07451 6.72829 8.08857 6.68493 8.12252 6.68465L8.38482 6.68262L8.46779 6.43379C8.47869 6.40161 8.52423 6.40161 8.53498 6.43379Z" fill="#F5F5F5"/>
<path d="M8.53498 8.39793L8.61794 8.64676L8.88025 8.64879C8.91419 8.64907 8.9283 8.69239 8.90095 8.71258L8.68994 8.8684L8.76904 9.11848C8.77927 9.15086 8.7424 9.17766 8.71478 9.15789L8.50138 9.00539L8.28798 9.15789C8.26037 9.17766 8.22349 9.15086 8.23373 9.11848L8.31283 8.8684L8.10181 8.71258C8.07451 8.69243 8.08857 8.64907 8.12252 8.64879L8.38482 8.64676L8.46779 8.39793C8.47869 8.36571 8.52423 8.36571 8.53498 8.39793Z" fill="#F5F5F5"/>
<path d="M9.54523 0.961641L9.6282 1.21047L9.89047 1.2125C9.92441 1.21277 9.93851 1.25609 9.91121 1.27625L9.70019 1.43207L9.77929 1.68215C9.78953 1.71453 9.75265 1.74129 9.72504 1.72156L9.51164 1.56902L9.29824 1.72156C9.27062 1.74133 9.23375 1.71453 9.24398 1.68215L9.32308 1.43207L9.11207 1.27625C9.08476 1.25609 9.09882 1.21273 9.13277 1.2125L9.39504 1.21047L9.478 0.961641C9.48894 0.929453 9.53449 0.929453 9.54523 0.961641Z" fill="#F5F5F5"/>
<path d="M9.54523 3.03729L9.6282 3.28612L9.89047 3.28815C9.92441 3.28843 9.93851 3.33175 9.91121 3.35194L9.70019 3.50776L9.77929 3.75784C9.78953 3.79022 9.75265 3.81698 9.72504 3.79725L9.51164 3.64472L9.29824 3.79725C9.27062 3.81702 9.23375 3.79022 9.24398 3.75784L9.32308 3.50776L9.11207 3.35194C9.08476 3.33178 9.09882 3.28843 9.13277 3.28815L9.39504 3.28612L9.478 3.03729C9.48894 3.00507 9.53449 3.00507 9.54523 3.03729Z" fill="#F5F5F5"/>
<path d="M9.54523 5.33937L9.6282 5.5882L9.89047 5.59023C9.92441 5.5905 9.93851 5.63382 9.91121 5.65402L9.70019 5.80984L9.77929 6.05991C9.78953 6.0923 9.75265 6.11905 9.72504 6.09933L9.51164 5.94683L9.29824 6.09933C9.27062 6.11905 9.23375 6.0923 9.24398 6.05991L9.32308 5.80984L9.11207 5.65402C9.08476 5.63386 9.09882 5.5905 9.13277 5.59023L9.39504 5.5882L9.478 5.33937C9.48894 5.30714 9.53449 5.30714 9.54523 5.33937Z" fill="#F5F5F5"/>
<path d="M9.54523 7.45447L9.6282 7.70329L9.89047 7.70533C9.92441 7.7056 9.93851 7.74892 9.91121 7.76912L9.70019 7.92494L9.77929 8.17501C9.78953 8.20739 9.75265 8.23415 9.72504 8.21443L9.51164 8.06189L9.29824 8.21443C9.27062 8.23415 9.23375 8.20739 9.24398 8.17501L9.32308 7.92494L9.11207 7.76912C9.08476 7.74896 9.09882 7.7056 9.13277 7.70533L9.39504 7.70329L9.478 7.45447C9.48894 7.42224 9.53449 7.42224 9.54523 7.45447Z" fill="#F5F5F5"/>
<path d="M9.54523 9.37912L9.6282 9.62795L9.89047 9.62998C9.92441 9.63025 9.93851 9.67357 9.91121 9.69377L9.70019 9.84959L9.77929 10.0997C9.78953 10.132 9.75265 10.1588 9.72504 10.1391L9.51164 9.98658L9.29824 10.1391C9.27062 10.1588 9.23375 10.132 9.24398 10.0997L9.32308 9.84959L9.11207 9.69377C9.08476 9.67361 9.09882 9.63025 9.13277 9.62998L9.39504 9.62795L9.478 9.37912C9.48894 9.34689 9.53449 9.34689 9.54523 9.37912Z" fill="#F5F5F5"/>
</svg>
