<svg width="48" height="48" viewBox="0 0 48 48" fill="none" xmlns="http://www.w3.org/2000/svg">
<path d="M42.6345 41.1239L40.4925 36.4136C40.1665 35.6916 40.0005 34.9255 40.0005 34.1355V16.0003C40.0005 13.7941 41.7945 12 44.0005 12C46.2065 12 48.0005 13.7941 48.0005 16.0003V34.1355C48.0005 34.9255 47.8345 35.6916 47.5085 36.4116L45.3665 41.1239C44.8345 42.292 43.1665 42.292 42.6345 41.1239Z" fill="#FF9457"/>
<path d="M30 6H28C28 4.552 27.382 4 26.5 4H23.3C22.64 1.7 20.52 0 18 0C15.48 0 13.36 1.7 12.7 4H9.5C8.618 4 8 4.552 8 6H6C2.692 6 0 8.692 0 12V42C0 45.308 2.692 48 6 48H30C33.308 48 36 45.308 36 42V12C36 8.692 33.308 6 30 6ZM32 42C32 43.102 31.102 44 30 44H6C4.898 44 4 43.102 4 42V12C4 10.898 4.898 10 6 10H8.354C8.922 11.176 10.118 12 11.5 12H24.5C25.882 12 27.078 11.176 27.646 10H30C31.102 10 32 10.898 32 12V42Z" fill="#FF9457"/>
<path opacity="0.7" d="M30 23.1372C29.3066 22.5816 28.3405 22.2344 27.2677 22.2344H24.5419V20.9641C24.5419 19.3296 22.8301 18 20.7258 18H15.2742C13.1699 18 11.4581 19.3296 11.4581 20.9641V22.2344H8.73233C7.65946 22.2344 6.69344 22.5816 6 23.1372L18 28L30 23.1372ZM14.7291 20.9641C14.7291 20.7304 14.9733 20.5407 15.2742 20.5407H20.7258C21.0267 20.5407 21.2709 20.7304 21.2709 20.9641V22.2344H14.7291V20.9641Z" fill="#FF9457"/>
<path opacity="0.7" d="M18.694 31.8653C18.26 32.09 17.74 32.09 17.308 31.8653L6 25.9995V34.5198C6 36.4386 7.57 37.9995 9.5 37.9995H26.5C28.43 37.9995 30 36.4386 30 34.5198V25.9995L18.694 31.8653Z" fill="#FF9457"/>
</svg>
