<svg width="24" height="24" viewBox="0 0 24 24" fill="none" xmlns="http://www.w3.org/2000/svg">
<path d="M20.317 19.5912L19.246 17.393C19.083 17.0561 19 16.6986 19 16.3299V7.86679C19 6.83726 19.897 6 21 6C22.103 6 23 6.83726 23 7.86679V16.3299C23 16.6986 22.917 17.0561 22.754 17.3921L21.683 19.5912C21.417 20.1363 20.583 20.1363 20.317 19.5912Z" fill="#A5BEE2"/>
<path d="M15.1667 3.75H14.2222C14.2222 3.08633 13.9304 2.83333 13.5139 2.83333H12.0028C11.6911 1.77917 10.69 1 9.5 1C8.31 1 7.30889 1.77917 6.99722 2.83333H5.48611C5.06961 2.83333 4.77778 3.08633 4.77778 3.75H3.83333C2.27122 3.75 1 4.98383 1 6.5V20.25C1 21.7662 2.27122 23 3.83333 23H15.1667C16.7288 23 18 21.7662 18 20.25V6.5C18 4.98383 16.7288 3.75 15.1667 3.75ZM16.1111 20.25C16.1111 20.7551 15.6871 21.1667 15.1667 21.1667H3.83333C3.31294 21.1667 2.88889 20.7551 2.88889 20.25V6.5C2.88889 5.99492 3.31294 5.58333 3.83333 5.58333H4.94494C5.21317 6.12233 5.77794 6.5 6.43056 6.5H12.5694C13.2221 6.5 13.7868 6.12233 14.0551 5.58333H15.1667C15.6871 5.58333 16.1111 5.99492 16.1111 6.5V20.25Z" fill="#A5BEE2"/>
<path opacity="0.7" d="M14.0857 11.6115C13.8207 11.3381 13.4516 11.1673 13.0416 11.1673H11.9999V10.5423C11.9999 9.73815 11.3457 9.08398 10.5416 9.08398H8.45823C7.65406 9.08398 6.9999 9.73815 6.9999 10.5423V11.1673H5.95823C5.54823 11.1673 5.17906 11.3381 4.91406 11.6115L9.4999 14.004L14.0857 11.6115ZM8.2499 10.5423C8.2499 10.4273 8.34323 10.334 8.45823 10.334H10.5416C10.6566 10.334 10.7499 10.4273 10.7499 10.5423V11.1673H8.2499V10.5423Z" fill="#A5BEE2"/>
<path opacity="0.7" d="M9.78917 15.263C9.60833 15.3572 9.39167 15.3572 9.21167 15.263L4.5 12.8047V16.3755C4.5 17.1797 5.15417 17.8339 5.95833 17.8339H13.0417C13.8458 17.8339 14.5 17.1797 14.5 16.3755V12.8047L9.78917 15.263Z" fill="#A5BEE2"/>
</svg>
