<svg width="30" height="30" viewBox="0 0 30 30" fill="none" xmlns="http://www.w3.org/2000/svg">
<path d="M25.3962 24.489L24.0575 21.7413C23.8538 21.3201 23.75 20.8732 23.75 20.4124V9.83349C23.75 8.54657 24.8712 7.5 26.25 7.5C27.6288 7.5 28.75 8.54657 28.75 9.83349V20.4124C28.75 20.8732 28.6462 21.3201 28.4425 21.7401L27.1038 24.489C26.7713 25.1703 25.7287 25.1703 25.3962 24.489Z" fill="#13BBED"/>
<path d="M18.9583 4.6875H17.7778C17.7778 3.85792 17.413 3.54167 16.8924 3.54167H15.0035C14.6139 2.22396 13.3625 1.25 11.875 1.25C10.3875 1.25 9.13611 2.22396 8.74653 3.54167H6.85764C6.33701 3.54167 5.97222 3.85792 5.97222 4.6875H4.79167C2.83903 4.6875 1.25 6.22979 1.25 8.125V25.3125C1.25 27.2077 2.83903 28.75 4.79167 28.75H18.9583C20.911 28.75 22.5 27.2077 22.5 25.3125V8.125C22.5 6.22979 20.911 4.6875 18.9583 4.6875ZM20.1389 25.3125C20.1389 25.9439 19.6088 26.4583 18.9583 26.4583H4.79167C4.14118 26.4583 3.61111 25.9439 3.61111 25.3125V8.125C3.61111 7.49365 4.14118 6.97917 4.79167 6.97917H6.18118C6.51646 7.65292 7.22243 8.125 8.03819 8.125H15.7118C16.5276 8.125 17.2335 7.65292 17.5688 6.97917H18.9583C19.6088 6.97917 20.1389 7.49365 20.1389 8.125V25.3125Z" fill="#13BBED"/>
<path opacity="0.7" d="M17.6072 14.5129C17.2759 14.1712 16.8145 13.9577 16.302 13.9577H14.9999V13.1764C14.9999 12.1712 14.1822 11.3535 13.177 11.3535H10.5728C9.56758 11.3535 8.74987 12.1712 8.74987 13.1764V13.9577H7.44779C6.93529 13.9577 6.47383 14.1712 6.14258 14.5129L11.8749 17.5035L17.6072 14.5129ZM10.3124 13.1764C10.3124 13.0327 10.429 12.916 10.5728 12.916H13.177C13.3207 12.916 13.4374 13.0327 13.4374 13.1764V13.9577H10.3124V13.1764Z" fill="#13BBED"/>
<path opacity="0.7" d="M12.2365 19.0788C12.0104 19.1965 11.7396 19.1965 11.5146 19.0788L5.625 16.0059V20.4694C5.625 21.4746 6.44271 22.2923 7.44792 22.2923H16.3021C17.3073 22.2923 18.125 21.4746 18.125 20.4694V16.0059L12.2365 19.0788Z" fill="#13BBED"/>
</svg>
