<svg width="24" height="24" viewBox="0 0 24 24" fill="none" xmlns="http://www.w3.org/2000/svg">
<path d="M21.317 20.562L20.246 18.2068C20.083 17.8458 20 17.4628 20 17.0677V8.00013C20 6.89706 20.897 6 22 6C23.103 6 24 6.89706 24 8.00013V17.0677C24 17.4628 23.917 17.8458 23.754 18.2058L22.683 20.562C22.417 21.146 21.583 21.146 21.317 20.562Z" fill="#13BBED"/>
<path d="M15 3H14C14 2.276 13.691 2 13.25 2H11.65C11.32 0.85 10.26 0 9 0C7.74 0 6.68 0.85 6.35 2H4.75C4.309 2 4 2.276 4 3H3C1.346 3 0 4.346 0 6V21C0 22.654 1.346 24 3 24H15C16.654 24 18 22.654 18 21V6C18 4.346 16.654 3 15 3ZM16 21C16 21.551 15.551 22 15 22H3C2.449 22 2 21.551 2 21V6C2 5.449 2.449 5 3 5H4.177C4.461 5.588 5.059 6 5.75 6H12.25C12.941 6 13.539 5.588 13.823 5H15C15.551 5 16 5.449 16 6V21Z" fill="#13BBED"/>
<path opacity="0.7" d="M15 11.5686C14.6533 11.2908 14.1703 11.1172 13.6338 11.1172H12.2709V10.482C12.2709 9.6648 11.415 9 10.3629 9H7.63711C6.58495 9 5.72906 9.6648 5.72906 10.482V11.1172H4.36616C3.82973 11.1172 3.34672 11.2908 3 11.5686L9 14L15 11.5686ZM7.36453 10.482C7.36453 10.3652 7.48664 10.2703 7.63711 10.2703H10.3629C10.5134 10.2703 10.6355 10.3652 10.6355 10.482V11.1172H7.36453V10.482Z" fill="#13BBED"/>
<path opacity="0.7" d="M9.347 15.9329C9.13 16.0452 8.87 16.0452 8.654 15.9329L3 13V17.2601C3 18.2196 3.785 19 4.75 19H13.25C14.215 19 15 18.2196 15 17.2601V13L9.347 15.9329Z" fill="#13BBED"/>
</svg>
