<svg width="24" height="24" viewBox="0 0 24 24" fill="none" xmlns="http://www.w3.org/2000/svg">
<path d="M20.1466 13.4163V3.44976C20.1466 1.90288 18.8883 0.644531 17.3414 0.644531H3.83936C4.70292 1.12912 5.27447 2.04665 5.27447 3.09354V19.8804C5.27447 20.6168 5.87381 21.2162 6.6103 21.2162H13.3126C11.4094 16.8168 15.4901 12.0959 20.1466 13.4163V13.4163ZM11.3823 10.3301C11.5733 10.0144 11.9839 9.91335 12.2996 10.1044C12.8121 10.4147 13.0209 10.4455 13.6888 10.4414C14.3834 10.437 14.7713 9.97792 14.8376 9.55268C14.8746 9.31713 14.8416 8.891 14.208 8.68351C13.1812 8.34777 12.5872 8.08372 12.158 7.77203C10.9648 6.90655 11.4011 4.82027 13.0249 4.42446V4.16887C13.0249 3.80019 13.3241 3.50096 13.6928 3.50096C14.0615 3.50096 14.3607 3.80019 14.3607 4.16887V4.38216C14.8639 4.48368 15.2517 4.70098 15.4659 4.87998C15.6204 5.00243 15.7193 5.19122 15.7193 5.40317C15.7193 5.98101 15.0387 6.28001 14.6114 5.90455L14.6105 5.90544L14.6163 5.91079C14.1424 5.5405 12.9641 5.5091 12.825 6.27547C12.7996 6.41662 12.8174 6.60007 12.9425 6.69091C13.3255 6.96876 14.0072 7.21232 14.6234 7.41403C16.9714 8.1824 16.4948 11.1436 14.3607 11.6927V11.999C14.3607 12.3677 14.0615 12.6669 13.6928 12.6669C13.3241 12.6669 13.0249 12.3677 13.0249 11.999V11.7528C12.5418 11.7047 12.1455 11.5729 11.6076 11.2474C11.2919 11.0564 11.1913 10.6454 11.3823 10.3301V10.3301ZM7.32273 4.91916H8.74761C9.1163 4.91916 9.41552 5.21839 9.41552 5.58707C9.41552 5.95576 9.1163 6.25498 8.74761 6.25498H7.32273C6.95405 6.25498 6.65482 5.95576 6.65482 5.58707C6.65482 5.21839 6.95405 4.91916 7.32273 4.91916ZM7.32273 7.4127H8.74761C9.1163 7.4127 9.41552 7.71192 9.41552 8.08061C9.41552 8.44929 9.1163 8.74852 8.74761 8.74852H7.32273C6.95405 8.74852 6.65482 8.44929 6.65482 8.08061C6.65482 7.71192 6.95405 7.4127 7.32273 7.4127ZM7.32273 10.2624H8.74761C9.1163 10.2624 9.41552 10.5617 9.41552 10.9304C9.41552 11.299 9.1163 11.5983 8.74761 11.5983H7.32273C6.95405 11.5983 6.65482 11.299 6.65482 10.9304C6.65482 10.5617 6.95405 10.2624 7.32273 10.2624ZM11.2411 17.2978H7.32273C6.95405 17.2978 6.65482 16.9986 6.65482 16.6299C6.65482 16.2612 6.95405 15.962 7.32273 15.962H11.2411C11.6098 15.962 11.9091 16.2612 11.9091 16.6299C11.9091 16.9986 11.6098 17.2978 11.2411 17.2978ZM11.2411 14.448H7.32273C6.95405 14.448 6.65482 14.1488 6.65482 13.7801C6.65482 13.4114 6.95405 13.1122 7.32273 13.1122H11.2411C11.6098 13.1122 11.9091 13.4114 11.9091 13.7801C11.9091 14.1488 11.6098 14.448 11.2411 14.448Z" fill="#A5BEE2"/>
<path d="M22.5446 17.0026L19.2389 20.3083C18.9802 20.5671 18.5565 20.5708 18.2941 20.3083L17.2254 19.2396C16.7475 18.7619 17.2047 17.8993 17.937 18.1434C18.112 18.2079 18.1363 18.2608 18.7665 18.8914L21.7654 15.8925C20.963 15.0576 19.8352 14.5371 18.5884 14.5371C16.1576 14.5371 14.1802 16.5146 14.1802 18.9453C14.1802 21.3761 16.1576 23.3535 18.5884 23.3535C21.8545 23.3535 23.9792 19.9092 22.5446 17.0026V17.0026Z" fill="#A5BEE2"/>
<path opacity="0.7" d="M2.46892 1.63086C1.6574 1.63086 0.999512 2.28875 0.999512 3.10026V5.98742C0.999512 6.72519 1.59756 7.32324 2.33533 7.32324H3.93832V3.10026C3.93832 2.28875 3.28043 1.63086 2.46892 1.63086V1.63086Z" fill="#A5BEE2"/>
</svg>
