<svg width="22" height="22" viewBox="0 0 22 22" fill="none" xmlns="http://www.w3.org/2000/svg">
<path d="M13.5879 0.378906V3.88221H17.0912L13.5879 0.378906Z" fill="#13BBED"/>
<path d="M11.6467 12.2941C11.6467 9.08302 14.2591 6.47059 17.4702 6.47059V5.17647H12.2938V0H2.58789V19.4118H17.4702V18.1176C14.2591 18.1176 11.6467 15.5053 11.6467 12.2941ZM5.17613 3.88235H10.3526V5.17647H5.17613V3.88235ZM10.3526 15.5294H5.17613V14.2353H10.3526V15.5294ZM10.3526 12.9412H5.17613V11.6471H10.3526V12.9412ZM10.3526 10.3529H5.17613V9.05882H10.3526V10.3529ZM10.9997 7.76471H5.17613V6.47059H10.9997V7.76471Z" fill="#13BBED"/>
<path d="M17.4708 7.76562C14.9733 7.76562 12.9414 9.79747 12.9414 12.295C12.9414 14.7926 14.9733 16.8244 17.4708 16.8244C19.9683 16.8244 22.0002 14.7925 22.0002 12.295C22.0002 9.79752 19.9683 7.76562 17.4708 7.76562ZM17.0133 14.3147L15.2617 12.563L16.1767 11.648L17.0133 12.4846L19.144 10.3539L20.0591 11.2689L17.0133 14.3147Z" fill="#13BBED"/>
<path d="M1.29412 1.29492H0V22.0008H16.1765V20.7067H1.29412V1.29492Z" fill="#13BBED"/>
</svg>
