<svg width="18" height="18" viewBox="0 0 18 18" fill="none" xmlns="http://www.w3.org/2000/svg">
<path d="M9 1.80078L8.82006 1.87586L1.63385 5.18581L0 5.92636L0.951453 6.34524V13.2607C0.60824 13.535 0.376557 14.0352 0.376557 14.6201C0.376557 15.0393 0.497695 15.4414 0.713323 15.7378C0.928951 16.0342 1.22141 16.2008 1.52635 16.2008C1.83129 16.2008 2.12375 16.0342 2.33938 15.7378C2.555 15.4414 2.67614 15.0393 2.67614 14.6201C2.67614 14.0352 2.44446 13.535 2.10125 13.2607V6.89057L3.25104 7.40825V11.4587C3.25104 12.1068 3.53849 12.6442 3.87997 13.0157C4.22146 13.3848 4.64574 13.6456 5.15509 13.8795C6.17496 14.3459 7.51907 14.6201 9 14.6201C10.4809 14.6201 11.825 14.3466 12.8449 13.8788C13.3543 13.6456 13.7785 13.3848 14.12 13.0149C14.4615 12.6442 14.749 12.1068 14.749 11.4587V7.40825L16.3661 6.66691L18 5.92636L16.3656 5.18502L9.17937 1.87586L9 1.80078ZM9 3.45654L14.3897 5.92636L8.82006 2.96857L3.61035 5.92636L9 3.45654ZM4.40083 7.952L8.82063 9.97685L9 10.0511L9.17994 9.97606L13.5992 7.95121V11.4587C13.5992 11.4666 13.6015 11.5583 13.4192 11.7551C13.2376 11.9527 12.9116 12.2017 12.485 12.3977C11.633 12.7873 10.3769 13.0394 9 13.0394C7.62312 13.0394 6.36697 12.7881 5.5144 12.3969C5.08898 12.2017 4.76244 11.9519 4.58077 11.7551C4.39796 11.5575 4.40083 11.4666 4.40083 11.4587V7.952Z" fill="#2AC2E9"/>
</svg>
