<svg width="24" height="24" viewBox="0 0 24 24" fill="none" xmlns="http://www.w3.org/2000/svg">
<g clip-path="url(#clip0)">
<path d="M12 12.6971C9.97778 10.8383 7.42222 9.53716 4.57778 9.0342C3.23333 8.80459 2 9.85425 2 11.1991V18.7654C2 19.8588 2.8 20.821 3.9 20.9522C6.4 21.2583 8.7 22.1768 10.6444 23.5654C11.4556 24.1449 12.5333 24.1449 13.3556 23.5654C15.3426 22.1465 17.6633 21.2473 20.1 20.9522C21.2 20.81 22 19.8478 22 18.7654V11.1991C22 9.85425 20.7667 8.79366 19.4222 9.0342C16.5778 9.53716 14.0222 10.8383 12 12.6971Z" fill="#A5BEE2"/>
<path opacity="0.7" d="M12 9C14.4862 9 16.5 6.98625 16.5 4.5C16.5 2.01375 14.4862 0 12 0C9.51375 0 7.5 2.01375 7.5 4.5C7.5 6.98625 9.51375 9 12 9Z" fill="#A5BEE2"/>
</g>
<defs>
<clipPath id="clip0">
<rect width="24" height="24" fill="white"/>
</clipPath>
</defs>
</svg>
