<svg width="22" height="26" viewBox="0 0 22 26" fill="none" xmlns="http://www.w3.org/2000/svg">
<path d="M11 12.8672C8.77556 10.8225 5.96444 9.39127 2.83556 8.83801C1.35667 8.58544 0 9.74006 0 11.2194V19.5423C0 20.745 0.88 21.8034 2.09 21.9478C4.84 22.2845 7.37 23.2948 9.50889 24.8223C10.4011 25.4598 11.5867 25.4598 12.4911 24.8223C14.6769 23.2615 17.2296 22.2724 19.91 21.9478C21.12 21.7914 22 20.733 22 19.5423V11.2194C22 9.74006 20.6433 8.57341 19.1644 8.83801C16.0356 9.39127 13.2244 10.8225 11 12.8672Z" fill="#13BBED"/>
<path opacity="0.7" d="M11 9.90039C13.431 9.90039 15.4 7.68526 15.4 4.95039C15.4 2.21551 13.431 0.000389099 11 0.000389099C8.56898 0.000389099 6.59998 2.21551 6.59998 4.95039C6.59998 7.68526 8.56898 9.90039 11 9.90039Z" fill="#13BBED"/>
</svg>
