<svg width="12" height="16" viewBox="0 0 12 16" fill="none" xmlns="http://www.w3.org/2000/svg">
<path fill-rule="evenodd" clip-rule="evenodd" d="M3.25278 1.2518C3.62785 0.876729 4.13656 0.666016 4.66699 0.666016H7.79033C8.3129 0.666081 8.81477 0.870673 9.18841 1.23602L11.3983 3.39727C11.5889 3.58351 11.7403 3.80595 11.8436 4.05151C11.947 4.29708 12.0003 4.56083 12.0003 4.82727V10.666C12.0003 11.1964 11.7896 11.7052 11.4145 12.0802C11.0395 12.4553 10.5308 12.666 10.0003 12.666H4.66699C4.13656 12.666 3.62785 12.4553 3.25278 12.0802C2.87771 11.7052 2.66699 11.1964 2.66699 10.666V2.66602C2.66699 2.13558 2.87771 1.62687 3.25278 1.2518ZM4.66699 1.99935C4.49018 1.99935 4.32061 2.06959 4.19559 2.19461C4.07056 2.31964 4.00033 2.4892 4.00033 2.66602V10.666C4.00033 10.8428 4.07056 11.0124 4.19559 11.1374C4.32061 11.2624 4.49018 11.3327 4.66699 11.3327H10.0003C10.1771 11.3327 10.3467 11.2624 10.4717 11.1374C10.5968 11.0124 10.667 10.8428 10.667 10.666V4.82743C10.667 4.8274 10.667 4.82746 10.667 4.82743C10.667 4.73865 10.6492 4.65068 10.6148 4.56885C10.5803 4.48699 10.5298 4.41284 10.4663 4.35076L8.25624 2.18935C8.25623 2.18933 8.25626 2.18936 8.25624 2.18935C8.13172 2.06761 7.96447 1.99939 7.79033 1.99935C7.7903 1.99935 7.79035 1.99935 7.79033 1.99935H4.66699Z" fill="#898796"/>
<path fill-rule="evenodd" clip-rule="evenodd" d="M2 5.33333C1.82319 5.33333 1.65362 5.40357 1.5286 5.5286C1.40357 5.65362 1.33333 5.82319 1.33333 6V13.3333C1.33333 13.5101 1.40357 13.6797 1.5286 13.8047C1.65362 13.9298 1.82319 14 2 14H7.33333C7.51014 14 7.67971 13.9298 7.80474 13.8047C7.92976 13.6797 8 13.5101 8 13.3333V12C8 11.6318 8.29848 11.3333 8.66667 11.3333C9.03486 11.3333 9.33333 11.6318 9.33333 12V13.3333C9.33333 13.8638 9.12262 14.3725 8.74755 14.7475C8.37247 15.1226 7.86377 15.3333 7.33333 15.3333H2C1.46957 15.3333 0.960859 15.1226 0.585786 14.7475C0.210714 14.3725 0 13.8638 0 13.3333V6C0 5.46957 0.210714 4.96086 0.585786 4.58579C0.960859 4.21071 1.46957 4 2 4H3.33333C3.70152 4 4 4.29848 4 4.66667C4 5.03486 3.70152 5.33333 3.33333 5.33333H2Z" fill="#898796"/>
</svg>
