<svg width="16" height="16" viewBox="0 0 16 16" fill="none" xmlns="http://www.w3.org/2000/svg">
<path fill-rule="evenodd" clip-rule="evenodd" d="M5.25376 1.25278C5.62883 0.877706 6.13754 0.666992 6.66797 0.666992H9.7913C10.3139 0.667057 10.8157 0.87165 11.1894 1.23699L13.3993 3.39824C13.5898 3.58449 13.7412 3.80692 13.8446 4.05249C13.948 4.29806 14.0013 4.5618 14.0013 4.82824V10.667C14.0013 11.1974 13.7906 11.7061 13.4155 12.0812C13.0404 12.4563 12.5317 12.667 12.0013 12.667H6.66797C6.13754 12.667 5.62883 12.4563 5.25376 12.0812C4.87868 11.7061 4.66797 11.1974 4.66797 10.667V2.66699C4.66797 2.13656 4.87868 1.62785 5.25376 1.25278ZM6.66797 2.00033C6.49116 2.00033 6.32159 2.07056 6.19656 2.19559C6.07154 2.32061 6.0013 2.49018 6.0013 2.66699V10.667C6.0013 10.8438 6.07154 11.0134 6.19656 11.1384C6.32159 11.2634 6.49116 11.3337 6.66797 11.3337H12.0013C12.1781 11.3337 12.3477 11.2634 12.4727 11.1384C12.5977 11.0134 12.668 10.8438 12.668 10.667V4.82841C12.668 4.82838 12.668 4.82843 12.668 4.82841C12.6679 4.73962 12.6502 4.65165 12.6157 4.56982C12.5813 4.48796 12.5308 4.41382 12.4673 4.35174L10.2572 2.19033C10.2572 2.19031 10.2572 2.19034 10.2572 2.19033C10.1327 2.06859 9.96544 2.00037 9.7913 2.00033C9.79128 2.00033 9.79133 2.00033 9.7913 2.00033H6.66797Z" fill="white"/>
<path fill-rule="evenodd" clip-rule="evenodd" d="M4 5.33333C3.82319 5.33333 3.65362 5.40357 3.5286 5.5286C3.40357 5.65362 3.33333 5.82319 3.33333 6V13.3333C3.33333 13.5101 3.40357 13.6797 3.5286 13.8047C3.65362 13.9298 3.82319 14 4 14H9.33333C9.51014 14 9.67971 13.9298 9.80474 13.8047C9.92976 13.6797 10 13.5101 10 13.3333V12C10 11.6318 10.2985 11.3333 10.6667 11.3333C11.0349 11.3333 11.3333 11.6318 11.3333 12V13.3333C11.3333 13.8638 11.1226 14.3725 10.7475 14.7475C10.3725 15.1226 9.86377 15.3333 9.33333 15.3333H4C3.46957 15.3333 2.96086 15.1226 2.58579 14.7475C2.21071 14.3725 2 13.8638 2 13.3333V6C2 5.46957 2.21071 4.96086 2.58579 4.58579C2.96086 4.21071 3.46957 4 4 4H5.33333C5.70152 4 6 4.29848 6 4.66667C6 5.03486 5.70152 5.33333 5.33333 5.33333H4Z" fill="white"/>
</svg>
