<svg width="1920" height="810" viewBox="0 0 1920 810" fill="none" xmlns="http://www.w3.org/2000/svg">
<path d="M26.7265 425.19C26.7265 425.19 64.9082 626.995 279.313 739.794C493.718 852.593 755.115 822.925 863.786 698.082C972.457 573.533 963.647 353.809 1078.19 359.684C1192.74 365.559 1236.79 523.008 1395.39 421.959C1501.5 330 1470.5 280.5 1489 184C1503.19 109.998 1677.33 143.337 1786 107.5C1826 94.3091 1912 73.5027 1920 0.414966C2668.98 0.420769 7.07803e-05 0.412418 7.07803e-05 0.412418C7.07289e-05 0.999943 -20.2663 166.691 26.7265 425.19Z" fill="#F7F8F9"/>
</svg>
