<svg width="16" height="18" viewBox="0 0 16 18" fill="none" xmlns="http://www.w3.org/2000/svg">
<path d="M13.9062 2.25H10.8125V1.6875C10.8125 0.755508 10.057 0 9.125 0H6.875C5.94301 0 5.1875 0.755508 5.1875 1.6875V2.25H2.09375C1.31711 2.25 0.6875 2.87961 0.6875 3.65625V4.78125C0.6875 5.09193 0.939324 5.34375 1.25 5.34375H14.75C15.0607 5.34375 15.3125 5.09193 15.3125 4.78125V3.65625C15.3125 2.87961 14.6829 2.25 13.9062 2.25ZM6.3125 1.6875C6.3125 1.37742 6.56492 1.125 6.875 1.125H9.125C9.43508 1.125 9.6875 1.37742 9.6875 1.6875V2.25H6.3125V1.6875Z" fill="#FF9500"/>
<path d="M1.75585 6.46875C1.65548 6.46875 1.5755 6.55263 1.58028 6.6529L2.04434 16.3927C2.08723 17.2941 2.82763 18 3.72973 18H12.272C13.1741 18 13.9145 17.2941 13.9574 16.3927L14.4215 6.6529C14.4262 6.55263 14.3463 6.46875 14.2459 6.46875H1.75585ZM10.2509 7.875C10.2509 7.56422 10.5026 7.3125 10.8134 7.3125C11.1242 7.3125 11.3759 7.56422 11.3759 7.875V15.1875C11.3759 15.4983 11.1242 15.75 10.8134 15.75C10.5026 15.75 10.2509 15.4983 10.2509 15.1875V7.875ZM7.43837 7.875C7.43837 7.56422 7.69009 7.3125 8.00087 7.3125C8.31165 7.3125 8.56337 7.56422 8.56337 7.875V15.1875C8.56337 15.4983 8.31165 15.75 8.00087 15.75C7.69009 15.75 7.43837 15.4983 7.43837 15.1875V7.875ZM4.62587 7.875C4.62587 7.56422 4.87759 7.3125 5.18837 7.3125C5.49915 7.3125 5.75087 7.56422 5.75087 7.875V15.1875C5.75087 15.4983 5.49915 15.75 5.18837 15.75C4.87759 15.75 4.62587 15.4983 4.62587 15.1875V7.875Z" fill="#FF9500"/>
</svg>
