<svg width="100" height="100" viewBox="0 0 100 100" fill="none" xmlns="http://www.w3.org/2000/svg">
<path d="M71.1062 22.291H64.5374V11.7969C64.5374 8.91405 62.1921 6.56874 59.3093 6.56874H40.6904C37.8076 6.56874 35.4623 8.91405 35.4623 11.7969V22.2912H28.8936V11.7969C28.8936 5.29198 34.1857 0 40.6904 0H59.3093C65.8142 0 71.1062 5.29218 71.1062 11.7969V22.291Z" fill="#FF9457"/>
<path opacity="0.1" d="M30.7537 10.3738C30.7537 6.97519 32.2002 3.90957 34.5078 1.75488C31.1414 3.83476 28.8926 7.55761 28.8926 11.7969V22.2912H35.4613V20.8679H30.7537V10.3738ZM66.3978 20.8683V10.3738C66.3978 7.491 64.0525 5.1457 61.1697 5.1457H41.0179C38.2877 5.1457 36.0408 7.2498 35.8105 9.92147C36.5662 7.96268 38.4676 6.56874 40.6894 6.56874H59.3083C62.1911 6.56874 64.5365 8.91405 64.5365 11.7969V22.2912H71.1052V20.8679C71.1054 20.8683 66.3978 20.8683 66.3978 20.8683Z" fill="black"/>
<path d="M90.7967 24.8008H9.20508L17.8381 93.4063C18.3123 97.1741 21.5162 100 25.3134 100H74.6882C78.4856 100 81.6893 97.1741 82.1635 93.4063L90.7967 24.8008Z" fill="#FFE8E7"/>
<path d="M17.3789 89.7686L17.8367 93.4064C18.3109 97.1742 21.5148 100 25.3121 100H74.6868C78.4843 100 81.688 97.1742 82.1622 93.4064L82.62 89.7686H17.3789Z" fill="#FFD7D5"/>
<path opacity="0.1" d="M90.7967 24.8008H9.20508L17.8381 93.4063C18.3123 97.1741 21.516 100 25.3134 100H74.6882C77.6848 100 80.3108 98.2393 81.5184 95.6454C80.5483 96.0979 79.4698 96.3509 78.3374 96.3509H28.9627C25.1654 96.3509 21.9615 93.5249 21.4873 89.7571L14.7951 36.5765H89.3149L90.7967 24.8008Z" fill="#FF3B30"/>
<path d="M92.5457 14.0918H7.45585C4.98789 14.0918 2.9873 16.0926 2.9873 18.5603V27.3355C2.9873 29.8033 4.98789 31.8041 7.45585 31.8041H92.5459C95.0137 31.8041 97.0145 29.8033 97.0145 27.3355V18.5603C97.0143 16.0924 95.0139 14.0918 92.5457 14.0918Z" fill="#FF3B30"/>
<path opacity="0.2" d="M95.4869 28.7978H9.97694C7.77675 28.7978 5.99316 27.0142 5.99316 24.814V15.6187C5.99316 15.1564 6.06328 14.7105 6.19199 14.29C4.33672 14.8582 2.9873 16.5834 2.9873 18.6246V27.2703C2.9873 29.7738 5.01699 31.8035 7.5205 31.8035H92.4811C94.5223 31.8035 96.2475 30.4539 96.8155 28.5988C96.3953 28.7277 95.9494 28.7978 95.4869 28.7978Z" fill="black"/>
<g opacity="0.2">
<path opacity="0.5" d="M50.0002 84.1224C48.2123 84.1224 46.7627 82.673 46.7627 80.8849V45.3693C46.7627 43.5814 48.2121 42.1318 50.0002 42.1318C51.7881 42.1318 53.2377 43.5812 53.2377 45.3693V80.8849C53.2377 82.6728 51.7881 84.1224 50.0002 84.1224Z" fill="#FF3B30"/>
<path opacity="0.5" d="M30.7287 84.1222C29.1205 84.1222 27.7264 82.9251 27.5207 81.2882L23.0578 45.7726C22.835 43.9986 24.0922 42.3799 25.8664 42.1568C27.6422 41.932 29.2592 43.1916 29.4822 44.9654L33.9451 80.481C34.1681 82.255 32.9107 83.8737 31.1365 84.0968C30.9994 84.114 30.8631 84.1222 30.7287 84.1222Z" fill="#FF3B30"/>
<path opacity="0.5" d="M69.273 84.1221C69.1387 84.1221 69.0023 84.1137 68.8654 84.0964C67.0914 83.8735 65.834 82.2548 66.0568 80.4805L70.5197 44.965C70.7426 43.191 72.3637 41.9338 74.1355 42.1564C75.9096 42.3795 77.167 43.998 76.9441 45.7722L72.4812 81.2878C72.2754 82.9249 70.881 84.1221 69.273 84.1221Z" fill="#FF3B30"/>
</g>
</svg>
