<svg width="24" height="24" viewBox="0 0 24 24" fill="none" xmlns="http://www.w3.org/2000/svg">
<g clip-path="url(#clip0)">
<path d="M16 2.10247e-05C15.992 -3.50412e-05 15.984 2.10248e-05 15.9761 0.000189223C15.4308 -0.0091738 14.9811 0.425338 14.9718 0.970636C14.9716 0.980896 14.9716 0.991156 14.9718 1.00142V3.30808H16.9901V1.00142C16.9932 0.451464 16.5499 0.00316072 16 2.10247e-05Z" fill="#A5BEE2"/>
<path d="M18.3531 2.4668H17.887V3.76876C17.8917 4.00486 17.7042 4.20014 17.4681 4.20485C17.4623 4.20496 17.4567 4.20496 17.451 4.20485H14.5006C14.269 4.20866 14.0781 4.02403 14.0743 3.79237C14.0742 3.78452 14.0742 3.77661 14.0745 3.76876V2.4668H6.44957V3.76876C6.44195 4.01663 6.23523 4.21169 5.98731 4.20485H3.03712C2.7916 4.21118 2.58747 4.01736 2.58107 3.77185C2.58107 3.77084 2.58102 3.76977 2.58102 3.76876V2.4668H2.16305C1.15431 2.4719 0.339052 3.29074 0.338379 4.29949V6.22323H20.1857V4.29949C20.1814 3.28917 19.3634 2.47123 18.3531 2.4668Z" fill="#A5BEE2"/>
<path d="M4.51222 0C3.94612 0 3.47803 0.435241 3.47803 1.00123V3.3079H5.55247V1.00123C5.55247 0.435241 5.07826 0 4.51222 0Z" fill="#A5BEE2"/>
<path d="M0.338379 7.12109V19.3947C0.338379 20.4005 1.15694 21.2497 2.16305 21.2497H10.4738C9.76694 20.0634 9.39264 18.7087 9.39018 17.3278C9.39018 13.1453 12.795 9.72715 16.9774 9.72715C18.0856 9.72984 19.1801 9.97244 20.1857 10.4382V7.12109H0.338379V7.12109Z" fill="#A5BEE2"/>
<path d="M16.9732 10.623C13.2794 10.6231 10.2851 13.6175 10.2852 17.3113C10.2852 21.0051 13.2796 23.9995 16.9734 23.9994C20.6672 23.9993 23.6615 21.005 23.6615 17.3112C23.6573 13.6191 20.6653 10.6271 16.9732 10.623ZM19.6145 18.3331H16.6081C16.3562 18.3286 16.1532 18.1253 16.149 17.8734V13.9398C16.149 13.6921 16.3499 13.4913 16.5976 13.4913C16.8453 13.4913 17.0461 13.6921 17.0461 13.9398V17.4361H19.6145C19.8622 17.4361 20.063 17.6369 20.063 17.8846C20.063 18.1323 19.8622 18.3331 19.6145 18.3331Z" fill="#A5BEE2"/>
</g>
<defs>
<clipPath id="clip0">
<rect width="24" height="24" fill="#A5BEE2"/>
</clipPath>
</defs>
</svg>
