<svg width="104" height="101" viewBox="0 0 104 101" fill="none" xmlns="http://www.w3.org/2000/svg">
<path d="M51.9601 27.0391L57.7651 40.0462L72.096 38.5015L63.5927 49.9863L72.096 61.4711L57.7651 59.9264L51.9601 72.9336L46.1552 59.9264L31.8242 61.4711L40.3276 49.9863L31.8242 38.5015L46.1552 40.0462L51.9601 27.0391Z" fill="#FF9457"/>
<path d="M51.9602 73.537L45.9965 60.194L31.3027 61.7612L40.0328 49.9853L31.3027 38.2094L45.9965 39.7766L51.9602 26.4336L57.9238 39.7766L72.6176 38.2094L63.8875 49.9853L72.6176 61.7612L57.9238 60.194L51.9602 73.537ZM46.2913 59.6567L46.3593 59.8134L51.9602 72.3281L57.6291 59.6567L71.5745 61.1567L63.2753 49.9853L63.3887 49.851L71.5745 38.8139L57.6291 40.3139L51.9602 27.6425L46.2913 40.3139L32.3458 38.8139L40.6451 49.9853L40.5317 50.1196L32.3458 61.1567L46.2913 59.6567Z" fill="#FF9457"/>
<path d="M2.75426 67.4717H2.73158C2.61821 67.4493 2.48215 67.3822 2.45948 67.203C2.16469 64.8076 1.80189 63.1061 1.30302 60.7107L1.12162 59.8152C0.509378 56.7257 0.668107 54.1511 1.64316 50.9721C1.89259 50.1437 2.73158 48.8005 3.57058 48.5766C3.86536 48.4871 4.13747 48.5542 4.36422 48.7333C4.45493 48.8229 4.52295 48.9124 4.54563 49.0467C4.5683 49.1811 4.54563 49.3154 4.54563 49.4273C4.45493 50.1213 4.50028 50.9497 4.68168 51.7332C4.86309 52.472 5.13519 53.1437 5.38462 53.7034C5.58871 54.1735 5.79279 54.5989 5.99687 55.0242C6.17827 55.4272 6.38235 55.8302 6.56375 56.2331C7.08529 57.3973 7.4481 58.4047 7.76556 59.5241C8.30977 61.4271 8.5592 63.1061 8.85399 64.8747L8.89934 65.121C8.92201 65.2329 8.87666 65.3225 8.78596 65.3897C8.71793 65.4344 8.64991 65.4344 8.58188 65.4344C8.35512 65.3897 6.06489 62.5912 5.81546 62.2778C5.27125 61.6062 4.74971 60.9345 4.2962 60.1286C4.2962 60.2853 4.2962 60.4196 4.2962 60.5539C4.2962 62.2554 4.2055 63.5763 4.04677 64.6509C3.95606 65.2106 3.82001 65.7479 3.63861 66.3075C3.63861 66.3075 3.63861 66.3075 3.63861 66.3299C3.61593 66.3523 3.16242 67.4717 2.75426 67.4717ZM3.84269 49.0691C3.82001 49.0691 3.77466 49.0691 3.72931 49.0915C3.1851 49.2482 2.41413 50.3452 2.16469 51.1288C1.18965 54.263 1.05359 56.6809 1.64316 59.7256L1.82456 60.6211C2.27807 62.7927 2.61821 64.4046 2.91299 66.4867C2.98102 66.3523 3.04904 66.218 3.07172 66.1508C3.25312 65.6135 3.3665 65.121 3.4572 64.5837C3.63861 63.5315 3.70663 62.2554 3.70663 60.5539C3.70663 60.039 3.70663 59.4793 3.68396 58.9197C3.68396 58.7853 3.77466 58.6734 3.91071 58.651C4.04677 58.6286 4.16014 58.6958 4.22817 58.8077C4.79506 60.1062 5.45265 61.0017 6.22362 61.942L6.2463 61.9644C6.38235 62.1882 7.49345 63.4867 8.21907 64.2927C7.96964 62.7703 7.72021 61.3151 7.2667 59.6808C6.97191 58.5838 6.60911 57.5988 6.08757 56.457C5.90616 56.054 5.72476 55.6511 5.52068 55.2481C5.3166 54.8227 5.11252 54.375 4.90844 53.9048C4.65901 53.3228 4.36422 52.6287 4.16014 51.8452C3.95606 50.9945 3.88804 50.099 4.00142 49.3378C4.02409 49.2482 4.02409 49.1811 4.02409 49.1363C3.95606 49.1139 3.91071 49.0691 3.84269 49.0691Z" fill="#FF9457"/>
<path d="M9.67012 80.7258C9.55674 80.7258 9.44336 80.6586 9.39801 80.5466C8.44564 78.4422 7.60664 76.987 6.45019 74.9945L6.13273 74.4572C4.72684 71.9498 4.22798 69.6663 4.38671 66.6216C4.43206 65.8604 4.88557 64.4724 5.61119 63.9799C5.8833 63.8008 6.17808 63.756 6.45019 63.8456C6.56357 63.8903 6.67694 63.9575 6.74497 64.0694C6.813 64.1814 6.83567 64.3157 6.83567 64.4052C6.9037 65.0321 7.15313 65.6813 7.53862 66.2858C7.90143 66.8455 8.33226 67.2932 8.71775 67.7186C9.01253 68.032 9.30731 68.3007 9.57942 68.5917C9.89688 68.9051 10.1917 69.1962 10.5091 69.5096C11.3254 70.3379 11.9377 71.1215 12.5272 71.9946C13.5703 73.517 14.2733 74.9498 15.0216 76.4721L15.0896 76.6064C15.1349 76.7184 15.1123 76.8527 15.0216 76.9423C14.8628 77.0766 14.8628 77.0766 13.1395 76.1139C12.5499 75.8005 11.5749 75.2408 11.3481 75.0617C10.6225 74.6363 9.94223 74.211 9.26196 73.6289C9.30731 73.7632 9.35266 73.8976 9.37534 74.0319C9.82885 75.5542 10.0783 76.7184 10.1917 77.7706C10.2597 78.3079 10.2597 78.8228 10.237 79.3825C10.237 79.3825 10.237 79.3825 10.237 79.4049C10.237 79.4273 10.101 80.6362 9.6928 80.7034C9.71547 80.7258 9.6928 80.7258 9.67012 80.7258ZM6.20076 64.3157C6.13273 64.3157 6.04203 64.3381 5.95132 64.4052C5.45246 64.7411 4.99895 65.9052 4.9536 66.6216C4.79487 69.5992 5.27106 71.7036 6.63159 74.1662L6.94905 74.7035C8.0148 76.5393 8.80845 77.9049 9.64744 79.7407C9.6928 79.584 9.71547 79.4049 9.73815 79.3601C9.76082 78.8228 9.76082 78.3303 9.6928 77.8378C9.57942 76.8303 9.32999 75.6886 8.89915 74.211C8.7631 73.7408 8.60437 73.2707 8.44564 72.7782C8.40029 72.6662 8.44564 72.5319 8.55902 72.4648C8.67239 72.3976 8.80845 72.42 8.89915 72.5095C9.7835 73.4722 10.6678 74.0319 11.6656 74.614L11.6882 74.6363C11.8697 74.7707 13.3436 75.599 14.2506 76.0915C13.593 74.7707 12.9808 73.5841 12.0964 72.308C11.5295 71.4573 10.9173 70.7185 10.1236 69.8902C9.82885 69.5768 9.53407 69.2857 9.21661 68.9723C8.92183 68.6813 8.62704 68.3902 8.33226 68.0992C7.90142 67.6514 7.47059 67.1813 7.0851 66.5768C6.65427 65.9052 6.38216 65.1664 6.29146 64.4948C6.29146 64.4276 6.26878 64.3605 6.26878 64.3381C6.24611 64.3157 6.22343 64.3157 6.20076 64.3157Z" fill="#FF9457"/>
<path d="M19.7153 90.4422C19.6246 90.4422 19.5339 90.3974 19.4886 90.3303C17.9467 88.5617 16.7448 87.4871 14.9308 85.8304L14.7721 85.6737C12.7539 83.8155 11.6882 81.9349 11.0533 79.1813C10.8719 78.3977 11.0079 77.144 11.5068 76.5172C11.7109 76.2485 11.983 76.0918 12.3004 76.0918C12.4138 76.0918 12.5499 76.1366 12.6406 76.2037C12.7539 76.2933 12.7993 76.4052 12.8447 76.4948C13.0714 77.0097 13.4796 77.5022 14.0011 77.9052C14.4773 78.2858 14.9988 78.5544 15.4977 78.8007C15.8378 78.9574 16.1553 79.1141 16.4727 79.2708C16.8809 79.4723 17.2891 79.6514 17.6972 79.8753C18.6949 80.3902 19.4886 80.8827 20.2822 81.5096C21.7108 82.6066 22.7312 83.7036 23.933 84.9797C24.0237 85.0916 24.0464 85.2707 23.933 85.3602C23.8196 85.4722 23.8196 85.4722 21.9376 85.114C21.3026 84.9796 20.1915 84.7558 19.9421 84.6662C19.1258 84.4871 18.3548 84.2856 17.5612 83.9722C17.6292 84.0841 17.7199 84.1961 17.7879 84.308C18.6042 85.5393 19.1711 86.5692 19.5566 87.4871C19.7607 87.9572 19.8967 88.4497 20.0328 88.9646C20.0328 88.9646 20.0328 88.9646 20.0328 88.987C20.0328 89.0094 20.2369 90.1736 19.8514 90.3527C19.806 90.4422 19.7607 90.4422 19.7153 90.4422ZM12.2778 76.6515C12.1417 76.6515 12.0283 76.741 11.9376 76.8754C11.5521 77.3679 11.4388 78.4649 11.5748 79.0917C12.1871 81.7558 13.1848 83.5021 15.1349 85.3155L15.2936 85.4722C16.9489 86.9721 18.1054 88.0244 19.4886 89.5691C19.4886 89.39 19.4659 89.2333 19.4659 89.1661C19.3525 88.6736 19.2165 88.2258 19.0351 87.7781C18.6723 86.8826 18.1281 85.8975 17.3117 84.6886C17.0623 84.308 16.7902 83.905 16.4954 83.5245C16.4274 83.4125 16.4274 83.2782 16.5181 83.1886C16.6088 83.0991 16.7448 83.0767 16.8582 83.1439C17.924 83.7483 18.9444 83.9946 20.0555 84.2409H20.0782C20.2822 84.308 21.9149 84.6438 22.9353 84.8453C21.9602 83.8155 21.0532 82.92 19.8967 82.0021C19.1258 81.3976 18.3548 80.9051 17.3798 80.4126C16.9943 80.2111 16.5861 80.032 16.178 79.8305C15.8605 79.6738 15.543 79.5171 15.2029 79.3604C14.6814 79.0917 14.1372 78.8231 13.5929 78.3977C13.0034 77.9276 12.5499 77.3679 12.3004 76.7858C12.3004 76.7186 12.2778 76.6739 12.2778 76.6515Z" fill="#FF9457"/>
<path d="M31.9379 96.8886C31.8699 96.8886 31.8246 96.8662 31.7565 96.8438C29.7157 95.5006 28.2191 94.7842 25.9743 93.6872C23.548 92.4782 22.006 91.0231 20.6682 88.65C20.3054 88.0007 20.1013 86.8142 20.3734 86.0754C20.5094 85.7396 20.7362 85.5157 21.031 85.4262C21.1444 85.3814 21.2804 85.3814 21.3938 85.4262C21.5298 85.4709 21.5979 85.5829 21.6659 85.65C22.006 86.053 22.5276 86.3888 23.1398 86.6351C23.7067 86.859 24.2736 86.9709 24.8178 87.0604C25.1579 87.1052 25.4754 87.1724 25.7929 87.2172C26.2917 87.2843 26.7452 87.3739 27.1987 87.441C28.2872 87.6425 29.1942 87.9112 30.1239 88.2694C31.8246 88.941 33.1624 89.747 34.591 90.6201C34.659 90.6648 34.7044 90.732 34.7044 90.7992C34.727 90.8663 34.7044 90.9559 34.659 91.0007C34.5683 91.135 34.5683 91.135 32.6862 91.2693C32.0286 91.3141 30.9175 91.3812 30.6454 91.3812C29.8064 91.426 29.0128 91.4484 28.1738 91.3589C28.2645 91.4484 28.3779 91.5156 28.4686 91.6051C29.5797 92.5454 30.4187 93.3737 31.0309 94.1573C31.3484 94.5603 31.6205 94.9857 31.8699 95.4558C31.8699 95.4558 31.8699 95.4558 31.8699 95.4782C31.8699 95.4782 32.3688 96.5752 32.074 96.8438C32.074 96.8438 32.006 96.8886 31.9379 96.8886ZM21.2124 85.9411C21.0763 85.9858 20.9856 86.0978 20.9176 86.2769C20.6908 86.8366 20.8722 87.8664 21.167 88.3813C22.4595 90.6872 23.8881 92.0305 26.2237 93.1946C28.2191 94.1573 29.7157 94.8961 31.5524 96.0603C31.5071 95.9035 31.4391 95.7468 31.4164 95.7021C31.167 95.2543 30.9175 94.8737 30.6227 94.4931C30.0332 93.732 29.2169 92.926 28.1511 92.0305C27.811 91.7395 27.4482 91.4484 27.0627 91.1574C26.972 91.0678 26.9266 90.9335 26.9947 90.8216C27.04 90.7096 27.1761 90.6425 27.3121 90.6649C28.4912 90.9335 29.5343 90.9111 30.6908 90.8439H30.7135C30.9402 90.8439 32.5955 90.7544 33.6159 90.6649C32.4595 89.9708 31.3257 89.344 29.9425 88.7843C29.0355 88.4261 28.1738 88.1798 27.108 87.9783C26.6545 87.8888 26.201 87.8216 25.7021 87.7545C25.3847 87.7097 25.0672 87.6649 24.7271 87.5978C24.1602 87.5082 23.548 87.3963 22.9357 87.15C22.2555 86.8813 21.6432 86.4784 21.2577 86.0306C21.2577 85.9858 21.2351 85.9635 21.2124 85.9411Z" fill="#FF9457"/>
<path d="M45.4753 100.002C45.43 100.002 45.4073 100.002 45.362 99.9795C43.0717 99.1959 41.5071 98.8601 38.9448 98.3676C36.2691 97.8079 34.4097 96.8004 32.4822 94.8975C31.9607 94.3826 31.4392 93.308 31.5299 92.5244C31.5752 92.1662 31.7113 91.8976 31.9834 91.7185C32.0968 91.6513 32.2101 91.6289 32.3235 91.6289C32.4596 91.6513 32.5729 91.7185 32.641 91.7632C33.0718 92.0543 33.6841 92.2558 34.319 92.3229C34.9085 92.3901 35.4981 92.3453 36.065 92.2781C36.3824 92.2558 36.6772 92.211 36.9947 92.1886C37.4935 92.1438 37.9924 92.0767 38.4686 92.0543C39.5797 91.9647 40.5094 91.9871 41.5298 92.1214C43.3892 92.3453 44.9538 92.8378 46.4731 93.2856C46.5411 93.308 46.6091 93.3528 46.6318 93.4199C46.6545 93.4871 46.6771 93.5766 46.6318 93.6438C46.5864 93.7781 46.5864 93.7781 44.7951 94.3602C44.1828 94.5617 43.1171 94.8975 42.8677 94.9647C42.074 95.2109 41.3257 95.4348 40.4867 95.5467C40.6001 95.5915 40.7135 95.6587 40.8269 95.7034C42.142 96.3303 43.1624 96.9348 43.9788 97.5392C44.3869 97.8527 44.7724 98.1885 45.1352 98.5914C45.1352 98.5914 45.9062 99.5317 45.6794 99.8452C45.6794 99.9571 45.5887 100.002 45.4753 100.002ZM32.2782 92.1662C32.1648 92.2558 32.0968 92.3677 32.0741 92.5692C32.0061 93.1737 32.4596 94.0915 32.8904 94.4945C34.7498 96.3527 36.4731 97.293 39.0582 97.8303C41.3711 98.278 42.9584 98.6138 44.9765 99.2855C44.8858 99.1511 44.7951 99.0168 44.7724 98.972C44.4323 98.6138 44.0695 98.278 43.684 97.987C42.8903 97.4049 41.8926 96.8228 40.6228 96.2184C40.2146 96.0169 39.7838 95.8378 39.3303 95.6363C39.2169 95.5915 39.1489 95.4572 39.1715 95.3452C39.1942 95.2109 39.3076 95.1214 39.421 95.1214C40.6454 95.0766 41.5978 94.8079 42.7316 94.4497H42.7543C42.9584 94.405 44.5456 93.8901 45.5207 93.5766C44.2735 93.196 42.9584 92.8378 41.4618 92.6587C40.4867 92.5244 39.5797 92.5244 38.5139 92.5916C38.0378 92.6364 37.5616 92.6811 37.04 92.7259C36.7453 92.7483 36.4278 92.7931 36.1103 92.8155C35.5434 92.8602 34.9085 92.9274 34.2736 92.8602C33.548 92.7931 32.8677 92.5692 32.3462 92.2334C32.3235 92.211 32.2782 92.1886 32.2782 92.1662Z" fill="#FF9457"/>
<path d="M59.4203 99.8213H59.3977C56.9487 99.5975 55.2707 99.6646 52.731 99.7542C50.01 99.8437 47.9238 99.3064 45.5429 97.9184C44.8853 97.5378 44.0917 96.6199 43.9783 95.8364C43.9329 95.5005 44.0009 95.1871 44.205 94.9632C44.2957 94.8737 44.3864 94.8065 44.5225 94.8065C44.6585 94.7841 44.7719 94.8289 44.8626 94.8513C45.3615 95.0304 45.9964 95.0752 46.6313 94.9856C47.2209 94.8961 47.7651 94.717 48.3093 94.5379C48.6041 94.4259 48.8762 94.3364 49.1483 94.2244C49.6245 94.0453 50.1007 93.8886 50.5769 93.7319C51.6199 93.3961 52.5496 93.1946 53.5474 93.0827C55.4068 92.8812 57.0621 92.9707 58.6494 93.0603C58.7174 93.0603 58.7854 93.1051 58.8534 93.1498C58.8988 93.217 58.9215 93.2842 58.9215 93.3513C58.8988 93.508 58.8988 93.508 57.3342 94.4931C56.79 94.8289 55.8603 95.411 55.6108 95.5229C54.9079 95.9483 54.2503 96.3289 53.4793 96.6423C53.6154 96.6647 53.7288 96.6871 53.8648 96.7095C55.2934 97.0005 56.4498 97.3363 57.4022 97.7393C57.8784 97.9408 58.3546 98.187 58.8081 98.4781C58.8081 98.4781 59.8285 99.1945 59.6698 99.5751C59.6471 99.7542 59.5564 99.8213 59.4203 99.8213ZM44.5905 95.3662C44.4998 95.4781 44.4771 95.6125 44.4998 95.7692C44.5905 96.3513 45.2708 97.1572 45.815 97.4483C48.1279 98.7915 50.0553 99.284 52.6857 99.1945C55.0213 99.1049 56.6312 99.0378 58.7854 99.1945C58.672 99.0826 58.5587 98.993 58.4906 98.9482C58.0598 98.6796 57.629 98.4557 57.1755 98.2542C56.2684 97.8736 55.1347 97.5378 53.7288 97.2468C53.2753 97.1572 52.7991 97.0677 52.3229 97.0005C52.1868 96.9781 52.0961 96.8662 52.0961 96.7542C52.0961 96.6199 52.1642 96.508 52.3002 96.4856C53.4567 96.1498 54.3183 95.6796 55.3161 95.0752C55.3161 95.0752 55.3387 95.0752 55.3387 95.0528C55.5428 94.9632 56.9033 94.0901 57.765 93.5528C56.4498 93.4857 55.0666 93.4409 53.57 93.62C52.595 93.7319 51.7106 93.9334 50.6902 94.2468C50.2367 94.4035 49.7832 94.5603 49.2844 94.7394C49.0123 94.8289 48.7175 94.9408 48.4454 95.0528C47.9011 95.2543 47.3116 95.4334 46.6767 95.5229C45.951 95.6349 45.2254 95.5677 44.6585 95.3662C44.6585 95.3886 44.6132 95.3662 44.5905 95.3662Z" fill="#FF9457"/>
<path d="M62.8448 98.4109C61.5976 98.4109 60.3732 98.2094 58.9899 97.8064C58.2417 97.5825 57.2213 96.8661 56.9038 96.1497C56.7677 95.8363 56.7677 95.5453 56.9038 95.2766C56.9718 95.1423 57.0852 95.0751 57.1759 95.0304C57.312 94.9856 57.4253 94.9856 57.516 95.008C58.0603 95.0527 58.6725 94.9408 59.2621 94.7169C59.8063 94.4931 60.2825 94.202 60.7586 93.8886C61.0081 93.7319 61.2575 93.5528 61.5069 93.3961C61.9378 93.105 62.3233 92.8364 62.7314 92.5901C63.6611 92.008 64.4774 91.6051 65.4298 91.2469C67.1305 90.62 68.6951 90.3066 70.3731 89.9932C70.4411 89.9708 70.5318 89.9932 70.5772 90.0379C70.6452 90.0827 70.6905 90.1499 70.6905 90.217C70.7132 90.3737 70.7132 90.3737 69.4661 91.6946C69.0352 92.1648 68.2869 92.9483 68.0829 93.105C67.516 93.6871 66.9718 94.2244 66.3142 94.7169C66.4502 94.7169 66.5863 94.6945 66.7223 94.6945C68.1962 94.6274 69.398 94.6945 70.4411 94.8513C70.9626 94.9408 71.4842 95.0527 72.0057 95.2319C72.0284 95.2319 73.1849 95.6796 73.1395 96.0826C73.1168 96.1945 73.0488 96.3288 72.8674 96.3512C70.4638 96.7318 68.9218 97.1572 66.4049 97.896C65.1804 98.2318 64.0239 98.4109 62.8448 98.4109ZM57.4027 95.5229C57.3573 95.6348 57.3573 95.7692 57.4253 95.9259C57.6748 96.4632 58.5591 97.09 59.1487 97.2691C61.7564 98.0303 63.7518 98.0527 66.2688 97.3363C68.5137 96.687 70.0556 96.2393 72.1645 95.8811C72.0057 95.8139 71.8697 95.7468 71.8243 95.702C71.3255 95.5453 70.8493 95.4333 70.3504 95.3438C69.3527 95.1871 68.1736 95.1423 66.745 95.2095C66.2688 95.2318 65.7926 95.2542 65.3164 95.299C65.2031 95.299 65.067 95.2319 65.0217 95.1199C64.9763 95.008 65.0443 94.8737 65.1577 94.8065C66.2008 94.2244 66.9264 93.508 67.6974 92.7244L67.72 92.7021C67.8788 92.5677 68.9899 91.4036 69.6701 90.6648C68.3323 90.9334 67.0171 91.2245 65.6339 91.7394C64.7269 92.0752 63.9106 92.4782 63.0262 93.0379C62.618 93.2841 62.2326 93.5528 61.8017 93.8438C61.5523 94.0005 61.3029 94.1796 61.0534 94.3363C60.5772 94.6498 60.0557 94.9856 59.4661 95.2095C58.7859 95.4781 58.0829 95.59 57.4707 95.5453C57.448 95.5453 57.4253 95.5229 57.4027 95.5229Z" fill="#FF9457"/>
<path d="M72.7088 94.4709C72.4821 94.4709 72.2326 94.4709 71.9832 94.4485C71.1896 94.4261 70.0331 93.9783 69.5342 93.3515C69.3302 93.0828 69.2395 92.7918 69.3075 92.5231C69.3302 92.3888 69.3982 92.2993 69.5116 92.2321C69.6249 92.1649 69.7383 92.1425 69.8517 92.1202C70.3732 92.0306 70.9628 91.7843 71.4617 91.4038C71.9379 91.0456 72.3233 90.6426 72.6861 90.2396C72.8902 90.0157 73.0943 89.7695 73.2984 89.5456C73.6158 89.165 73.9333 88.8292 74.2508 88.471C74.9764 87.6874 75.6793 87.083 76.4956 86.4785C77.9242 85.4487 79.2621 84.7994 80.8267 84.0159L80.9174 83.9711C80.9854 83.9263 81.0761 83.9263 81.1441 83.9711C81.2121 83.9935 81.2802 84.0606 81.3028 84.1278C81.3482 84.2621 81.3482 84.2621 80.5092 85.874C80.2144 86.4337 79.7156 87.3964 79.5568 87.6203C79.1714 88.3367 78.7859 88.9859 78.287 89.6351C78.4231 89.5904 78.5591 89.5456 78.6725 89.5232C80.0784 89.0978 81.2802 88.8292 82.3006 88.7172C82.8221 88.6501 83.3436 88.6501 83.9105 88.6725C83.9105 88.6725 83.9105 88.6725 83.9332 88.6725C83.9559 88.6725 85.1804 88.7844 85.2484 89.1874C85.2711 89.3217 85.203 89.456 85.067 89.5008C82.7994 90.5306 81.3936 91.3814 79.2394 92.6798C77.0625 93.9336 75.1578 94.4709 72.7088 94.4709ZM69.829 92.6575C69.8064 92.7694 69.8517 92.9037 69.9651 93.0157C70.3506 93.4858 71.371 93.8888 72.0059 93.9112C74.7269 94.0231 76.6544 93.553 78.9219 92.2097C80.8267 91.0679 82.2326 90.1948 84.228 89.2769C84.0693 89.2322 83.9105 89.2098 83.8425 89.2098C83.321 89.1874 82.8221 89.2098 82.3232 89.2545C81.3255 89.3665 80.1917 89.6351 78.8085 90.0381C78.3777 90.1724 77.9242 90.3291 77.448 90.4859C77.3346 90.5306 77.1986 90.4859 77.1306 90.3739C77.0625 90.262 77.0852 90.1277 77.1759 90.0381C78.0149 89.2098 78.5364 88.3367 79.058 87.3516L79.0806 87.3292C79.194 87.1501 79.965 85.7173 80.4185 84.8442C79.1487 85.471 77.9922 86.0979 76.8131 86.9486C76.0195 87.5083 75.3619 88.0904 74.6362 88.8516C74.3188 89.1874 74.024 89.5456 73.7065 89.9038C73.5025 90.1277 73.2984 90.3515 73.0943 90.5978C72.7088 91.0232 72.3007 91.4709 71.8018 91.8291C71.2122 92.2545 70.5546 92.5455 69.9651 92.6351C69.8744 92.6575 69.8517 92.6575 69.829 92.6575Z" fill="#FF9457"/>
<path d="M82.8671 88.0235C82.1868 88.0235 81.4385 87.8668 80.9623 87.531C80.6902 87.3295 80.5315 87.0609 80.5088 86.7698C80.5088 86.6355 80.5315 86.5236 80.6222 86.434C80.7129 86.3221 80.8263 86.2773 80.917 86.2325C81.3931 86.0086 81.892 85.6281 82.2775 85.1131C82.6403 84.643 82.8897 84.1281 83.1392 83.6356C83.2752 83.3445 83.4113 83.0535 83.5473 82.7624C83.7514 82.3147 83.9555 81.9117 84.1596 81.4864C84.6584 80.5013 85.1573 79.7177 85.7922 78.9118C86.8353 77.5462 87.901 76.5387 89.1255 75.3522L89.3523 75.1283C89.4203 75.0611 89.4883 75.0387 89.579 75.0611C89.6697 75.0611 89.7377 75.1283 89.7831 75.1955C89.8511 75.3074 89.8511 75.3074 89.4883 77.1432C89.3523 77.7924 89.1482 78.8894 89.0575 79.1581C88.8761 79.9864 88.6947 80.7476 88.3772 81.5311C88.4906 81.4416 88.604 81.3744 88.7173 81.3073C89.9872 80.4565 91.0302 79.8745 91.9599 79.4491C92.4361 79.2252 92.935 79.0685 93.4792 78.9118C93.4792 78.9118 93.4792 78.9118 93.5019 78.9118C93.5246 78.9118 94.7264 78.6655 94.9078 79.0237C94.9758 79.1357 94.9304 79.2924 94.8397 79.3819C93.0257 81.0162 91.9373 82.2251 90.282 84.0385L90.1232 84.2176C88.2638 86.2101 86.3818 87.2847 83.6607 87.934C83.3886 88.0011 83.1392 88.0235 82.8671 88.0235ZM81.053 86.7698C81.0757 86.8818 81.1437 86.9937 81.2798 87.1056C81.7786 87.4638 82.867 87.5758 83.4793 87.4191C86.1323 86.7922 87.8784 85.8072 89.6697 83.8594L89.8284 83.6803C91.3024 82.0684 92.3908 80.8371 93.9781 79.3819C93.7967 79.4043 93.6379 79.4043 93.5699 79.4267C93.0484 79.561 92.5949 79.7177 92.1414 79.9192C91.2343 80.3222 90.2139 80.9043 88.9668 81.7326C88.5813 82.0013 88.1958 82.2699 87.7876 82.561C87.6743 82.6281 87.5382 82.6281 87.4475 82.5386C87.3568 82.449 87.3341 82.3147 87.3795 82.2028C87.9691 81.1282 88.2185 80.1207 88.4679 79.0237V79.0013C88.5359 78.7999 88.8761 77.1432 89.0575 76.1357C88.0144 77.1432 87.0847 78.0835 86.155 79.27C85.5428 80.0536 85.0666 80.8147 84.5904 81.755C84.3863 82.158 84.1822 82.5833 83.9782 83.0087C83.8421 83.2997 83.706 83.5908 83.57 83.8818C83.3206 84.3967 83.0485 84.934 82.663 85.449C82.2095 86.031 81.6652 86.4788 81.0984 86.725C81.0984 86.725 81.0757 86.7474 81.053 86.7698Z" fill="#FF9457"/>
<path d="M91.144 78.7333C90.8719 78.7333 90.6225 78.6885 90.3957 78.6214C90.0556 78.5094 89.8288 78.2856 89.7381 77.9945C89.6928 77.8826 89.6928 77.7483 89.7381 77.6363C89.7835 77.502 89.8968 77.4348 89.9649 77.3677C90.373 77.0095 90.7358 76.4498 90.9626 75.8229C91.1894 75.2409 91.3027 74.6364 91.3934 74.0767C91.4615 73.7185 91.5068 73.3827 91.5522 73.0245C91.6202 72.532 91.6882 72.0618 91.7789 71.5917C91.983 70.4499 92.2324 69.4873 92.6179 68.4574C93.2302 66.8008 93.9331 65.3903 94.7041 63.8904L94.9535 63.3755C94.9989 63.2859 95.0669 63.2411 95.1576 63.2188C95.2483 63.2188 95.339 63.2411 95.407 63.3083C95.5431 63.4874 95.7698 67.2037 95.7925 67.5843C95.8605 68.4798 95.8832 69.3305 95.7925 70.2261C95.8832 70.1141 95.9512 70.0022 96.0419 69.8902C97.0397 68.5918 97.856 67.6515 98.627 66.9127C99.0351 66.5321 99.466 66.1739 99.9421 65.8605C99.9421 65.8605 99.9421 65.8605 99.9648 65.8605C100.01 65.8381 101.053 65.2112 101.348 65.4799C101.416 65.5471 101.484 65.7038 101.393 65.8605C100.169 68.0545 99.466 69.644 98.4909 71.838L98.2188 72.4424C96.9716 75.1065 95.5204 76.7184 93.0488 78.196C92.5726 78.5094 91.8243 78.7333 91.144 78.7333ZM90.2597 77.8154C90.305 77.9498 90.4184 78.0393 90.5771 78.0841C91.1667 78.2856 92.2098 78.0841 92.7766 77.7483C95.1576 76.3155 96.5408 74.7707 97.7426 72.2409L98.0147 71.6589C98.9217 69.644 99.602 68.144 100.645 66.1963C100.486 66.2635 100.328 66.3306 100.282 66.3754C99.8288 66.6888 99.4206 67.0246 99.0578 67.3828C98.3095 68.0992 97.4932 69.0171 96.5181 70.2932C96.2233 70.6738 95.9059 71.0992 95.6111 71.5021C95.5431 71.6141 95.407 71.6365 95.271 71.5917C95.1576 71.5469 95.0896 71.4126 95.1122 71.2783C95.3843 70.0022 95.339 68.8828 95.271 67.6515V67.6291C95.2936 67.3828 95.1349 65.5918 95.0442 64.4725C94.3186 65.8829 93.7063 67.1366 93.1395 68.6589C92.7766 69.6664 92.5272 70.6066 92.3231 71.7036C92.2324 72.1738 92.1644 72.6215 92.0964 73.1141C92.051 73.4499 91.983 73.8081 91.9377 74.1663C91.8469 74.7483 91.7336 75.3752 91.4841 76.002C91.212 76.6961 90.8039 77.3229 90.3504 77.7483C90.305 77.7707 90.2597 77.8154 90.2597 77.8154Z" fill="#FF9457"/>
<path d="M97.0168 66.5987C96.9942 66.5987 96.9715 66.5987 96.9488 66.5987C96.586 66.5763 96.3139 66.442 96.1552 66.1734C96.0871 66.0614 96.0645 65.9495 96.0645 65.8152C96.0871 65.6808 96.1325 65.5689 96.2005 65.4794C96.4953 64.9421 96.6767 64.2704 96.7447 63.5316C96.7901 62.8376 96.722 62.1884 96.654 61.5615C96.6087 61.1586 96.5633 60.778 96.518 60.4198C96.4499 59.8825 96.3819 59.3452 96.3366 58.8302C96.2005 57.5542 96.1778 56.4348 96.2459 55.1811C96.3366 53.2558 96.6087 51.5767 96.9035 49.629L97.0395 48.8006C97.0622 48.6887 97.1302 48.6215 97.2209 48.5768C97.3116 48.5544 97.425 48.5768 97.493 48.6439C97.6517 48.8006 98.9216 52.7856 99.0576 53.1662C99.3751 54.1065 99.6472 55.002 99.8059 55.987C99.8513 55.8303 99.8966 55.696 99.942 55.5617C100.532 53.7483 101.03 52.4722 101.552 51.3976C101.824 50.8379 102.142 50.3006 102.482 49.7633C102.482 49.7633 102.482 49.7633 102.482 49.7409C102.572 49.629 103.321 48.6439 103.706 48.8006C103.797 48.8454 103.91 48.9573 103.888 49.1588C103.389 51.9349 103.162 53.9274 102.867 56.4572L102.754 57.487C102.323 60.7556 101.393 62.9496 99.4431 65.345C98.8989 65.9271 97.8105 66.5987 97.0168 66.5987ZM97.3796 49.92C97.1075 51.7558 96.8581 53.3677 96.7674 55.1811C96.6994 56.39 96.722 57.487 96.8581 58.7407C96.9034 59.278 96.9715 59.7929 97.0395 60.3302C97.0849 60.7108 97.1302 61.0914 97.1756 61.4944C97.2436 62.1436 97.3116 62.8376 97.2663 63.5764C97.1982 64.3824 96.9942 65.1659 96.654 65.748C96.6313 65.7928 96.586 65.8599 96.586 65.8823C96.6313 65.9495 96.722 66.039 96.9488 66.0614C96.9715 66.0614 96.9715 66.0614 96.9942 66.0614C97.6064 66.0614 98.5361 65.4793 98.9669 64.9644C100.532 63.0391 101.688 61.0018 102.164 57.3751L102.278 56.3452C102.55 54.0169 102.776 52.1588 103.185 49.6961C103.049 49.8305 102.935 49.9648 102.912 50.0096C102.572 50.5245 102.278 51.0394 102.028 51.5767C101.529 52.6289 101.03 53.905 100.441 55.6736C100.259 56.2109 100.101 56.7482 99.9193 57.3079C99.874 57.4422 99.7606 57.5094 99.6245 57.5094C99.4885 57.487 99.3978 57.3974 99.3751 57.2631C99.2617 55.7855 98.9216 54.599 98.4907 53.3005V53.2781C98.4454 52.9871 97.8105 51.1289 97.3796 49.92Z" fill="#FF9457"/>
<path d="M100.077 51.4408C99.8732 51.4408 99.6918 51.3737 99.5331 51.2393C99.4424 51.1498 99.3743 51.0602 99.3517 50.9259C99.329 50.7916 99.3517 50.6573 99.3517 50.5453C99.465 49.8513 99.397 49.023 99.2156 48.2394C99.0342 47.5006 98.7621 46.829 98.5127 46.2693C98.3086 45.7992 98.1045 45.3738 97.9004 44.9484C97.6963 44.5455 97.5149 44.1425 97.3335 43.7395C96.812 42.5753 96.4492 41.5679 96.1317 40.4485C95.5875 38.5456 95.3381 36.8889 95.0433 35.1203L94.998 34.874C94.9753 34.7621 95.0206 34.6725 95.1113 34.6054C95.1794 34.5606 95.2474 34.5606 95.3154 34.5606C95.5649 34.6278 97.8097 37.3814 98.0818 37.7172C98.626 38.3889 99.1476 39.0605 99.6011 39.8665C99.6011 39.7097 99.6011 39.5754 99.6011 39.4411C99.6011 37.7172 99.6918 36.4188 99.8505 35.3442C99.9412 34.7845 100.077 34.2472 100.259 33.6875C100.259 33.6651 100.712 32.4786 101.143 32.5457C101.256 32.5681 101.392 32.6353 101.415 32.8144C101.71 35.2098 102.073 36.9113 102.572 39.3068L102.753 40.2023C103.365 43.2918 103.206 45.8663 102.231 49.0454C101.982 49.8737 101.143 51.217 100.304 51.4408C100.259 51.4184 100.168 51.4408 100.077 51.4408ZM95.7009 35.6576C95.9503 37.1799 96.1998 38.6351 96.6533 40.2694C96.9481 41.3664 97.3109 42.3515 97.8324 43.4932C98.0138 43.8962 98.1952 44.2992 98.3993 44.7022C98.6034 45.1275 98.8074 45.5753 99.0115 46.023C99.261 46.6051 99.5557 47.2991 99.7598 48.0827C99.9639 48.9334 100.032 49.8289 99.9185 50.5901C99.8959 50.6797 99.8959 50.7468 99.8959 50.7916C99.9866 50.8811 100.077 50.9035 100.191 50.8588C100.735 50.702 101.506 49.605 101.755 48.8215C102.73 45.6872 102.866 43.2694 102.277 40.2247L102.095 39.3515C101.642 37.1799 101.302 35.568 101.007 33.486C100.939 33.6203 100.871 33.7546 100.848 33.8218C100.667 34.3367 100.553 34.8516 100.463 35.3889C100.281 36.4412 100.213 37.7172 100.213 39.4187C100.213 39.9336 100.213 40.4933 100.236 41.053C100.236 41.1873 100.145 41.2993 100.009 41.3216C99.8732 41.344 99.7598 41.2769 99.6918 41.1649C99.1249 39.8665 98.4446 38.9709 97.6963 38.0307L97.6737 38.0083C97.5376 37.7844 96.4265 36.4859 95.7009 35.6576Z" fill="#FF9457"/>
<path d="M97.742 36.1959C97.6513 36.1959 97.5606 36.1735 97.4699 36.1511C97.3565 36.1064 97.2432 36.0392 97.1751 35.9273C97.1071 35.8153 97.0844 35.681 97.0844 35.5691C97.0164 34.9646 96.767 34.293 96.3815 33.6885C96.0187 33.1288 95.5878 32.6811 95.2024 32.2557C94.9076 31.9423 94.6128 31.6512 94.318 31.3826C94.0005 31.0692 93.7058 30.7781 93.411 30.4647C92.5947 29.6364 91.9824 28.8528 91.3702 27.9797C90.3271 26.4573 89.6242 25.0245 88.8759 23.5246L88.8078 23.3902C88.7625 23.2783 88.7852 23.144 88.8759 23.0544C89.0346 22.9201 89.0346 22.9201 90.7579 23.8828C91.3475 24.1962 92.3225 24.7559 92.5493 24.935C93.2749 25.3603 93.9552 25.7857 94.6355 26.3678C94.5901 26.2334 94.5448 26.0991 94.5221 25.9648C94.0686 24.4648 93.8191 23.2783 93.7058 22.2261C93.6377 21.6888 93.6377 21.1739 93.6604 20.6142C93.6604 20.6142 93.6604 20.6142 93.6604 20.5918C93.6604 20.5694 93.7965 19.3605 94.2046 19.2933C94.3407 19.2709 94.4767 19.3381 94.5221 19.4724C95.4745 21.5768 96.3135 23.032 97.4699 25.0469L97.7874 25.5842C99.1933 28.0916 99.6921 30.3751 99.5334 33.4199C99.488 34.181 99.0345 35.5691 98.3089 36.0616C98.1275 36.1288 97.9234 36.1959 97.742 36.1959ZM89.6695 23.8828C90.3271 25.2036 90.9393 26.3902 91.8237 27.6663C92.3906 28.517 93.0028 29.2558 93.7965 30.0841C94.0912 30.3975 94.386 30.6886 94.7035 31.002C94.9983 31.293 95.2931 31.5841 95.5878 31.8751C95.996 32.3005 96.4495 32.793 96.835 33.3975C97.2658 34.0691 97.5379 34.8079 97.6286 35.4795C97.6286 35.5467 97.6513 35.6138 97.6513 35.6362C97.6967 35.6362 97.81 35.6586 97.9914 35.5467C98.4903 35.2109 98.9438 34.0467 98.9892 33.3303C99.1479 30.3528 98.6717 28.2483 97.3112 25.7857L96.9937 25.2484C95.928 23.4126 95.1343 22.047 94.2953 20.2112C94.25 20.3679 94.2273 20.547 94.2046 20.5918C94.182 21.1291 94.1819 21.6216 94.25 22.1141C94.3634 23.1216 94.6128 24.2633 95.0436 25.7409C95.1797 26.1887 95.3384 26.6812 95.4971 27.1737C95.5425 27.2857 95.4971 27.42 95.3838 27.4872C95.2704 27.5543 95.1343 27.5319 95.0436 27.4424C94.1593 26.4797 93.2749 25.92 92.2772 25.3379L92.2545 25.3156C92.0504 25.2036 90.5765 24.3753 89.6695 23.8828Z" fill="#FF9457"/>
<path d="M91.6193 23.8608C91.5059 23.8608 91.3925 23.816 91.3018 23.7489C91.1884 23.6593 91.1431 23.5474 91.0977 23.4578C90.871 22.9429 90.4628 22.4504 89.9413 22.0474C89.4651 21.6668 88.9436 21.3982 88.4447 21.1519C88.1046 20.9952 87.7871 20.8385 87.4697 20.6818C87.0388 20.4803 86.6533 20.3012 86.2452 20.0773C85.2474 19.5624 84.4538 19.0699 83.6602 18.443C82.2316 17.346 81.2112 16.2266 80.0094 14.9729C79.9187 14.861 79.896 14.6819 80.0094 14.5923C80.1228 14.4804 80.1228 14.458 82.0048 14.8386C82.6397 14.9729 83.7509 15.1968 84.0003 15.2864C84.8166 15.4655 85.5876 15.6669 86.3812 15.9804C86.3132 15.8684 86.2225 15.7565 86.1545 15.6446C85.3381 14.4132 84.7713 13.3834 84.3858 12.4655C84.1817 11.9954 84.0456 11.5029 83.9096 10.9879C83.9096 10.9879 83.9096 10.9879 83.9096 10.9656C83.9096 10.9432 83.7282 9.75663 84.091 9.59992C84.2044 9.53275 84.3631 9.57753 84.4538 9.68947C85.9957 11.4581 87.1975 12.5327 88.9889 14.167L89.1703 14.3237C91.1884 16.1819 92.2542 18.0624 92.8891 20.8161C93.0705 21.5996 92.9345 22.8533 92.4356 23.4802C92.2088 23.7041 91.9367 23.8608 91.6193 23.8608C91.642 23.8608 91.642 23.8608 91.6193 23.8608ZM80.9618 15.152C81.9368 16.1819 82.8438 17.0774 84.0003 17.9952C84.7713 18.5997 85.5422 19.0922 86.5173 19.5848C86.9028 19.7863 87.3109 19.9654 87.7191 20.1668C88.0365 20.3236 88.354 20.4803 88.6941 20.637C89.2157 20.9056 89.7599 21.1967 90.3041 21.5996C90.8937 22.0698 91.3472 22.6295 91.5966 23.2116C91.6193 23.2339 91.6193 23.2787 91.642 23.3011C91.778 23.3011 91.8914 23.2115 91.9821 23.0772C92.3676 22.5847 92.481 21.4877 92.3449 20.8609C91.7327 18.1967 90.7349 16.4505 88.7848 14.6371L88.6034 14.4804C86.9481 12.9804 85.7917 11.9282 84.4084 10.4059C84.4084 10.585 84.4311 10.7417 84.4311 10.8088C84.5445 11.3014 84.6806 11.7491 84.862 12.1969C85.2248 13.0924 85.7917 14.0774 86.5853 15.2864C86.8347 15.6669 87.1068 16.0699 87.379 16.4505C87.447 16.5624 87.447 16.6968 87.3563 16.7863C87.2656 16.8759 87.1295 16.8983 87.0161 16.8311C85.9504 16.2266 84.93 15.9804 83.8189 15.7341H83.7962C83.6148 15.6893 81.9822 15.3535 80.9618 15.152Z" fill="#FF9457"/>
<path d="M82.7081 14.5913C82.6401 14.5913 82.5721 14.5689 82.5267 14.5465C82.3906 14.5017 82.3226 14.3898 82.2546 14.3226C81.9145 13.9197 81.3929 13.5838 80.7807 13.3376C80.2138 13.1137 79.6469 13.0242 79.1027 12.9122C78.7626 12.8674 78.4451 12.8003 78.1276 12.7555C77.6288 12.6883 77.1753 12.5988 76.7218 12.5316C75.6333 12.3301 74.7263 12.0615 73.7966 11.7033C72.0959 11.0317 70.7581 10.2257 69.3295 9.3526C69.2615 9.30782 69.2161 9.24066 69.1935 9.1735C69.1708 9.10633 69.1935 9.01678 69.2388 8.97201C69.3295 8.83768 69.3295 8.83768 71.2116 8.70336C71.8692 8.65858 72.9803 8.59142 73.2524 8.59142C74.0914 8.54664 74.885 8.52426 75.724 8.61381C75.6333 8.52426 75.5199 8.45709 75.4292 8.36754C74.3181 7.42727 73.4792 6.59893 72.8669 5.81536C72.5495 5.41239 72.2773 4.98702 72.0279 4.51688C72.0279 4.51688 72.0279 4.51688 72.0279 4.4945C72.0279 4.4945 71.5291 3.39751 71.8238 3.12886C71.9372 3.03931 72.0733 3.03931 72.1866 3.10647C74.2274 4.44972 75.724 5.16612 77.9689 6.26311C80.3952 7.47204 81.9371 8.92723 83.275 11.3003C83.6378 11.9496 83.8419 13.1361 83.5698 13.8749C83.4337 14.2107 83.207 14.4346 82.9122 14.5241C82.7988 14.5689 82.7535 14.5913 82.7081 14.5913ZM70.2819 9.33021C71.4384 10.0242 72.5721 10.6735 73.9553 11.2108C74.8624 11.569 75.724 11.8152 76.7898 12.0167C77.2433 12.1063 77.6968 12.1734 78.1957 12.2406C78.5131 12.2854 78.8306 12.3301 79.1707 12.3973C79.7376 12.4869 80.3498 12.5988 80.9621 12.8451C81.6423 13.1137 82.2546 13.5167 82.6401 13.9644C82.6628 13.9868 82.6854 14.0092 82.7081 14.0316C82.8442 13.9868 82.9349 13.8749 83.0029 13.6958C83.2296 13.1361 83.0482 12.1063 82.7535 11.5914C81.461 9.28543 80.0324 7.94218 77.6968 6.77803C75.7014 5.81536 74.2048 5.07657 72.368 3.91242C72.4134 4.06913 72.4814 4.22585 72.5041 4.27062C72.7535 4.71837 73.003 5.09896 73.2977 5.47955C73.8873 6.24073 74.7036 7.04668 75.7694 7.94218C76.1095 8.23322 76.4723 8.52426 76.8578 8.8153C76.9485 8.90485 76.9939 9.03917 76.9258 9.15111C76.8805 9.26305 76.7444 9.33021 76.6084 9.30782C75.4292 9.03917 74.3862 9.06156 73.2297 9.12872H73.207C72.9803 9.12872 71.325 9.24066 70.2819 9.33021Z" fill="#FF9457"/>
<path d="M71.6652 8.34533C71.6425 8.34533 71.6198 8.34533 71.5972 8.34533C71.4611 8.32294 71.3477 8.25578 71.2797 8.21101C70.8262 7.91997 70.2366 7.71848 69.6017 7.65132C69.0121 7.58415 68.4226 7.62893 67.8557 7.69609C67.5382 7.71848 67.2435 7.76326 66.9487 7.78564C66.4271 7.83042 65.9509 7.89758 65.4521 7.91997C64.341 8.00952 63.4113 7.98713 62.3909 7.85281C60.5315 7.62893 58.9669 7.1364 57.4476 6.68865C57.3796 6.66626 57.3116 6.62149 57.2889 6.55433C57.2662 6.48716 57.2435 6.39761 57.2889 6.33045C57.3342 6.19613 57.3342 6.19613 59.1256 5.61405C59.7378 5.41256 60.8036 5.07675 61.053 5.00958C61.8467 4.76332 62.595 4.53945 63.434 4.42751C63.3206 4.38273 63.2072 4.31557 63.0938 4.2708C61.7786 3.64394 60.7582 3.03948 59.9419 2.43501C59.5338 2.12159 59.1483 1.78578 58.7855 1.3828C58.7855 1.3828 57.9918 0.442522 58.2186 0.129096C58.2866 0.017158 58.4453 -0.0276171 58.5814 0.017158C60.8716 0.800723 62.4362 1.13654 65.0212 1.62906C67.697 2.18875 69.5564 3.19619 71.4838 5.09913C72.0053 5.61405 72.5269 6.68865 72.4362 7.47222C72.3908 7.83042 72.2321 8.09907 71.9826 8.27817C71.8693 8.32294 71.7559 8.34533 71.6652 8.34533ZM68.9895 7.09163C69.2162 7.09163 69.443 7.09163 69.6697 7.11402C70.3954 7.18118 71.0756 7.40505 71.5972 7.74087C71.6198 7.76326 71.6652 7.78564 71.6879 7.78564C71.8012 7.69609 71.8693 7.58415 71.8919 7.38267C71.96 6.7782 71.5065 5.86031 71.0756 5.45734C69.2162 3.59917 67.4929 2.65889 64.9079 2.12159C62.595 1.67384 61.0077 1.33802 58.9895 0.666397C59.0802 0.800723 59.171 0.935048 59.2163 0.979823C59.5564 1.33802 59.9192 1.67384 60.3047 1.96488C61.0757 2.54695 62.0961 3.12903 63.3659 3.73349C63.7741 3.93498 64.2049 4.11408 64.6584 4.31557C64.7718 4.36035 64.8398 4.49467 64.8172 4.60661C64.7945 4.74093 64.6811 4.83048 64.5677 4.83048C63.3433 4.87526 62.3455 5.14391 61.2571 5.50211H61.2344C61.0303 5.54689 59.4431 6.0618 58.468 6.37523C59.7152 6.75582 61.0303 7.11402 62.5269 7.29312C63.502 7.42744 64.409 7.42744 65.4748 7.36028C65.9509 7.3155 66.4271 7.27073 66.9487 7.22595C67.2435 7.20357 67.5609 7.15879 67.8784 7.1364C68.1958 7.11402 68.5813 7.09163 68.9895 7.09163Z" fill="#FF9457"/>
<path d="M48.0143 7.00147C47.0619 7.00147 46.1549 6.95669 45.2706 6.88953C45.2025 6.88953 45.1345 6.84476 45.0665 6.79998C45.0211 6.73282 44.9985 6.66566 44.9985 6.59849C45.0211 6.44178 45.0211 6.44178 46.5858 5.45673C47.13 5.12091 48.0597 4.53884 48.3091 4.4269C49.012 4.00154 49.6696 3.59856 50.4406 3.30752C50.3045 3.28513 50.1912 3.26275 50.0551 3.24036C48.6266 2.94932 47.4474 2.61351 46.5177 2.21053C46.0415 2.00904 45.5654 1.76278 45.1118 1.47174C45.1118 1.47174 44.0914 0.755338 44.2502 0.374749C44.2955 0.240424 44.4316 0.173261 44.5676 0.195649C47.0166 0.419524 48.6946 0.352362 51.2342 0.262811C53.9553 0.173261 56.0415 0.710563 58.4224 2.09859C59.08 2.47918 59.8736 3.39707 59.987 4.18064C60.0324 4.51645 59.9643 4.82988 59.7603 5.05375C59.6695 5.1433 59.5788 5.21046 59.4428 5.21046C59.3067 5.23285 59.1934 5.18808 59.1027 5.16569C58.6038 4.98659 57.9689 4.94181 57.334 5.03136C56.7444 5.12091 56.2002 5.30001 55.656 5.47912C55.3612 5.56867 55.0891 5.6806 54.817 5.77015C54.3181 5.94925 53.8646 6.10597 53.3884 6.26268C52.3453 6.59849 51.4156 6.79998 50.4179 6.91192C49.5563 6.95669 48.7626 7.00147 48.0143 7.00147ZM46.1322 6.39701C47.4928 6.46417 48.8306 6.50894 50.3272 6.32984C51.3023 6.21791 52.1866 6.01642 53.207 5.70299C53.6832 5.54628 54.1367 5.38956 54.6129 5.21046C54.885 5.12091 55.1571 5.00898 55.4519 4.91943C55.9961 4.71794 56.5857 4.53884 57.2206 4.44929C57.9462 4.33735 58.6718 4.40451 59.2387 4.606C59.2614 4.606 59.3067 4.62839 59.3294 4.62839C59.4201 4.51645 59.4428 4.38212 59.4201 4.22541C59.3294 3.64333 58.6492 2.83738 58.1049 2.54634C55.792 1.20309 53.8646 0.710563 51.2342 0.800113C48.8987 0.889663 47.2887 0.956826 45.1345 0.800113C45.2479 0.912051 45.3613 1.0016 45.4293 1.04638C45.8601 1.31503 46.291 1.5389 46.7445 1.74039C47.6515 2.12098 48.7853 2.45679 50.1912 2.74783C50.6447 2.83738 51.1209 2.92693 51.5971 2.9941C51.7331 3.01648 51.8238 3.12842 51.8238 3.24036C51.8238 3.37468 51.7558 3.48662 51.6197 3.50901C50.4633 3.82244 49.6016 4.31496 48.6039 4.91943C48.6039 4.91943 48.5812 4.91943 48.5812 4.94181C48.3544 4.98659 46.9939 5.8597 46.1322 6.39701Z" fill="#FF9457"/>
<path d="M33.4792 10.0012C33.4339 10.0012 33.3658 9.97876 33.3205 9.95638C33.2524 9.9116 33.2071 9.84444 33.2071 9.77728C33.1844 9.62056 33.1844 9.62056 34.4316 8.2997C34.8624 7.82956 35.6107 7.04599 35.8148 6.88928C36.3817 6.3072 36.9259 5.7699 37.5835 5.27738C37.4474 5.27738 37.3114 5.29976 37.1753 5.29976C35.7014 5.34454 34.4996 5.29976 33.4565 5.14305C32.935 5.0535 32.4361 4.94156 31.8919 4.76246C31.8692 4.76246 30.7128 4.31471 30.7581 3.91173C30.7581 3.7998 30.8488 3.66547 31.0302 3.64308C33.4339 3.2625 34.9758 2.83713 37.4928 2.09834C40.1005 1.35955 42.2546 1.38194 44.9304 2.1655C45.6787 2.38938 46.6991 3.10578 47.0165 3.82218C47.1526 4.13561 47.1526 4.42665 47.0165 4.6953C46.9712 4.80724 46.8578 4.89679 46.7444 4.94156C46.6083 4.98634 46.495 4.98634 46.4043 4.96395C45.8601 4.91917 45.2478 5.00873 44.6583 5.25499C44.114 5.47886 43.6379 5.7699 43.1617 6.08333C42.9122 6.24004 42.6628 6.41914 42.436 6.57585C42.0052 6.86689 41.6197 7.13554 41.2116 7.38181C40.2819 7.96388 39.4656 8.36686 38.5132 8.72506C36.8125 9.35191 35.2479 9.66534 33.5699 9.97876C33.5246 10.0012 33.5019 10.0012 33.4792 10.0012ZM38.6039 4.65052C38.7173 4.65052 38.8306 4.71769 38.876 4.85201C38.9213 4.96395 38.8533 5.09828 38.7399 5.16544C37.6969 5.74751 36.9712 6.46392 36.2003 7.24748L36.1776 7.26987C36.0189 7.40419 34.9078 8.56835 34.2275 9.30714C35.5654 9.03849 36.8805 8.74745 38.2637 8.23253C39.1708 7.89672 39.9871 7.49374 40.8714 6.93406C41.2796 6.68779 41.6651 6.41914 42.0959 6.1281C42.3453 5.97139 42.5721 5.79229 42.8442 5.63558C43.3204 5.32215 43.8419 4.98634 44.4315 4.76246C45.1118 4.49381 45.8147 4.38187 46.4269 4.42665C46.4496 4.42665 46.495 4.42665 46.5176 4.42665C46.563 4.31471 46.563 4.18039 46.495 4.02367C46.2455 3.48637 45.3612 2.85952 44.7716 2.68042C42.1639 1.91924 40.1685 1.89685 37.6515 2.61326C35.4066 3.2625 33.8647 3.71025 31.7559 4.06845C31.9146 4.13561 32.0506 4.20277 32.096 4.24755C32.5949 4.40426 33.071 4.5162 33.5699 4.60575C34.5676 4.76246 35.7468 4.80724 37.1753 4.74007C37.6288 4.71769 38.105 4.6953 38.6039 4.65052C38.5812 4.65052 38.6039 4.65052 38.6039 4.65052Z" fill="#FF9457"/>
<path d="M22.9356 16.002C22.9129 16.002 22.8676 16.002 22.8449 15.9796C22.7769 15.9572 22.7088 15.89 22.6862 15.8229C22.6408 15.6886 22.6408 15.6886 23.4798 14.0767C23.7746 13.517 24.2735 12.5543 24.4322 12.3304C24.8177 11.614 25.2032 10.9648 25.702 10.3155C25.566 10.3603 25.4299 10.4051 25.3165 10.4499C23.888 10.8976 22.7315 11.1439 21.6884 11.2558C21.1669 11.323 20.6454 11.323 20.0785 11.3006C20.0785 11.3006 20.0785 11.3006 20.0558 11.3006C20.0331 11.3006 18.8087 11.1663 18.7406 10.7857C18.7179 10.6514 18.786 10.517 18.922 10.4723C21.1896 9.44243 22.5955 8.5917 24.7497 7.29322C27.0626 5.92758 29.1714 5.41266 31.9605 5.5246C32.7541 5.54699 33.9106 5.99474 34.4094 6.62159C34.6135 6.89024 34.7042 7.18128 34.6362 7.44993C34.6135 7.58426 34.5455 7.67381 34.4321 7.74097C34.3187 7.80813 34.1827 7.83052 34.092 7.85291C33.5704 7.94246 33.0036 8.18872 32.482 8.56931C32.0058 8.90512 31.643 9.3081 31.2575 9.73346C31.0535 9.95734 30.8494 10.2036 30.668 10.4051C30.3505 10.7857 30.0331 11.1215 29.7156 11.4797C28.99 12.2633 28.287 12.8677 27.4707 13.4722C26.0422 14.502 24.6816 15.1513 23.1397 15.9348L23.049 15.9796C23.0263 15.9796 22.981 16.002 22.9356 16.002ZM26.5637 9.46481C26.6544 9.46481 26.7451 9.50959 26.7905 9.59914C26.8585 9.71108 26.8358 9.8454 26.7451 9.93495C25.9061 10.7633 25.3846 11.6364 24.863 12.6215L24.8404 12.6438C24.727 12.8229 23.956 14.2558 23.5025 15.1289C24.7723 14.502 25.9288 13.8752 27.1079 13.0244C27.9016 12.4647 28.5591 11.8827 29.2848 11.1215C29.6022 10.7857 29.897 10.4275 30.2371 10.0693C30.4412 9.8454 30.6226 9.62153 30.8494 9.37526C31.2349 8.9499 31.643 8.50215 32.1419 8.14395C32.7315 7.71858 33.389 7.42755 33.9786 7.338C34.0013 7.338 34.0466 7.33799 34.0693 7.31561C34.092 7.20367 34.0466 7.06934 33.9333 6.95741C33.5478 6.48727 32.5274 6.08429 31.8925 6.0619C29.1714 5.94997 27.244 6.4201 24.9764 7.76336C23.0717 8.90512 21.6658 9.77824 19.6703 10.6961C19.8291 10.7409 19.9878 10.7633 20.0558 10.7633C20.5773 10.7857 21.0762 10.7633 21.5751 10.7185C22.5728 10.6066 23.6839 10.3603 25.0898 9.93495C25.5206 9.80063 25.9741 9.64391 26.4503 9.4872C26.5183 9.46481 26.541 9.46481 26.5637 9.46481Z" fill="#FF9457"/>
<path d="M14.4096 24.9126H14.3869C14.2962 24.9126 14.2282 24.8455 14.1828 24.7783C14.0468 24.5768 14.8177 21.2187 14.9084 20.8381C15.0898 20.0098 15.2712 19.2486 15.5887 18.465C15.4753 18.5546 15.362 18.6217 15.2486 18.6889C13.9787 19.5396 12.9357 20.1217 12.006 20.5471C11.5298 20.7709 11.0082 20.9277 10.4867 21.0844C10.4867 21.0844 10.4867 21.0844 10.464 21.0844C10.4414 21.0844 9.23955 21.3306 9.05814 20.9724C8.99012 20.8605 9.03547 20.7038 9.12617 20.6142C10.9402 18.9799 12.0286 17.771 13.7066 15.9352L13.8654 15.7561C15.7248 13.7636 17.6068 12.689 20.3279 12.0398C21.0762 11.8607 22.3234 11.9726 22.9809 12.4428C23.253 12.6443 23.4118 12.9129 23.4345 13.2039C23.4345 13.3383 23.4118 13.4502 23.3211 13.5398C23.2304 13.6517 23.117 13.6965 23.0263 13.7412C22.5501 13.9651 22.0512 14.3457 21.6658 14.8606C21.303 15.3308 21.0308 15.8457 20.8041 16.3382C20.668 16.6292 20.532 16.9203 20.3959 17.2113C20.1918 17.6591 19.9878 18.062 19.7837 18.4874C19.2848 19.4725 18.786 20.256 18.151 21.062C17.108 22.4276 16.0422 23.4351 14.8177 24.6216L14.591 24.8455C14.5456 24.8903 14.4776 24.9126 14.4096 24.9126ZM16.269 17.368C16.337 17.368 16.405 17.3904 16.4504 17.4352C16.5411 17.5247 16.5638 17.6591 16.5184 17.771C15.9288 18.8456 15.6794 19.8531 15.43 20.95V20.9724C15.362 21.1739 15.0218 22.8306 14.8404 23.838C15.8835 22.8306 16.8132 21.8903 17.7429 20.7038C18.3551 19.9202 18.8313 19.159 19.3075 18.2188C19.5116 17.8158 19.7157 17.3904 19.9197 16.9651C20.0558 16.674 20.1918 16.383 20.3279 16.0919C20.5773 15.577 20.8494 15.0397 21.2349 14.5248C21.6884 13.9427 22.2326 13.495 22.7995 13.2487C22.8222 13.2263 22.8676 13.2263 22.8902 13.2039C22.8676 13.092 22.7995 12.9801 22.6635 12.8681C22.1646 12.5099 21.0762 12.398 20.464 12.5547C17.7656 13.1816 16.0422 14.1666 14.2508 16.1143L14.0921 16.2934C12.6182 17.9277 11.5298 19.1366 9.94249 20.5918C10.1239 20.5695 10.2826 20.5695 10.3507 20.5471C10.8495 20.4127 11.3257 20.256 11.7792 20.0545C12.6862 19.6516 13.7066 19.0695 14.9538 18.2411C15.3393 17.9949 15.7248 17.7038 16.1329 17.4128C16.1556 17.3904 16.2236 17.368 16.269 17.368Z" fill="#FF9457"/>
<path d="M8.71754 36.7107C8.62684 36.7107 8.55881 36.6659 8.51346 36.6211C8.37741 36.442 8.15065 32.7257 8.12798 32.3451C8.05995 31.4496 8.03728 30.5988 8.12798 29.7033C8.03728 29.8153 7.96925 29.9272 7.87855 30.0392C6.88082 31.3376 6.0645 32.2779 5.29353 33.0167C4.88537 33.3973 4.45454 33.7555 3.97835 34.0689C3.97835 34.0689 3.97835 34.0689 3.95568 34.0689C3.95568 34.0689 2.86725 34.7182 2.57247 34.4495C2.50444 34.3823 2.43641 34.2256 2.52712 34.0689C3.7516 31.8749 4.45454 30.2854 5.42959 28.0914L5.70169 27.487C6.94885 24.8229 8.40009 23.211 10.8717 21.7334C11.5293 21.3304 12.7765 21.0841 13.5248 21.3528C13.8649 21.4647 14.0917 21.6886 14.1824 21.9796C14.2277 22.0916 14.2277 22.2259 14.1824 22.3378C14.137 22.4722 14.0236 22.5393 13.9556 22.6065C13.5474 22.9647 13.1846 23.5244 12.9579 24.1288C12.7311 24.7109 12.6177 25.3154 12.527 25.8751C12.459 26.2333 12.4137 26.5691 12.3683 26.9049C12.3003 27.3974 12.2323 27.8676 12.1416 28.3377C11.9375 29.4795 11.688 30.4421 11.3026 31.472C10.6903 33.1286 9.98738 34.5391 9.21641 36.039L8.96697 36.5539C8.92162 36.6435 8.8536 36.6883 8.7629 36.7107C8.74022 36.7107 8.74022 36.7107 8.71754 36.7107ZM8.55882 28.3601C8.60417 28.3601 8.62684 28.3601 8.67219 28.3825C8.78557 28.4273 8.8536 28.5616 8.83092 28.6959C8.55882 29.972 8.60417 31.0914 8.67219 32.3227V32.3451C8.64952 32.5913 8.80825 34.3823 8.89895 35.5017C9.62457 34.0913 10.2368 32.8376 10.8037 31.3152C11.1665 30.3078 11.4159 29.3675 11.62 28.2705C11.7107 27.8004 11.7787 27.3303 11.8468 26.8601C11.8921 26.5243 11.9601 26.1661 12.0055 25.8079C12.0962 25.2258 12.2096 24.599 12.459 23.9721C12.7311 23.2781 13.1393 22.6513 13.5928 22.2259C13.6155 22.2035 13.6608 22.1811 13.6608 22.1587C13.6155 22.0244 13.5021 21.9349 13.3434 21.8901C12.7538 21.6886 11.7107 21.8901 11.1438 22.2259C9.14838 23.4124 7.56109 24.8005 6.17788 27.7332L5.90577 28.3377C4.99875 30.3526 4.31848 31.8526 3.27541 33.8003C3.43414 33.7331 3.59287 33.6659 3.63822 33.6212C4.09173 33.3077 4.49989 32.9943 4.8627 32.6137C5.61099 31.8973 6.42731 30.9794 7.40236 29.7033C7.69714 29.3004 8.0146 28.8974 8.30938 28.4944C8.37741 28.4049 8.46811 28.3601 8.55882 28.3601Z" fill="#FF9457"/>
<path d="M6.65404 51.4419C6.58602 51.4419 6.51799 51.4195 6.44996 51.3523C6.31391 51.218 5.0214 47.2106 4.90802 46.83C4.59057 45.8898 4.31846 44.9942 4.15973 44.0092C4.11438 44.1659 4.06903 44.3002 4.02368 44.4346C3.43411 46.248 2.93525 47.524 2.41371 48.5986C2.14161 49.1583 1.82415 49.6956 1.48401 50.2329C1.48401 50.2329 1.48401 50.2329 1.48401 50.2553C1.34796 50.4344 0.645018 51.3523 0.259534 51.1956C0.168831 51.1508 0.0554535 51.0389 0.078129 50.8374C0.576991 48.0613 0.803747 46.0689 1.09853 43.5391L1.21191 42.5316C1.64274 39.263 2.57244 37.0691 4.52254 34.6736C5.04408 34.0243 6.17786 33.3303 6.99418 33.3751C7.35699 33.3975 7.62909 33.5318 7.78782 33.8005C7.85585 33.9124 7.87852 34.0243 7.87852 34.1587C7.85585 34.293 7.8105 34.4049 7.74247 34.4945C7.44769 35.0318 7.26628 35.7034 7.19826 36.4646C7.15291 37.1586 7.22093 37.8302 7.28896 38.4347C7.33431 38.8377 7.37966 39.2183 7.42501 39.5988C7.49304 40.1361 7.56107 40.6511 7.60642 41.1884C7.74247 42.4645 7.76515 43.5838 7.69712 44.8375C7.60642 46.7629 7.33431 48.4419 7.03953 50.412L6.90347 51.2404C6.8808 51.3523 6.81277 51.4195 6.72207 51.4643C6.69939 51.4419 6.67672 51.4419 6.65404 51.4419ZM6.90347 33.9124C6.29123 33.9124 5.36154 34.4945 4.9307 35.0094C3.36609 36.9347 2.20963 38.972 1.73345 42.5988L1.64274 43.6286C1.37064 45.9569 1.14388 47.8375 0.73572 50.2777C0.871774 50.1434 0.985152 50.0091 1.00783 49.9643C1.34796 49.4494 1.64274 48.9345 1.89217 48.3972C2.39104 47.3449 2.8899 46.0689 3.47946 44.3002C3.66087 43.7629 3.8196 43.2256 4.001 42.6659C4.04635 42.5316 4.15973 42.4645 4.29578 42.4645C4.43184 42.4868 4.52254 42.5764 4.54522 42.7107C4.65859 44.1883 4.99873 45.3748 5.42956 46.6733V46.6957C5.47491 46.9644 6.13251 48.8449 6.54067 50.0315C6.81277 48.1957 7.0622 46.5838 7.15291 44.7704C7.22093 43.5614 7.19826 42.4645 7.0622 41.2107C7.01685 40.6734 6.94883 40.1809 6.8808 39.6212C6.83545 39.2406 6.7901 38.8601 6.74475 38.4571C6.67672 37.8078 6.60869 37.1138 6.65404 36.375C6.72207 35.5691 6.92615 34.7855 7.26628 34.2034C7.28896 34.1587 7.33431 34.0915 7.33431 34.0691C7.28896 34.002 7.19826 33.9124 6.9715 33.89C6.94883 33.9124 6.92615 33.9124 6.90347 33.9124Z" fill="#FF9457"/>
</svg>
