<svg width="21" height="20" viewBox="0 0 21 20" fill="none" xmlns="http://www.w3.org/2000/svg">
<rect x="0.5" width="20" height="20" rx="10" fill="#FF3B30"/>
<path d="M3.83719 10.0087C3.70394 6.5005 6.7768 3.25852 10.2885 3.21645C12.0783 3.0638 13.8196 3.75884 15.1741 4.89245C14.6185 5.50338 14.0532 6.10724 13.4493 6.67257C12.2569 5.94811 10.8212 5.39602 9.42757 5.88634C7.17977 6.52639 5.8185 9.1804 6.65032 11.3794C7.33919 13.676 10.1326 14.9364 12.3219 13.9716C13.4555 13.5657 14.2029 12.5197 14.5309 11.3958C13.2317 11.37 11.9322 11.3861 10.6329 11.3503C10.6297 10.5773 10.6265 9.8072 10.6297 9.03421C12.7963 9.03097 14.9662 9.0245 17.136 9.04391C17.2693 10.9379 16.9899 12.9648 15.7586 14.4849C14.0726 16.6547 10.9577 17.2915 8.42368 16.4403C5.73438 15.557 3.77865 12.8477 3.83719 10.0087Z" fill="white"/>
</svg>
