<svg width="16" height="16" viewBox="0 0 16 16" fill="none" xmlns="http://www.w3.org/2000/svg">
<path d="M8.38633 2.33062L8 2.80084L7.61367 2.33062C6.8584 1.41136 5.7244 0.863281 4.51404 0.863281C2.30114 0.863281 0.5 2.66439 0.5 4.87732C0.5 6.63649 1.55787 8.77247 3.82273 11.2398L3.45438 11.5779L3.82273 11.2398C5.55643 13.1285 7.44748 14.5951 7.98362 14.9979L8.0001 15.0103L8.01661 14.9979C8.55269 14.5952 10.4437 13.1285 12.1774 11.2397C14.4422 8.77241 15.5 6.63646 15.5 4.87732C15.5 2.66439 13.6989 0.863281 11.486 0.863281C10.2756 0.863281 9.14159 1.41136 8.38633 2.33062Z" stroke="white"/>
</svg>
