<svg width="22" height="22" viewBox="0 0 22 22" fill="none" xmlns="http://www.w3.org/2000/svg">
<path d="M12 4.28906C11.9658 4.34496 11.5 5.50055 11.6875 5.48941L11.5 7.00055L10.5 7.28906C10.0426 8.36076 9.55522 9.6729 9.5 10.5005L10 12.0005L10.7034 12.3203C10.7514 12.6325 10.8342 12.912 10.948 13.1559C11.125 13.2133 11.3162 13.2462 11.5206 13.252C13.0143 13.295 14.4234 12.6748 15.1218 9.59348C15.1931 9.27893 15.2766 8.92679 15.3687 8.54897L14.2656 8.47461L15.572 7.7282C16.0438 5.85016 17.1096 1.72331 17.5 0.289062C16.2754 0.809387 13.5801 1.71849 12 4.28906Z" fill="#13BBED"/>
<path d="M21.9108 21.3079L19.5933 18.2931C19.5212 18.1989 19.4132 18.139 19.2951 18.1272C17.7228 17.9713 16.8834 17.6375 16.2087 17.3691C15.6118 17.1317 14.9948 16.8863 14.1986 16.8863C12.9857 16.8863 12.0585 17.5331 11.4296 18.266V18.2501C11.7799 17.4424 12.7136 16.168 14.1642 16.168C14.7882 16.168 15.2741 16.3613 15.8373 16.5852C16.3071 16.772 16.8918 17.0047 17.7467 17.1843C17.979 17.2331 18.2067 17.0844 18.2556 16.8521C18.3043 16.62 18.1556 16.392 17.9234 16.3434C17.1408 16.1789 16.6171 15.9706 16.1547 15.7866C15.5638 15.5516 14.9529 15.3086 14.1642 15.3086C12.6541 15.3086 11.5913 16.3205 10.9999 17.2422C10.4086 16.3205 9.3458 15.3086 7.83552 15.3086C7.04698 15.3086 6.43585 15.5516 5.84487 15.7868C5.17801 16.052 4.34801 16.3821 2.79342 16.5362C2.55726 16.5597 2.38488 16.77 2.40821 17.0062C2.43171 17.2424 2.64219 17.4147 2.87835 17.3914C4.55312 17.2252 5.48333 16.8553 6.1626 16.5852C6.72539 16.3613 7.21147 16.168 7.83552 16.168C9.28622 16.168 10.2201 17.4426 10.5702 18.2503V18.266C9.94116 17.5331 9.01414 16.8862 7.80112 16.8862C7.00502 16.8862 6.38785 17.1317 5.79065 17.3692C5.11625 17.6375 4.27701 17.9713 2.70463 18.1272C2.58663 18.139 2.47871 18.1989 2.40637 18.2931L0.0890808 21.3079C-0.0107877 21.4377 -0.0280759 21.6129 0.0442659 21.7598C0.116608 21.9065 0.265991 21.9995 0.429641 21.9995H21.5702C21.7339 21.9995 21.8833 21.9065 21.9556 21.7598C22.0279 21.6129 22.0106 21.4377 21.9108 21.3079ZM14.1986 17.7456C14.8302 17.7456 15.3218 17.9411 15.8915 18.1677C16.5521 18.4305 17.4479 18.7867 19.0243 18.9628L20.6934 21.1342C17.8217 21.0723 16.4588 20.5301 15.5388 20.1642C15.0049 19.9519 14.6523 19.8116 14.1986 19.8116C13.4045 19.8116 12.8602 20.4076 12.6346 20.9195C12.6326 20.9236 12.6306 20.9276 12.6285 20.9318L12.5307 21.1401H11.4296V19.8542C11.7838 19.0368 12.7292 17.7456 14.1986 17.7456ZM2.97553 18.9628C4.55195 18.7867 5.44757 18.4304 6.10872 18.1675C6.67789 17.9411 7.16968 17.7456 7.80112 17.7456C9.27044 17.7456 10.2161 19.0368 10.5702 19.8542V21.1401H9.469L9.37132 20.9318C9.3693 20.9276 9.36729 20.9236 9.36527 20.9195C9.13952 20.4076 8.59536 19.8116 7.80128 19.8116C7.34759 19.8116 6.99495 19.9519 6.46103 20.1642C5.54106 20.5301 4.17798 21.0723 1.30647 21.1342L2.97553 18.9628ZM6.77876 20.9627C7.25175 20.7745 7.51225 20.6709 7.80112 20.6709C8.17189 20.6709 8.40469 20.9627 8.51211 21.1401H6.32407C6.48755 21.0785 6.63794 21.0187 6.77876 20.9627ZM13.4877 21.1401C13.5952 20.9627 13.828 20.6709 14.1986 20.6709C14.4876 20.6709 14.7481 20.7745 15.2213 20.9628C15.3619 21.0187 15.5125 21.0785 15.6758 21.1401H13.4877Z" fill="#13BBED"/>
<path d="M19.1062 17.3905L19.1218 17.392C19.1361 17.3934 19.1504 17.3942 19.1643 17.3942C19.3828 17.3942 19.5697 17.2284 19.5915 17.0065C19.6146 16.7703 19.4421 16.56 19.2059 16.5369L19.1907 16.5353C18.9545 16.5118 18.7442 16.6846 18.7209 16.9207C18.6975 17.1569 18.8701 17.3672 19.1062 17.3905Z" fill="#13BBED"/>
<path d="M9.54943 10.5719C9.43781 10.5815 9.33358 10.6344 9.26007 10.7201C9.17832 10.8153 9.1424 10.9414 9.16137 11.0652C9.33946 12.2252 9.9568 13.0178 10.8581 13.2895C10.8375 13.452 10.8184 13.6147 10.8012 13.7778L10.5725 15.9596C10.5478 16.1956 10.719 16.4071 10.955 16.4318C10.9703 16.4335 10.9854 16.4341 11.0003 16.4341C11.2175 16.4341 11.404 16.2702 11.4271 16.0493L11.6559 13.8674C11.6725 13.7088 11.6912 13.5509 11.711 13.3933C13.7097 13.3686 14.9299 12.0941 15.5407 9.39936C15.6087 9.09958 15.6911 8.75046 15.7859 8.36156C15.816 8.23836 15.7901 8.10828 15.7151 8.00589C15.6872 7.96796 15.6537 7.93523 15.6161 7.90871L15.7851 7.81203C15.8866 7.75412 15.9602 7.65711 15.9885 7.54364C16.7393 4.55597 17.8384 0.584217 17.8494 0.544437C17.8865 0.410831 17.8568 0.267658 17.7697 0.1599C17.6828 0.051975 17.5485 -0.00761057 17.4107 0.000781748C17.2652 0.00900626 13.8132 0.258427 10.9758 4.87471C10.9405 4.93195 10.9063 4.98868 10.8724 5.04558C10.8202 5.13253 10.8006 5.23525 10.8167 5.33529L11.0319 6.6601H10.3022C10.13 6.6601 9.97459 6.76282 9.90695 6.9211C9.44688 7.99918 9.18252 9.01113 9.12109 9.92925C9.11286 10.0513 9.15718 10.1711 9.24278 10.2586L9.54943 10.5719ZM15.1998 7.15676L14.0523 7.81254C13.8878 7.90653 13.8042 8.0972 13.8466 8.28183C13.8891 8.46647 14.0476 8.60158 14.2365 8.61434L14.8316 8.65429C14.7842 8.85369 14.7411 9.03916 14.7025 9.20936C14.0823 11.9459 12.9369 12.4862 11.8368 12.5319C12.4673 8.73032 14.0627 5.2 16.5037 2.20847C16.1287 3.59153 15.6169 5.50531 15.1998 7.15676ZM10.5894 7.51964H11.5369C11.6628 7.51964 11.7825 7.46425 11.8642 7.36825C11.9458 7.27224 11.9812 7.14534 11.9611 7.02097L11.6903 5.35341C11.696 5.34385 11.7019 5.33445 11.7078 5.32488C13.0625 3.12088 14.556 2.02401 15.5703 1.49193C15.8104 1.36588 16.0357 1.265 16.2413 1.18377C14.7627 2.9005 13.5496 4.81949 12.6334 6.89425C11.8514 8.66503 11.2989 10.5194 10.9842 12.4231C10.5162 12.2314 10.2653 11.8212 10.1307 11.4296H10.5701C10.7432 11.4296 10.8993 11.3259 10.9662 11.1664C11.0332 11.0072 10.9981 10.823 10.8771 10.6993L9.99423 9.79766C10.0637 9.09942 10.2635 8.33504 10.5894 7.51964Z" fill="#13BBED"/>
</svg>
