<svg width="22" height="22" viewBox="0 0 22 22" fill="none" xmlns="http://www.w3.org/2000/svg">
<g clip-path="url(#clip0)">
<path d="M2.26954 14.3649C3.94767 12.9605 5.5094 11.632 7.09053 10.3319C7.18753 10.2465 7.38154 10.2465 7.51734 10.256C7.72104 10.275 7.92475 10.3414 8.13815 10.3984C7.81804 9.68666 7.25543 9.55381 6.69282 10.0283C4.98559 11.4612 3.27836 12.8846 1.58083 14.3269C1.38683 14.4883 1.27042 14.754 1.17342 14.9912C0.998819 15.3992 0.872717 15.8168 0.727213 16.2438C0.55261 16.7372 0.630213 16.8321 1.16372 16.8036C1.24132 16.7942 1.31893 16.8036 1.51293 16.8036C1.08612 17.2307 0.717514 17.6007 0.358606 17.9708C0.077301 18.2555 -0.116701 19.0621 0.0870037 19.3658C0.164604 19.4891 0.436209 19.546 0.620512 19.5555C2.53145 19.5745 4.43268 19.565 6.34362 19.565C11.3198 19.565 16.3057 19.565 21.2819 19.5555C21.5341 19.5555 21.99 19.4512 21.99 19.3752C22.0094 18.9577 22.0482 18.4453 21.8348 18.1321C21.5244 17.6767 20.9909 17.3635 20.5641 16.9934C20.6029 16.9555 20.6514 16.908 20.6902 16.8701C20.7096 16.8511 20.729 16.8131 20.7484 16.8131C21.5632 16.8321 21.5341 16.8226 21.311 16.0255C21.02 14.9817 20.4477 14.1941 19.5747 13.5109C18.0905 12.3626 16.6937 11.1195 15.2581 9.91441C14.841 9.5633 14.3657 9.72462 13.9389 10.3604C13.968 10.3699 14.0068 10.3984 14.0165 10.3889C14.7246 9.99981 15.1708 10.4553 15.6461 10.8633C16.9944 12.021 18.3621 13.1503 19.8075 14.3744C16.4803 14.3459 13.6964 15.4277 11.2907 17.7621C11.2907 17.335 11.2907 17.0409 11.2907 16.7372C11.2907 16.4525 11.3198 16.1679 11.2907 15.8832C11.2422 15.4182 11.3295 15.1335 11.8533 14.9153C12.4838 14.6591 12.7457 14.0802 12.6875 13.3685C11.6011 13.3685 10.5244 13.3685 9.45737 13.3685C9.33127 14.0802 9.68048 14.754 10.408 15.0197C10.7378 15.143 10.8154 15.2948 10.8057 15.608C10.7863 16.2817 10.796 16.9555 10.796 17.7526C8.40975 15.4277 5.6355 14.3174 2.26954 14.3649ZM13.3956 18.1416C13.6285 17.9898 13.7352 17.9139 13.8419 17.857C14.0262 17.7621 14.2105 17.6672 14.4045 17.5818C16.0826 16.8985 17.8577 16.7562 19.6523 16.7372C19.7105 16.7372 19.7978 16.7372 19.8366 16.7657C20.2828 17.2022 20.7193 17.6387 21.214 18.1321C18.5852 18.1416 16.0632 18.1416 13.3956 18.1416ZM0.989119 18.1416C0.930918 18.0847 0.882416 18.0183 0.824215 17.9613C1.26072 17.5913 1.69723 17.2212 2.14344 16.8701C2.24044 16.7941 2.40535 16.7372 2.53145 16.7562C3.89917 16.908 5.2863 17.0124 6.63462 17.2591C7.31363 17.3825 7.94415 17.7526 8.59406 18.0088C8.57466 18.0562 8.55526 18.1037 8.53586 18.1606C6.03321 18.1416 3.51116 18.1416 0.989119 18.1416Z" fill="#13BBED"/>
<path d="M9.40858 12.8268C10.495 12.8268 11.5523 12.8268 12.7066 12.8268C12.7066 12.5422 12.6775 12.248 12.7163 11.9633C12.823 11.1472 13.1625 10.4355 13.7155 9.79975C15.4324 7.83547 14.5788 4.86531 12.0955 4.12515C10.592 3.67915 8.96237 4.24851 8.08935 5.51059C7.16784 6.84858 7.25514 8.50921 8.35126 9.76179C8.89447 10.3786 9.25337 11.0713 9.36978 11.8684C9.40858 12.1721 9.39888 12.4947 9.40858 12.8268Z" fill="#13BBED"/>
<path d="M10.8156 2.11465C10.8156 2.3329 10.7962 2.56065 10.8253 2.76941C10.835 2.84533 10.9708 2.9592 11.0484 2.9592C11.126 2.9592 11.2618 2.83584 11.2618 2.76941C11.2812 2.3329 11.2812 1.88691 11.2618 1.4504C11.2618 1.37449 11.1357 1.29857 11.0581 1.22266C10.9708 1.29857 10.835 1.365 10.8156 1.45989C10.7865 1.66865 10.8156 1.8964 10.8156 2.11465Z" fill="#13BBED"/>
<path d="M16.5576 7.64731C16.7516 7.64731 16.9456 7.66629 17.13 7.63782C17.2173 7.62833 17.3628 7.50497 17.3531 7.46702C17.324 7.36263 17.2367 7.2108 17.1591 7.2108C16.7128 7.18234 16.2569 7.18234 15.8107 7.2108C15.7331 7.2108 15.6361 7.37212 15.6167 7.46702C15.607 7.51446 15.7525 7.63782 15.8301 7.64731C16.0726 7.66629 16.3151 7.64731 16.5576 7.64731Z" fill="#13BBED"/>
<path d="M5.57738 7.64533C5.78108 7.64533 6.00418 7.6738 6.19819 7.63584C6.30489 7.61686 6.39219 7.48401 6.47949 7.4081C6.39219 7.33218 6.31459 7.19933 6.21759 7.18984C5.80048 7.17086 5.38337 7.16137 4.96626 7.18984C4.87896 7.19933 4.79166 7.36065 4.71406 7.45554C4.81106 7.52197 4.89836 7.61686 4.99536 7.63584C5.18937 7.6738 5.38337 7.64533 5.57738 7.64533Z" fill="#13BBED"/>
<path d="M15.375 2.94922C15.2877 3.00615 15.1907 3.04411 15.1325 3.11054C14.8706 3.36675 14.5893 3.61347 14.3565 3.88866C14.2789 3.98355 14.2983 4.15436 14.2789 4.28721C14.405 4.26823 14.5796 4.2967 14.6572 4.22079C14.9579 3.96457 15.2392 3.67989 15.5108 3.38573C15.569 3.3193 15.5787 3.18645 15.5593 3.09156C15.5496 3.04411 15.4526 3.00615 15.375 2.94922Z" fill="#13BBED"/>
<path d="M7.77944 4.36286C7.79884 4.23001 7.88614 4.04022 7.82794 3.98328C7.53694 3.65116 7.20713 3.33801 6.87732 3.04384C6.81912 2.9964 6.66392 3.00589 6.57662 3.04384C6.51842 3.07231 6.47962 3.25261 6.50872 3.28108C6.84822 3.63218 7.20713 3.9738 7.55634 4.31541C7.58544 4.33439 7.62424 4.3249 7.77944 4.36286Z" fill="#13BBED"/>
</g>
<defs>
<clipPath id="clip0">
<rect width="22" height="22" fill="white"/>
</clipPath>
</defs>
</svg>
