<svg width="48" height="42" viewBox="0 0 48 42" fill="none" xmlns="http://www.w3.org/2000/svg">
<path d="M43.7816 0.0908203H29.8108C27.4842 0.0908203 25.5914 1.98363 25.5914 4.3102V16.2931L24.4729 20.0215C24.1332 21.1538 24.5209 22.3489 25.4607 23.066C25.9669 23.4523 26.5645 23.6475 27.1648 23.6475C27.679 23.6475 28.1954 23.5042 28.6578 23.2152L31.1517 21.6565H43.7815C46.1081 21.6565 48.0009 19.7637 48.0009 17.4371V4.3102C48.001 1.98363 46.1082 0.0908203 43.7816 0.0908203ZM38.2495 15.6556H35.2491C34.4723 15.6556 33.8426 15.0259 33.8426 14.2492C33.8426 13.4724 34.4723 12.8427 35.2491 12.8427H38.2495C39.0263 12.8427 39.656 13.4724 39.656 14.2492C39.656 15.0259 39.0263 15.6556 38.2495 15.6556ZM40.4999 8.90463H32.9987C32.222 8.90463 31.5923 8.27491 31.5923 7.49817C31.5923 6.72143 32.222 6.09171 32.9987 6.09171H40.4999C41.2766 6.09171 41.9063 6.72143 41.9063 7.49817C41.9063 8.27491 41.2766 8.90463 40.4999 8.90463Z" fill="#13BBED"/>
<path d="M0 35.1592C0.148335 38.9067 3.24189 41.9102 7.02517 41.9102H40.9677C44.751 41.9102 47.8445 38.9067 47.9929 35.1592H0Z" fill="#13BBED"/>
<path d="M14.9963 23.3452C15.8767 23.3452 16.5903 22.6316 16.5903 21.7512C16.5903 20.8709 15.8767 20.1572 14.9963 20.1572C14.116 20.1572 13.4023 20.8709 13.4023 21.7512C13.4023 22.6316 14.116 23.3452 14.9963 23.3452Z" fill="#13BBED"/>
<path d="M12.6523 27.7512V32.3456H17.3405V27.7512C17.3405 27.2625 16.9811 26.9019 16.7666 26.7304C16.3113 26.3661 15.6661 26.1572 14.9964 26.1572C13.7477 26.1572 12.6523 26.9021 12.6523 27.7512Z" fill="#13BBED"/>
<path d="M31.9562 24.4698L30.1466 25.6009C29.2465 26.1635 28.2146 26.4608 27.1626 26.4608C25.9243 26.4608 24.7449 26.0604 23.752 25.3027C22.8342 24.6022 22.1624 23.6566 21.8092 22.568C21.456 21.4794 21.4446 20.3195 21.7763 19.2137L22.7762 15.8808V9.84277H8.05531C5.72875 9.84277 3.83594 11.7356 3.83594 14.0621V30.9396C3.83594 31.4327 3.92173 31.9059 4.07785 32.3461H9.83683V27.7517C9.83683 26.4561 10.4947 25.2895 11.5396 24.4825C10.9439 23.7309 10.5869 22.782 10.5869 21.7508C10.5869 19.3208 12.5639 17.3439 14.9938 17.3439C17.4238 17.3439 19.4007 19.3208 19.4007 21.7508C19.4007 22.7809 19.0445 23.7288 18.4501 24.48C18.4737 24.4982 18.498 24.5157 18.5212 24.5343C19.5569 25.3628 20.1509 26.5355 20.1509 27.7516V32.346H43.9125C44.0686 31.9058 44.1544 31.4326 44.1544 30.9395V24.4716C44.0126 24.4716 31.9562 24.4698 31.9562 24.4698Z" fill="#13BBED"/>
</svg>
