<svg width="14" height="16" viewBox="0 0 14 16" fill="none" xmlns="http://www.w3.org/2000/svg">
<path d="M11.849 6.42991H11.2839V4.39252C11.2839 3.78193 11.1684 3.21495 10.9375 2.69159C10.7188 2.15576 10.4149 1.68847 10.026 1.28972C9.63715 0.890966 9.18142 0.579439 8.65885 0.35514C8.14844 0.11838 7.59549 0 7 0C6.40451 0 5.85156 0.11838 5.34115 0.35514C4.81858 0.579439 4.36285 0.890966 3.97396 1.28972C3.58507 1.68847 3.28125 2.15576 3.0625 2.69159C2.8316 3.21495 2.71615 3.78193 2.71615 4.39252V6.42991H2.15104C1.55556 6.42991 1.04514 6.64798 0.619792 7.08411C0.206597 7.52025 0 8.04984 0 8.6729V13.757C0 14.3801 0.206597 14.9097 0.619792 15.3458C1.04514 15.7819 1.55556 16 2.15104 16H11.849C12.4444 16 12.9488 15.7819 13.362 15.3458C13.7873 14.9097 14 14.3801 14 13.757V8.6729C14 8.04984 13.7873 7.52025 13.362 7.08411C12.9488 6.64798 12.4444 6.42991 11.849 6.42991ZM4.28385 4.39252C4.28385 3.61994 4.54514 2.96573 5.06771 2.42991C5.60243 1.88162 6.24653 1.60748 7 1.60748C7.75347 1.60748 8.39149 1.88162 8.91406 2.42991C9.44878 2.96573 9.71615 3.61994 9.71615 4.39252V6.42991H4.28385V4.39252ZM12.4505 13.757C12.4505 13.757 12.4505 13.7632 12.4505 13.7757C12.4505 13.9377 12.3898 14.081 12.2682 14.2056C12.1467 14.3302 12.0069 14.3988 11.849 14.4112H2.15104C1.99306 14.3988 1.8533 14.3302 1.73177 14.2056C1.61024 14.081 1.54948 13.9377 1.54948 13.7757C1.54948 13.7632 1.54948 13.757 1.54948 13.757V8.6729C1.54948 8.6729 1.54948 8.66667 1.54948 8.65421C1.54948 8.49221 1.61024 8.34891 1.73177 8.2243C1.8533 8.09969 1.99306 8.03115 2.15104 8.01869H11.849C12.0069 8.03115 12.1467 8.09969 12.2682 8.2243C12.3898 8.34891 12.4505 8.49221 12.4505 8.65421C12.4505 8.66667 12.4505 8.6729 12.4505 8.6729V13.757ZM7 12.8037C6.57465 12.8037 6.21007 12.648 5.90625 12.3364C5.60243 12.0249 5.45052 11.6511 5.45052 11.215C5.45052 10.7788 5.60243 10.405 5.90625 10.0935C6.21007 9.78193 6.57465 9.62617 7 9.62617C7.42535 9.62617 7.78993 9.78193 8.09375 10.0935C8.39757 10.405 8.54948 10.7788 8.54948 11.215C8.54948 11.6511 8.39757 12.0249 8.09375 12.3364C7.78993 12.648 7.42535 12.8037 7 12.8037Z" fill="#3B3759"/>
</svg>
