<svg width="65" height="39" viewBox="0 0 65 39" fill="none" xmlns="http://www.w3.org/2000/svg">
<path d="M65 19.5C65 30.2 56.3 39 45.5 39C34.8 39 26 30.2 26 19.5C26 8.8 34.7 0 45.4 0C56.3 0 65 8.8 65 19.5Z" fill="#F9B50B"/>
<path d="M38.9 19.6C38.9 18.2 38.7 16.8 38.5 15.5H26.5C26.6 14.8 26.8 14.2 27 13.4H37.7C37.5 12.7 37.2 12 36.9 11.3H27.8C28.1 10.6 28.5 10 28.9 9.2H35.8C35.4 8.5 34.9 7.8 34.3 7.1H30.5C31.1 6.4 31.7 5.8 32.5 5.1C29.1 1.9 24.5 0 19.4 0C8.8 0.3 0 8.8 0 19.5C0 30.2 8.7 39 19.5 39C24.6 39 29.1 37 32.6 33.9C33.3 33.3 33.9 32.6 34.6 31.8H30.6C30.1 31.2 29.6 30.5 29.2 29.8H36C36.4 29.2 36.8 28.5 37.1 27.7H28C27.7 27.1 27.4 26.4 27.2 25.6H37.9C38.5 23.8 38.9 21.8 38.9 19.6Z" fill="#C8191C"/>
<path d="M26.4004 24.5004L26.7004 22.7004C26.6004 22.7004 26.4004 22.8004 26.2004 22.8004C25.5004 22.8004 25.4004 22.4004 25.5004 22.2004L26.1004 18.6004H27.2004L27.5004 16.6004H26.5004L26.7004 15.4004H24.6004C24.6004 15.4004 23.4004 22.2004 23.4004 23.0004C23.4004 24.2004 24.1004 24.8004 25.1004 24.8004C25.7004 24.8004 26.2004 24.6004 26.4004 24.5004Z" fill="white"/>
<path d="M27.0996 21.1996C27.0996 24.0996 29.0996 24.7996 30.6996 24.7996C32.1996 24.7996 32.8996 24.4996 32.8996 24.4996L33.2996 22.4996C33.2996 22.4996 32.1996 22.9996 31.0996 22.9996C28.7996 22.9996 29.1996 21.2996 29.1996 21.2996H33.3996C33.3996 21.2996 33.6996 19.9996 33.6996 19.3996C33.6996 18.0996 32.9996 16.3996 30.6996 16.3996C28.6996 16.2996 27.0996 18.5996 27.0996 21.1996ZM30.6996 18.1996C31.7996 18.1996 31.5996 19.4996 31.5996 19.5996H29.2996C29.3996 19.4996 29.5996 18.1996 30.6996 18.1996Z" fill="white"/>
<path d="M43.7996 24.5004L44.1996 22.2004C44.1996 22.2004 43.1996 22.7004 42.3996 22.7004C40.9996 22.7004 40.2996 21.6004 40.2996 20.3004C40.2996 17.8004 41.4996 16.5004 42.9996 16.5004C43.9996 16.5004 44.8996 17.1004 44.8996 17.1004L45.1996 14.9004C45.1996 14.9004 43.9996 14.4004 42.7996 14.4004C40.3996 14.4004 38.0996 16.5004 38.0996 20.4004C38.0996 23.0004 39.2996 24.7004 41.7996 24.7004C42.6996 24.8004 43.7996 24.5004 43.7996 24.5004Z" fill="white"/>
<path d="M15.1002 16.3008C13.7002 16.3008 12.6002 16.7008 12.6002 16.7008L12.3002 18.5008C12.3002 18.5008 13.2002 18.1008 14.6002 18.1008C15.3002 18.1008 15.9002 18.2008 15.9002 18.8008C15.9002 19.2008 15.8002 19.3008 15.8002 19.3008H14.9002C13.1002 19.3008 11.2002 20.0008 11.2002 22.4008C11.2002 24.3008 12.4002 24.7008 13.2002 24.7008C14.6002 24.7008 15.3002 23.8008 15.4002 23.8008L15.3002 24.6008H17.0002L17.8002 18.9008C17.8002 16.4008 15.8002 16.3008 15.1002 16.3008ZM15.5002 20.9008C15.5002 21.2008 15.3002 22.9008 14.1002 22.9008C13.5002 22.9008 13.3002 22.4008 13.3002 22.1008C13.3002 21.6008 13.6002 20.9008 15.2002 20.9008C15.4002 20.9008 15.5002 20.9008 15.5002 20.9008Z" fill="white"/>
<path d="M19.7998 24.6992C20.2998 24.6992 22.8998 24.7992 22.8998 21.9992C22.8998 19.3992 20.3998 19.8992 20.3998 18.8992C20.3998 18.3992 20.7998 18.1992 21.4998 18.1992C21.7998 18.1992 22.8998 18.2992 22.8998 18.2992L23.1998 16.3992C23.1998 16.3992 22.4998 16.1992 21.1998 16.1992C19.6998 16.1992 18.0998 16.7992 18.0998 18.8992C18.0998 21.2992 20.6998 21.0992 20.6998 21.9992C20.6998 22.5992 19.9998 22.6992 19.4998 22.6992C18.5998 22.6992 17.5998 22.3992 17.5998 22.3992L17.2998 24.2992C17.4998 24.4992 18.0998 24.6992 19.7998 24.6992Z" fill="white"/>
<path d="M60.9996 14.6992L60.5996 17.4992C60.5996 17.4992 59.7996 16.4992 58.5996 16.4992C56.6996 16.4992 55.0996 18.7992 55.0996 21.4992C55.0996 23.1992 55.8996 24.8992 57.6996 24.8992C58.8996 24.8992 59.6996 24.0992 59.6996 24.0992L59.5996 24.7992H61.6996L63.1996 14.8992L60.9996 14.6992ZM59.9996 20.0992C59.9996 21.1992 59.4996 22.6992 58.2996 22.6992C57.5996 22.6992 57.1996 22.0992 57.1996 20.9992C57.1996 19.2992 57.8996 18.2992 58.8996 18.2992C59.5996 18.3992 59.9996 18.8992 59.9996 20.0992Z" fill="white"/>
<path d="M3.7998 24.5992L4.9998 17.1992L5.1998 24.5992H6.5998L9.2998 17.1992L8.1998 24.5992H10.3998L12.0998 14.6992H8.6998L6.5998 20.7992L6.4998 14.6992H3.4998L1.7998 24.5992H3.7998Z" fill="white"/>
<path d="M35.8 24.6C36.4 21.2 36.5 18.4 38 18.9C38.2 17.6 38.5 17 38.7 16.5H38.3C37.4 16.5 36.6 17.7 36.6 17.7L36.8 16.6H34.8L33.5 24.6H35.8Z" fill="white"/>
<path d="M48.6002 16.3008C47.2002 16.3008 46.1002 16.7008 46.1002 16.7008L45.8002 18.5008C45.8002 18.5008 46.7002 18.1008 48.1002 18.1008C48.8002 18.1008 49.4002 18.2008 49.4002 18.8008C49.4002 19.2008 49.3002 19.3008 49.3002 19.3008H48.4002C46.6002 19.3008 44.7002 20.0008 44.7002 22.4008C44.7002 24.3008 45.9002 24.7008 46.7002 24.7008C48.1002 24.7008 48.8002 23.8008 48.9002 23.8008L48.8002 24.6008H50.7002L51.5002 18.9008C51.5002 16.4008 49.3002 16.3008 48.6002 16.3008ZM49.1002 20.9008C49.1002 21.2008 48.9002 22.9008 47.7002 22.9008C47.1002 22.9008 46.9002 22.4008 46.9002 22.1008C46.9002 21.6008 47.2002 20.9008 48.8002 20.9008C49.0002 20.9008 49.0002 20.9008 49.1002 20.9008Z" fill="white"/>
<path d="M53.0998 24.6C53.6998 21.2 53.7998 18.4 55.2998 18.9C55.4998 17.6 55.7998 17 55.9998 16.5H55.5998C54.6998 16.5 53.8998 17.7 53.8998 17.7L54.0998 16.6H52.0998L50.7998 24.6H53.0998Z" fill="white"/>
</svg>
