<svg width="20" height="20" viewBox="0 0 20 20" fill="none" xmlns="http://www.w3.org/2000/svg">
<path fill-rule="evenodd" clip-rule="evenodd" d="M9.81443 11.2207C9.25693 11.2207 8.7011 11.0365 8.2361 10.6682L4.4986 7.65484C4.22943 7.43817 4.18777 7.044 4.4036 6.77567C4.6211 6.50817 5.01443 6.46567 5.28277 6.6815L9.01693 9.6915C9.4861 10.0632 10.1469 10.0632 10.6194 9.68817L14.3161 6.68317C14.5844 6.464 14.9778 6.50567 15.1961 6.774C15.4136 7.0415 15.3728 7.43484 15.1053 7.65317L11.4019 10.6632C10.9336 11.0348 10.3736 11.2207 9.81443 11.2207Z" fill="#3B3759"/>
<mask id="mask0" mask-type="alpha" maskUnits="userSpaceOnUse" x="0" y="1" width="19" height="17">
<path fill-rule="evenodd" clip-rule="evenodd" d="M0.833984 1.66667H18.7506V17.9167H0.833984V1.66667Z" fill="white"/>
</mask>
<g mask="url(#mask0)">
<path fill-rule="evenodd" clip-rule="evenodd" d="M5.69982 16.6667H13.8832C13.8848 16.665 13.8915 16.6667 13.8965 16.6667C14.8473 16.6667 15.6907 16.3267 16.3373 15.6808C17.0882 14.9333 17.5007 13.8592 17.5007 12.6567V6.93333C17.5007 4.60583 15.979 2.91667 13.8832 2.91667H5.70148C3.60565 2.91667 2.08398 4.60583 2.08398 6.93333V12.6567C2.08398 13.8592 2.49732 14.9333 3.24732 15.6808C3.89398 16.3267 4.73815 16.6667 5.68815 16.6667H5.69982ZM5.68565 17.9167C4.39982 17.9167 3.25148 17.45 2.36482 16.5667C1.37732 15.5817 0.833984 14.1933 0.833984 12.6567V6.93333C0.833984 3.93083 2.92648 1.66667 5.70148 1.66667H13.8832C16.6582 1.66667 18.7507 3.93083 18.7507 6.93333V12.6567C18.7507 14.1933 18.2073 15.5817 17.2198 16.5667C16.334 17.4492 15.1848 17.9167 13.8965 17.9167H13.8832H5.70148H5.68565Z" fill="#3B3759"/>
</g>
</svg>
