<svg width="20" height="20" viewBox="0 0 20 20" fill="none" xmlns="http://www.w3.org/2000/svg">
<path fill-rule="evenodd" clip-rule="evenodd" d="M14.5736 1.66669C15.8153 1.66669 17.0097 2.15743 17.8884 3.03798C18.7681 3.91669 19.2597 5.10187 19.2597 6.34261V13.6574C19.2597 16.2408 17.1579 18.3334 14.5736 18.3334H5.4264C2.84214 18.3334 0.741211 16.2408 0.741211 13.6574V6.34261C0.741211 3.75928 2.83288 1.66669 5.4264 1.66669H14.5736ZM16.0469 7.72223L16.1209 7.64816C16.3422 7.37964 16.3422 6.99075 16.1108 6.72223C15.982 6.58427 15.8052 6.50001 15.6209 6.48149C15.4265 6.47131 15.2413 6.53705 15.1015 6.66668L10.9265 10C10.3895 10.4454 9.62001 10.4454 9.07464 10L4.90798 6.66668C4.62001 6.45372 4.22186 6.48149 3.98205 6.73149C3.73205 6.98149 3.70427 7.37964 3.91631 7.65742L4.03761 7.77779L8.25057 11.0648C8.76909 11.4722 9.39779 11.6945 10.0561 11.6945C10.7126 11.6945 11.3524 11.4722 11.87 11.0648L16.0469 7.72223Z" fill="#13BBED"/>
</svg>
