<svg width="545" height="104" viewBox="0 0 545 104" fill="none" xmlns="http://www.w3.org/2000/svg">
<path d="M3.15211 41.6H0V62.4H3.15211V41.6Z" fill="#898796"/>
<path d="M11.6638 48.2181H8.51172V55.7818H11.6638V48.2181Z" fill="#898796"/>
<path d="M20.1755 49.1636H17.0234V54.8363H20.1755V49.1636Z" fill="#898796"/>
<path d="M96.1404 49.1636H92.9883V54.8363H96.1404V49.1636Z" fill="#898796"/>
<path d="M28.6834 50.1091H25.5312V53.8909H28.6834V50.1091Z" fill="#898796"/>
<path d="M37.0388 41.2848H33.8867V62.8727H37.0388V41.2848Z" fill="#898796"/>
<path d="M45.5466 30.2545H42.3945V73.7454H45.5466V30.2545Z" fill="#898796"/>
<path d="M54.0584 4.72729H50.9062V99.2728H54.0584V4.72729Z" fill="#898796"/>
<path d="M62.5701 34.0364H59.418V69.9637H62.5701V34.0364Z" fill="#898796"/>
<path d="M71.0818 42.5454H67.9297V61.4545H71.0818V42.5454Z" fill="#898796"/>
<path d="M79.5896 34.0364H76.4375V69.9637H79.5896V34.0364Z" fill="#898796"/>
<path d="M88.1013 46.3273H84.9492V57.6727H88.1013V46.3273Z" fill="#898796"/>
<path d="M104.965 46.3273H101.812V57.6727H104.965V46.3273Z" fill="#898796"/>
<path d="M113.476 34.9818H110.324V69.0182H113.476V34.9818Z" fill="#898796"/>
<path d="M173.367 46.7999H170.215V57.3575H173.367V46.7999Z" fill="#898796"/>
<path d="M182.191 41.4425H179.039V62.4001H182.191V41.4425Z" fill="#898796"/>
<path d="M190.703 50.2667H187.551V53.7334H190.703V50.2667Z" fill="#898796"/>
<path d="M121.988 20.7999H118.836V83.1999H121.988V20.7999Z" fill="#898796"/>
<path d="M130.5 39.7091H127.348V64.2909H130.5V39.7091Z" fill="#898796"/>
<path d="M139.008 46.3273H135.855V57.6727H139.008V46.3273Z" fill="#898796"/>
<path d="M147.519 49.1636H144.367V54.8363H147.519V49.1636Z" fill="#898796"/>
<path d="M199.527 41.4425H196.375V62.4001H199.527V41.4425Z" fill="#898796"/>
<path d="M208.039 20.4849H204.887V83.5152H208.039V20.4849Z" fill="#898796"/>
<path d="M216.551 14.1818H213.398V89.8181H216.551V14.1818Z" fill="#898796"/>
<path d="M225.062 0H221.91V104H225.062V0Z" fill="#898796"/>
<path d="M233.57 14.1818H230.418V89.8181H233.57V14.1818Z" fill="#898796"/>
<path d="M242.082 25.2122H238.93V78.7879H242.082V25.2122Z" fill="#898796"/>
<path d="M156.031 34.9818H152.879V69.0182H156.031V34.9818Z" fill="#898796"/>
<path d="M164.539 44.4363H161.387V59.5635H164.539V44.4363Z" fill="#898796"/>
<path d="M252.168 32.7758H249.016V71.2242H252.168V32.7758Z" fill="#898796"/>
<path d="M260.679 39.3939H257.527V64.606H260.679V39.3939Z" fill="#898796"/>
<path d="M269.191 49.1636H266.039V54.8363H269.191V49.1636Z" fill="#898796"/>
<path d="M345.156 42.5454H342.004V61.4545H345.156V42.5454Z" fill="#898796"/>
<path d="M277.699 50.1091H274.547V53.8909H277.699V50.1091Z" fill="#898796"/>
<path d="M535.543 49.1636H532.391V54.8363H535.543V49.1636Z" fill="#898796"/>
<path d="M525.457 39.7091H522.305V64.2909H525.457V39.7091Z" fill="#898796"/>
<path d="M508.433 49.1636H505.281V54.8363H508.433V49.1636Z" fill="#898796"/>
<path d="M286.054 41.2848H282.902V62.8727H286.054V41.2848Z" fill="#898796"/>
<path d="M294.566 30.2545H291.414V73.7454H294.566V30.2545Z" fill="#898796"/>
<path d="M303.074 39.7091H299.922V64.2909H303.074V39.7091Z" fill="#898796"/>
<path d="M311.586 34.0364H308.434V69.9637H311.586V34.0364Z" fill="#898796"/>
<path d="M320.097 20.7999H316.945V83.1999H320.097V20.7999Z" fill="#898796"/>
<path d="M328.609 24.5818H325.457V79.4182H328.609V24.5818Z" fill="#898796"/>
<path d="M337.117 30.2545H333.965V73.7454H337.117V30.2545Z" fill="#898796"/>
<path d="M353.98 24.5818H350.828V79.4182H353.98V24.5818Z" fill="#898796"/>
<path d="M362.492 14.1818H359.34V89.8181H362.492V14.1818Z" fill="#898796"/>
<path d="M422.383 49.1636H419.23V54.8363H422.383V49.1636Z" fill="#898796"/>
<path d="M431.207 46.3273H428.055V57.6727H431.207V46.3273Z" fill="#898796"/>
<path d="M439.719 51.0546H436.566V52.9455H439.719V51.0546Z" fill="#898796"/>
<path d="M545 51.0546H541.848V52.9455H545V51.0546Z" fill="#898796"/>
<path d="M516.633 46.3273H513.48V57.6727H516.633V46.3273Z" fill="#898796"/>
<path d="M499.297 51.0546H496.145V52.9455H499.297V51.0546Z" fill="#898796"/>
<path d="M371.004 0H367.852V104H371.004V0Z" fill="#898796"/>
<path d="M379.515 24.5818H376.363V79.4182H379.515V24.5818Z" fill="#898796"/>
<path d="M388.023 34.9818H384.871V69.0182H388.023V34.9818Z" fill="#898796"/>
<path d="M396.535 44.4363H393.383V59.5635H396.535V44.4363Z" fill="#898796"/>
<path d="M448.547 46.3273H445.395V57.6727H448.547V46.3273Z" fill="#898796"/>
<path d="M457.054 34.9818H453.902V69.0182H457.054V34.9818Z" fill="#898796"/>
<path d="M465.566 45.3818H462.414V58.6182H465.566V45.3818Z" fill="#898796"/>
<path d="M474.078 39.7091H470.926V64.2909H474.078V39.7091Z" fill="#898796"/>
<path d="M482.59 46.3273H479.438V57.6727H482.59V46.3273Z" fill="#898796"/>
<path d="M491.097 49.1636H487.945V54.8363H491.097V49.1636Z" fill="#898796"/>
<path d="M405.047 34.9818H401.895V69.0182H405.047V34.9818Z" fill="#898796"/>
<path d="M413.558 44.4363H410.406V59.5635H413.558V44.4363Z" fill="#898796"/>
</svg>
