<svg width="150" height="150" viewBox="0 0 150 150" fill="none" xmlns="http://www.w3.org/2000/svg">
<path d="M123 77.4706C123 74.4706 120.706 72.1765 117.706 72.1765C114.706 72.1765 112.412 74.4706 112.412 77.4706C112.412 98.1177 95.647 114.882 75 114.882C54.3529 114.882 37.5882 98.1177 37.5882 77.4706C37.5882 74.4706 35.2941 72.1765 32.2941 72.1765C29.2941 72.1765 27 74.4706 27 77.4706C27 102 45.3529 122.647 69.7059 125.294V139.412H50.4706C47.4706 139.412 45.1765 141.706 45.1765 144.706C45.1765 147.706 47.4706 150 50.4706 150H99.5294C102.529 150 104.823 147.706 104.823 144.706C104.823 141.706 102.529 139.412 99.5294 139.412H80.2941V125.294C104.647 122.647 123 102 123 77.4706Z" fill="#5B5876"/>
<path d="M74.9999 0C58.7646 0 45.5293 13.2353 45.5293 29.4706V77.2941C45.5293 93.7059 58.7646 106.765 74.9999 106.941C91.2352 106.941 104.471 93.7059 104.471 77.4706V29.4706C104.471 13.2353 91.2352 0 74.9999 0Z" fill="#5B5876"/>
</svg>
