<svg width="30" height="30" viewBox="0 0 30 30" fill="none" xmlns="http://www.w3.org/2000/svg">
<path d="M8.75 13.75H11.25V16.25H8.75V13.75ZM8.75 18.75H11.25V21.25H8.75V18.75ZM13.75 13.75H16.25V16.25H13.75V13.75ZM13.75 18.75H16.25V21.25H13.75V18.75ZM18.75 13.75H21.25V16.25H18.75V13.75ZM18.75 18.75H21.25V21.25H18.75V18.75Z" fill="#2AC2E9"/>
<path d="M4.88889 30H25.1111C26.7043 30 28 28.6545 28 27V6C28 4.3455 26.7043 3 25.1111 3H22.2222V0H19.3333V3H10.6667V0H7.77778V3H4.88889C3.29567 3 2 4.3455 2 6V27C2 28.6545 3.29567 30 4.88889 30ZM25.1111 9L25.1126 27H4.88889V9H25.1111Z" fill="#2AC2E9"/>
</svg>
