<svg width="30" height="30" viewBox="0 0 30 30" fill="none" xmlns="http://www.w3.org/2000/svg">
<path d="M15 15.1683C12.7756 13.1237 9.96444 11.6924 6.83556 11.1392C5.35667 10.8866 4 12.0412 4 13.5206V21.8435C4 23.0462 4.88 24.1046 6.09 24.249C8.84 24.5857 11.37 25.596 13.5089 27.1235C14.4011 27.7609 15.5867 27.7609 16.4911 27.1235C18.6769 25.5627 21.2296 24.5736 23.91 24.249C25.12 24.0926 26 23.0342 26 21.8435V13.5206C26 12.0412 24.6433 10.8746 23.1644 11.1392C20.0356 11.6924 17.2244 13.1237 15 15.1683Z" fill="#13BBED"/>
<path opacity="0.7" d="M14.9996 12.2008C17.4306 12.2008 19.3996 9.98566 19.3996 7.25078C19.3996 4.51591 17.4306 2.30078 14.9996 2.30078C12.5686 2.30078 10.5996 4.51591 10.5996 7.25078C10.5996 9.98566 12.5686 12.2008 14.9996 12.2008Z" fill="#13BBED"/>
</svg>
