<svg width="16" height="4" viewBox="0 0 16 4" fill="none" xmlns="http://www.w3.org/2000/svg">
<path d="M4 2C4 2.39556 3.8827 2.78224 3.66294 3.11114C3.44318 3.44004 3.13082 3.69638 2.76537 3.84776C2.39992 3.99913 1.99778 4.03874 1.60982 3.96157C1.22186 3.8844 0.865492 3.69392 0.585787 3.41421C0.306082 3.13451 0.115601 2.77814 0.0384303 2.39018C-0.0387401 2.00222 0.000866562 1.60009 0.152242 1.23463C0.303617 0.869181 0.559963 0.556824 0.888861 0.337061C1.21776 0.117298 1.60444 0 2 0C2.53043 0 3.03914 0.210714 3.41421 0.585787C3.78929 0.96086 4 1.46957 4 2Z" fill="#FF9457"/>
<path d="M10 2C10 2.39556 9.8827 2.78224 9.66294 3.11114C9.44318 3.44004 9.13082 3.69638 8.76537 3.84776C8.39992 3.99913 7.99778 4.03874 7.60982 3.96157C7.22186 3.8844 6.86549 3.69392 6.58579 3.41421C6.30608 3.13451 6.1156 2.77814 6.03843 2.39018C5.96126 2.00222 6.00087 1.60009 6.15224 1.23463C6.30362 0.869181 6.55996 0.556824 6.88886 0.337061C7.21776 0.117298 7.60444 0 8 0C8.53043 0 9.03914 0.210714 9.41421 0.585787C9.78929 0.96086 10 1.46957 10 2Z" fill="#FF9457"/>
<path d="M14 4C14.3956 4 14.7822 3.8827 15.1111 3.66294C15.44 3.44318 15.6964 3.13082 15.8478 2.76537C15.9991 2.39992 16.0387 1.99778 15.9616 1.60982C15.8844 1.22186 15.6939 0.865493 15.4142 0.585788C15.1345 0.306083 14.7781 0.115601 14.3902 0.0384303C14.0022 -0.0387401 13.6001 0.000866562 13.2346 0.152242C12.8692 0.303617 12.5568 0.559963 12.3371 0.888861C12.1173 1.21776 12 1.60444 12 2C12 2.53043 12.2107 3.03914 12.5858 3.41421C12.9609 3.78929 13.4696 4 14 4Z" fill="#FF9457"/>
</svg>
