<svg width="48" height="42" viewBox="0 0 48 42" fill="none" xmlns="http://www.w3.org/2000/svg">
<path d="M47.7114 21.6618C47.1922 20.7388 45.9807 20.3926 44.9999 20.9695L38.4231 24.7772L36.75 25.758V34.8732L38.3077 35.7963C38.3654 35.7963 38.3654 35.854 38.4231 35.854L44.8845 39.604C45.173 39.8347 45.5768 39.9501 45.9807 39.9501C47.0768 39.9501 47.9422 39.0847 47.9422 37.9886V30.2579L47.9999 22.6426C47.9999 22.2965 47.9422 21.9503 47.7114 21.6618Z" fill="#FF9457"/>
<path d="M9.28894 18.7203C14.4235 18.7203 18.5773 14.5665 18.5773 9.43191C18.5773 4.29735 14.4235 0.143555 9.28894 0.143555C4.15438 0.143555 0.000585749 4.29735 0.000585749 9.43191C-0.0571059 14.5665 4.15438 18.7203 9.28894 18.7203ZM9.28894 5.62426C11.4235 5.62426 13.0966 7.35501 13.0966 9.43191C13.0966 11.5665 11.3658 13.2396 9.28894 13.2396C7.21204 13.2396 5.48129 11.5088 5.48129 9.43191C5.4236 7.29732 7.15435 5.62426 9.28894 5.62426Z" fill="#FF9457"/>
<path d="M32.8277 19.239C31.3278 19.989 29.6547 20.4506 27.8663 20.4506C25.674 20.4506 23.5971 19.8159 21.8663 18.6621H15.2895C13.5588 19.8159 11.4819 20.4506 9.28957 20.4506C7.50113 20.4506 5.82808 20.0467 4.3281 19.239C3.00119 19.989 2.07812 21.489 2.07812 23.1044V37.1811C2.07812 39.7772 4.21271 41.8541 6.75114 41.8541H30.4624C33.0585 41.8541 35.1354 39.7195 35.1354 37.1811V23.1044C35.0777 21.489 34.1546 19.989 32.8277 19.239Z" fill="#FF9457"/>
<path d="M27.8665 18.7203C33.001 18.7203 37.1548 14.5665 37.1548 9.43191C37.1548 4.29735 33.001 0.143555 27.8665 0.143555C22.7319 0.143555 18.5781 4.29735 18.5781 9.43191C18.5781 14.5665 22.7319 18.7203 27.8665 18.7203ZM27.8665 5.62426C30.0011 5.62426 31.6741 7.35501 31.6741 9.43191C31.6741 11.5665 29.9434 13.2396 27.8665 13.2396C25.7896 13.2396 24.0588 11.5088 24.0588 9.43191C24.0588 7.29732 25.7319 5.62426 27.8665 5.62426Z" fill="#FF9457"/>
</svg>
