<svg width="24" height="24" viewBox="0 0 24 24" fill="none" xmlns="http://www.w3.org/2000/svg">
<path opacity="0.7" d="M12 12C13.6485 12 15.076 11.4087 16.2424 10.2421C17.4087 9.07574 18 7.64858 18 5.99981C18 4.35161 17.4087 2.92426 16.2422 1.75748C15.0756 0.591276 13.6483 0 12 0C10.3513 0 8.92417 0.591276 7.75781 1.75767C6.59145 2.92407 6 4.35142 6 5.99981C6 7.64858 6.59145 9.07593 7.758 10.2423C8.92455 11.4085 10.3519 12 12 12V12Z" fill="#A5BEE2"/>
<path d="M21.9515 18.6367C21.9192 18.1844 21.8537 17.691 21.7573 17.17C21.66 16.645 21.5347 16.1488 21.3848 15.6953C21.2298 15.2265 21.0191 14.7636 20.7587 14.32C20.4884 13.8595 20.1709 13.4586 19.8146 13.1286C19.4421 12.7835 18.9859 12.506 18.4585 12.3035C17.9328 12.1022 17.3503 12.0002 16.7272 12.0002C16.4825 12.0002 16.2458 12.0974 15.7888 12.3855C15.5075 12.5632 15.1785 12.7686 14.8112 12.9958C14.4972 13.1896 14.0718 13.3711 13.5464 13.5354C13.0337 13.696 12.5132 13.7775 11.9995 13.7775C11.4857 13.7775 10.9654 13.696 10.4522 13.5354C9.92728 13.3713 9.50187 13.1897 9.18821 12.996C8.82444 12.7709 8.49524 12.5655 8.20974 12.3854C7.75324 12.0972 7.5164 12 7.27169 12C6.64839 12 6.06606 12.1022 5.54061 12.3037C5.01352 12.5058 4.5572 12.7833 4.18428 13.1288C3.82819 13.4589 3.51051 13.8597 3.24056 14.32C2.9803 14.7636 2.76961 15.2263 2.61452 15.6955C2.46473 16.149 2.33945 16.645 2.24215 17.17C2.14577 17.6903 2.08029 18.1838 2.04792 18.6372C2.01609 19.0813 2 19.5423 2 20.0079C2 21.2196 2.39779 22.2005 3.18222 22.924C3.95695 23.6378 4.98206 24 6.22865 24H17.7713C19.0179 24 20.0427 23.638 20.8176 22.924C21.6022 22.2011 22 21.22 22 20.0077C21.9998 19.54 21.9835 19.0787 21.9515 18.6367V18.6367Z" fill="#A5BEE2"/>
</svg>
