<svg width="24" height="24" viewBox="0 0 24 24" fill="none" xmlns="http://www.w3.org/2000/svg">
<circle cx="12" cy="12" r="12" fill="#EB5757"/>
<path d="M15.2898 14.0518L13.5107 12.2738L15.2888 10.4958C15.6308 10.1548 15.6308 9.59975 15.2888 9.25875C14.9468 8.91475 14.3938 8.91575 14.0518 9.25775L12.2727 11.0358L10.4937 9.25575C10.1517 8.91375 9.59775 8.91575 9.25575 9.25575C8.91475 9.59775 8.91475 10.1528 9.25575 10.4938L11.0357 12.2738L9.25975 14.0488C8.91775 14.3908 8.91775 14.9458 9.25975 15.2858C9.43075 15.4578 9.65375 15.5428 9.87775 15.5428C10.1027 15.5428 10.3257 15.4578 10.4967 15.2868L12.2727 13.5108L14.0528 15.2898C14.2238 15.4608 14.4468 15.5458 14.6708 15.5458C14.8948 15.5458 15.1188 15.4598 15.2898 15.2898C15.6318 14.9478 15.6318 14.3938 15.2898 14.0518Z" fill="white"/>
</svg>
