<svg width="17" height="17" viewBox="0 0 17 17" fill="none" xmlns="http://www.w3.org/2000/svg">
<path d="M15.8123 0.145518C15.6909 0.037822 15.5297 -0.0138495 15.3683 0.0031957L5.08085 1.14623C4.79128 1.17828 4.57217 1.42301 4.57221 1.71432V11.8989C4.05402 11.5895 3.46115 11.4274 2.85764 11.4302C1.28194 11.4302 0 12.4556 0 13.7163C0 14.9771 1.28194 16.0024 2.8576 16.0024C4.43327 16.0024 5.71521 14.9771 5.71521 13.7163V5.08632L14.8596 4.06729V10.7541C14.3412 10.4453 13.7484 10.2839 13.145 10.2872C11.5693 10.2872 10.2874 11.3125 10.2874 12.5733C10.2874 13.8341 11.5694 14.8594 13.145 14.8594C14.7207 14.8594 16.0026 13.8341 16.0026 12.5733V0.571314C16.0026 0.408765 15.9334 0.253918 15.8123 0.145518ZM2.8576 14.8594C1.92832 14.8594 1.14304 14.3359 1.14304 13.7163C1.14304 13.0968 1.92832 12.5733 2.8576 12.5733C3.78689 12.5733 4.57217 13.0968 4.57217 13.7163C4.57217 14.3359 3.78692 14.8594 2.8576 14.8594ZM13.145 13.7163C12.2157 13.7163 11.4305 13.1928 11.4305 12.5733C11.4305 11.9538 12.2157 11.4303 13.145 11.4303C14.0743 11.4303 14.8596 11.9538 14.8596 12.5733C14.8596 13.1928 14.0743 13.7163 13.145 13.7163ZM14.8596 2.91739L5.71521 3.93358V2.22872L14.8596 1.20969V2.91739Z" fill="#3B3759"/>
</svg>
