<svg width="20" height="20" viewBox="0 0 20 20" fill="none" xmlns="http://www.w3.org/2000/svg">
<path d="M15.625 0H4.375C1.95875 0 0 1.95875 0 4.375V15.625C0 18.0413 1.95875 20 4.375 20H15.625C18.0413 20 20 18.0413 20 15.625V4.375C20 1.95875 18.0413 0 15.625 0Z" fill="#C8414B"/>
<path d="M20 4.16522H0V15.8348H20V4.16522Z" fill="#FFD250"/>
<path d="M8.71433 10.0161L9.03679 8.70105C9.06648 8.57996 8.9648 8.46507 8.82792 8.46507H8.60078C8.4639 8.46507 8.36218 8.57996 8.39191 8.70105L8.71433 10.0161Z" fill="#C8414B"/>
<path d="M9.09465 9.32657H8.33398V12.2563H9.09465V9.32657Z" fill="#F5F5F5"/>
<path d="M9.28506 8.98203H8.14404V9.32667H9.28506V8.98203Z" fill="#FAB446"/>
<path d="M9.2849 10.016H7.3833V10.3607H9.2849V10.016Z" fill="#C8414B"/>
<path d="M9.28502 11.3948L8.14404 11.0501V10.7054L9.28502 11.0501V11.3948Z" fill="#C8414B"/>
<path d="M3.00974 10.0161L3.3322 8.70105C3.36189 8.57996 3.26021 8.46507 3.12334 8.46507H2.89619C2.75931 8.46507 2.65759 8.57996 2.68732 8.70105L3.00974 10.0161Z" fill="#C8414B"/>
<path d="M4.34076 8.98207C4.13072 8.98207 3.96045 9.13637 3.96045 9.32676V11.5671C3.96045 11.9859 4.39174 12.7734 5.86209 12.7734C7.33244 12.7734 7.76373 11.9859 7.76373 11.5671V9.32676C7.76373 9.13641 7.59346 8.98207 7.38342 8.98207H4.34076Z" fill="#F5F5F5"/>
<path d="M5.86209 10.7054H3.96045V9.34414C3.96045 9.14418 4.12256 8.98207 4.32252 8.98207H5.86209V10.7054Z" fill="#C8414B"/>
<path d="M5.8623 10.7054H7.76394V11.5236C7.76394 12.0235 7.35871 12.4288 6.85879 12.4288H6.76746C6.26758 12.4288 5.8623 12.0236 5.8623 11.5236V10.7054Z" fill="#C8414B"/>
<path d="M3.96045 10.7054H5.86209V11.5236C5.86209 12.0235 5.45685 12.4288 4.95693 12.4288H4.8656C4.36572 12.4288 3.96045 12.0236 3.96045 11.5236C3.96045 11.5236 3.96045 10.7054 3.96045 10.7054Z" fill="#FAB446"/>
<path d="M5.48188 12.2525V10.7054H5.10156V12.4114C5.24297 12.3853 5.37082 12.3286 5.48188 12.2525Z" fill="#C8414B"/>
<path d="M4.72113 12.4114V10.7054H4.34082V12.2525C4.45187 12.3286 4.57969 12.3853 4.72113 12.4114Z" fill="#C8414B"/>
<path d="M5.48135 10.016H4.34033V10.3607H5.48135V10.016Z" fill="#FFB441"/>
<path d="M5.48135 9.32657H4.34033V9.67126H5.48135V9.32657Z" fill="#FAB446"/>
<path d="M5.29094 9.53165H4.53027V10.1561H5.29094V9.53165Z" fill="#FAB446"/>
<path d="M3.39006 9.32657H2.62939V12.2563H3.39006V9.32657Z" fill="#F5F5F5"/>
<path d="M3.57998 12.084H2.43896V12.4286H3.57998V12.084Z" fill="#FAB446"/>
<path d="M3.57998 8.98203H2.43896V9.32667H3.57998V8.98203Z" fill="#FAB446"/>
<path d="M3.77031 12.4289H2.24902V12.7735H3.77031V12.4289Z" fill="#5064AA"/>
<path d="M9.475 12.084H8.33398V12.4286H9.475V12.084Z" fill="#FAB446"/>
<path d="M9.4749 12.4289H7.95361V12.7735H9.4749V12.4289Z" fill="#5064AA"/>
<path d="M7.00322 8.63751H4.72119V8.98216H7.00322V8.63751Z" fill="#FAB446"/>
<path d="M6.05219 7.60352H5.67188V8.63754H6.05219V7.60352Z" fill="#FFB441"/>
<path d="M5.4816 8.1204C5.16703 8.1204 4.91113 7.88848 4.91113 7.6034C4.91113 7.31832 5.16703 7.08641 5.4816 7.08641C5.79617 7.08641 6.05207 7.31832 6.05207 7.6034C6.05207 7.88848 5.79617 8.1204 5.4816 8.1204ZM5.4816 7.43106C5.37668 7.43106 5.29144 7.50832 5.29144 7.6034C5.29144 7.69848 5.37668 7.77575 5.4816 7.77575C5.58652 7.77575 5.67176 7.69848 5.67176 7.6034C5.67176 7.50832 5.58652 7.43106 5.4816 7.43106Z" fill="#F5F5F5"/>
<path d="M6.24234 8.1204C5.92777 8.1204 5.67188 7.88848 5.67188 7.6034C5.67188 7.31832 5.92777 7.08641 6.24234 7.08641C6.55691 7.08641 6.81281 7.31832 6.81281 7.6034C6.81281 7.88848 6.55695 8.1204 6.24234 8.1204ZM6.24234 7.43106C6.13742 7.43106 6.05219 7.50832 6.05219 7.6034C6.05219 7.69848 6.13742 7.77575 6.24234 7.77575C6.34727 7.77575 6.4325 7.69848 6.4325 7.6034C6.4325 7.50832 6.34727 7.43106 6.24234 7.43106Z" fill="#F5F5F5"/>
<path d="M7.0026 8.46509C6.68803 8.46509 6.43213 8.23318 6.43213 7.9481C6.43213 7.66302 6.68803 7.43111 7.0026 7.43111C7.31717 7.43111 7.57311 7.66302 7.57311 7.9481C7.57311 8.23318 7.31717 8.46509 7.0026 8.46509ZM7.0026 7.77576C6.89768 7.77576 6.81244 7.85302 6.81244 7.9481C6.81244 8.04318 6.89768 8.12044 7.0026 8.12044C7.10752 8.12044 7.19275 8.04318 7.19275 7.9481C7.19275 7.85298 7.10752 7.77576 7.0026 7.77576Z" fill="#F5F5F5"/>
<path d="M4.72086 8.46509C4.40629 8.46509 4.15039 8.23318 4.15039 7.9481C4.15039 7.66302 4.40629 7.43111 4.72086 7.43111C5.03543 7.43111 5.29133 7.66302 5.29133 7.9481C5.29133 8.23318 5.03543 8.46509 4.72086 8.46509ZM4.72086 7.77576C4.61594 7.77576 4.5307 7.85302 4.5307 7.9481C4.5307 8.04318 4.61594 8.12044 4.72086 8.12044C4.82578 8.12044 4.91102 8.04318 4.91102 7.9481C4.91102 7.85298 4.82578 7.77576 4.72086 7.77576Z" fill="#F5F5F5"/>
<path d="M7.00285 11.3948V11.5671C7.00285 11.6622 6.91754 11.7395 6.8127 11.7395C6.70785 11.7395 6.62254 11.6622 6.62254 11.5671V11.3948H7.00285ZM7.38316 11.0501H6.24219V11.5671C6.24219 11.8522 6.49813 12.0841 6.81266 12.0841C7.12723 12.0841 7.38316 11.8521 7.38316 11.5671V11.0501Z" fill="#FAB446"/>
<path d="M6.83121 10.3607H6.79469C6.59473 10.3607 6.43262 10.1986 6.43262 9.99867V9.68879C6.43262 9.48883 6.59473 9.32672 6.79469 9.32672H6.83121C7.03117 9.32672 7.19328 9.48883 7.19328 9.68879V9.99867C7.19328 10.1987 7.03117 10.3607 6.83121 10.3607Z" fill="#FFA0D2"/>
<path d="M5.86197 11.2225C6.17703 11.2225 6.43244 10.991 6.43244 10.7055C6.43244 10.4199 6.17703 10.1885 5.86197 10.1885C5.54691 10.1885 5.2915 10.4199 5.2915 10.7055C5.2915 10.991 5.54691 11.2225 5.86197 11.2225Z" fill="#5064AA"/>
<path d="M6.05219 6.91406H5.67188V7.94809H6.05219V6.91406Z" fill="#FAB446"/>
<path d="M4.72113 8.63742L4.34082 8.29273L4.56359 8.09081C4.90797 7.77871 5.37508 7.60339 5.86211 7.60339C6.34914 7.60339 6.81625 7.77874 7.16062 8.09081L7.3834 8.29273L7.00308 8.63742H4.72113Z" fill="#C8414B"/>
<path d="M5.86203 8.46493C5.96705 8.46493 6.05219 8.38777 6.05219 8.29258C6.05219 8.1974 5.96705 8.12024 5.86203 8.12024C5.75701 8.12024 5.67188 8.1974 5.67188 8.29258C5.67188 8.38777 5.75701 8.46493 5.86203 8.46493Z" fill="#FFD250"/>
<path d="M5.10178 8.46493C5.2068 8.46493 5.29194 8.38777 5.29194 8.29258C5.29194 8.1974 5.2068 8.12024 5.10178 8.12024C4.99676 8.12024 4.91162 8.1974 4.91162 8.29258C4.91162 8.38777 4.99676 8.46493 5.10178 8.46493Z" fill="#FFD250"/>
<path d="M6.62277 8.46493C6.72779 8.46493 6.81293 8.38777 6.81293 8.29258C6.81293 8.1974 6.72779 8.12024 6.62277 8.12024C6.51775 8.12024 6.43262 8.1974 6.43262 8.29258C6.43262 8.38777 6.51775 8.46493 6.62277 8.46493Z" fill="#FFD250"/>
<path d="M4.34057 10.016H2.43896V10.3607H4.34057V10.016Z" fill="#C8414B"/>
<path d="M2.43896 11.3948L3.57994 11.0501V10.7054L2.43896 11.0501V11.3948Z" fill="#C8414B"/>
</svg>
