<svg width="20" height="15" viewBox="0 0 20 15" fill="none" xmlns="http://www.w3.org/2000/svg">
<path d="M8.33203 3.05444L5.5012 5.37111H2.4987V8.70444H5.5012L8.33203 11.0211V3.05444ZM4.9062 10.3711H1.66536C1.44435 10.3711 1.23239 10.2833 1.07611 10.127C0.919829 9.97075 0.832031 9.75879 0.832031 9.53778V4.53778C0.832031 4.31676 0.919829 4.1048 1.07611 3.94852C1.23239 3.79224 1.44435 3.70445 1.66536 3.70445H4.9062L9.31786 0.0944448C9.37891 0.0444008 9.45291 0.0127253 9.53125 0.00310588C9.6096 -0.00651352 9.68906 0.00631897 9.7604 0.0401094C9.83174 0.0738999 9.89201 0.127258 9.93419 0.193972C9.97638 0.260686 9.99875 0.338011 9.9987 0.416945V13.6586C9.99875 13.7375 9.97638 13.8149 9.93419 13.8816C9.89201 13.9483 9.83174 14.0017 9.7604 14.0354C9.68906 14.0692 9.6096 14.0821 9.53125 14.0725C9.45291 14.0628 9.37891 14.0312 9.31786 13.9811L4.90703 10.3711H4.9062ZM16.1704 13.8161L14.9904 12.6361C15.7803 11.9332 16.4123 11.0708 16.8447 10.1059C17.2771 9.14087 17.5 8.09519 17.4987 7.03778C17.4997 5.92619 17.2532 4.82832 16.7769 3.82392C16.3007 2.81952 15.6067 1.93381 14.7454 1.23111L15.9287 0.0477782C16.9441 0.9074 17.7597 1.97818 18.3187 3.18544C18.8778 4.3927 19.1667 5.70738 19.1654 7.03778C19.1654 9.72361 18.0104 12.1394 16.1704 13.8161ZM13.2179 10.8636L12.0329 9.67861C12.4374 9.36753 12.765 8.96756 12.9903 8.50964C13.2156 8.05172 13.3325 7.54811 13.332 7.03778C13.332 5.84611 12.707 4.80028 11.7654 4.21111L12.9645 3.01195C13.5957 3.47627 14.1088 4.08265 14.4622 4.78204C14.8156 5.48143 14.9994 6.25418 14.9987 7.03778C14.9987 8.57278 14.307 9.94611 13.2179 10.8636Z" fill="#5B5876"/>
</svg>
