<svg width="26" height="26" viewBox="0 0 26 26" fill="none" xmlns="http://www.w3.org/2000/svg">
<path d="M6.22917 22.7986C5.5385 22.7986 4.87612 22.5243 4.38774 22.0361C3.89937 21.548 3.625 20.8858 3.625 20.1954V2.49379C3.625 2.07955 3.46038 1.68227 3.16735 1.38936C2.87433 1.09644 2.4769 0.931885 2.0625 0.931885V0.931885C1.6481 0.931885 1.25067 1.09644 0.957646 1.38936C0.66462 1.68227 0.5 2.07955 0.5 2.49379L0.5 20.1954C0.5 21.7143 1.10361 23.171 2.17803 24.245C3.25246 25.319 4.7097 25.9224 6.22917 25.9224H23.9375C24.3519 25.9224 24.7493 25.7579 25.0424 25.4649C25.3354 25.172 25.5 24.7747 25.5 24.3605C25.5 23.9463 25.3354 23.549 25.0424 23.2561C24.7493 22.9632 24.3519 22.7986 23.9375 22.7986H6.22917Z" fill="#13BBED"/>
<path d="M20.8125 19.6739C21.2269 19.6739 21.6243 19.5094 21.9174 19.2165C22.2104 18.9235 22.375 18.5263 22.375 18.112V11.8644C22.375 11.4502 22.2104 11.0529 21.9174 10.76C21.6243 10.467 21.2269 10.3025 20.8125 10.3025C20.3981 10.3025 20.0007 10.467 19.7076 10.76C19.4146 11.0529 19.25 11.4502 19.25 11.8644V18.112C19.25 18.5263 19.4146 18.9235 19.7076 19.2165C20.0007 19.5094 20.3981 19.6739 20.8125 19.6739Z" fill="#13BBED"/>
<path d="M8.3125 19.6739C8.7269 19.6739 9.12433 19.5094 9.41735 19.2165C9.71038 18.9235 9.875 18.5263 9.875 18.112V11.8644C9.875 11.4502 9.71038 11.0529 9.41735 10.76C9.12433 10.467 8.7269 10.3025 8.3125 10.3025C7.8981 10.3025 7.50067 10.467 7.20765 10.76C6.91462 11.0529 6.75 11.4502 6.75 11.8644V18.112C6.75 18.5263 6.91462 18.9235 7.20765 19.2165C7.50067 19.5094 7.8981 19.6739 8.3125 19.6739Z" fill="#13BBED"/>
<path d="M14.5625 19.674C14.9769 19.674 15.3743 19.5094 15.6674 19.2165C15.9604 18.9236 16.125 18.5263 16.125 18.1121V6.6581C16.125 6.24386 15.9604 5.84658 15.6674 5.55366C15.3743 5.26075 14.9769 5.09619 14.5625 5.09619C14.1481 5.09619 13.7507 5.26075 13.4576 5.55366C13.1646 5.84658 13 6.24386 13 6.6581V18.1121C13 18.5263 13.1646 18.9236 13.4576 19.2165C13.7507 19.5094 14.1481 19.674 14.5625 19.674Z" fill="#13BBED"/>
</svg>
