<svg width="21" height="24" viewBox="0 0 21 24" fill="none" xmlns="http://www.w3.org/2000/svg">
<path d="M10.039 7.93789C12.231 7.93789 14.008 6.16094 14.008 3.96895C14.008 1.77696 12.231 0 10.039 0C7.84703 0 6.07007 1.77696 6.07007 3.96895C6.07007 6.16094 7.84703 7.93789 10.039 7.93789Z" fill="#13BBED"/>
<path d="M12.9565 8.47589C12.1162 9.0216 11.1146 9.33902 10.0401 9.33902C8.96563 9.33902 7.96401 9.0216 7.12367 8.47589C6.1947 8.83091 5.33339 9.35467 4.58447 10.0269L10.0401 12.0727L15.4957 10.0269C14.7468 9.35467 13.8855 8.83086 12.9565 8.47589Z" fill="#13BBED"/>
<path d="M18.4438 14.4749H17.9769C17.5901 14.4749 17.2765 14.7885 17.2765 15.1753V17.0431C17.2765 17.4299 17.5901 17.7435 17.9769 17.7435H18.4438C19.3464 17.7435 20.0781 17.0118 20.0781 16.1092C20.0781 15.2066 19.3464 14.4749 18.4438 14.4749Z" fill="#13BBED"/>
<path opacity="0.7" d="M2.16913 10.9385C1.9803 11.0694 1.86768 11.2845 1.86768 11.5142V13.0735H2.10114C3.25975 13.0735 4.20235 14.0161 4.20235 15.1747V17.0425C4.20235 18.2011 3.25975 19.1437 2.10114 19.1437H1.86768V20.6194C1.86768 20.9114 2.0488 21.1728 2.32214 21.2752L9.33864 23.9064V13.3051L2.81401 10.8584C2.5989 10.7777 2.35791 10.8076 2.16913 10.9385Z" fill="#13BBED"/>
<path opacity="0.7" d="M15.8758 17.0425V15.1747C15.8758 14.0161 16.8184 13.0735 17.977 13.0735H18.2105V11.5142C18.2105 11.2845 18.0978 11.0694 17.909 10.9385C17.7202 10.8076 17.4791 10.7777 17.2641 10.8584L10.7395 13.3051V23.9064L17.756 21.2752C18.0293 21.1728 18.2105 20.9114 18.2105 20.6194V19.1437H17.977C16.8184 19.1437 15.8758 18.2011 15.8758 17.0425Z" fill="#13BBED"/>
<path d="M2.80161 17.0431V15.1753C2.80161 14.7885 2.48802 14.4749 2.10121 14.4749H1.63427C0.731687 14.4749 0 15.2066 0 16.1092C0 17.0118 0.731687 17.7435 1.63427 17.7435H2.10121C2.48802 17.7435 2.80161 17.4299 2.80161 17.0431Z" fill="#13BBED"/>
</svg>
