<svg width="24" height="24" viewBox="0 0 24 24" fill="none" xmlns="http://www.w3.org/2000/svg">
<path d="M12.0001 7.99999C14.1836 7.99999 15.9536 6.22996 15.9536 4.04651C15.9536 1.86305 14.1836 0.0930176 12.0001 0.0930176C9.81667 0.0930176 8.04663 1.86305 8.04663 4.04651C8.04663 6.22996 9.81667 7.99999 12.0001 7.99999Z" fill="#A5BEE2"/>
<path d="M14.9056 8.53604C14.0685 9.07962 13.0708 9.39581 12.0005 9.39581C10.9303 9.39581 9.93253 9.07962 9.09546 8.53604C8.17012 8.88967 7.31216 9.41139 6.56616 10.081L12.0005 12.1189L17.4349 10.081C16.6889 9.41139 15.831 8.88962 14.9056 8.53604Z" fill="#A5BEE2"/>
<path d="M20.372 14.5116H19.9069C19.5216 14.5116 19.2092 14.824 19.2092 15.2093V17.0698C19.2092 17.4551 19.5216 17.7674 19.9069 17.7674H20.372C21.2711 17.7674 21.9999 17.0386 21.9999 16.1395C21.9999 15.2405 21.2711 14.5116 20.372 14.5116Z" fill="#A5BEE2"/>
<path opacity="0.7" d="M4.16063 10.9894C3.97254 11.1198 3.86035 11.334 3.86035 11.5628V13.1161H4.09291C5.247 13.1161 6.18593 14.055 6.18593 15.2091V17.0696C6.18593 18.2237 5.247 19.1626 4.09291 19.1626H3.86035V20.6326C3.86035 20.9234 4.04077 21.1838 4.31305 21.2859L11.3022 23.9068V13.3468L4.803 10.9096C4.58872 10.8292 4.34868 10.859 4.16063 10.9894V10.9894Z" fill="#A5BEE2"/>
<path opacity="0.7" d="M17.814 17.0696V15.2091C17.814 14.055 18.753 13.1161 19.9071 13.1161H20.1396V11.5628C20.1396 11.334 20.0274 11.1198 19.8393 10.9894C19.6512 10.859 19.4111 10.8292 19.197 10.9096L12.6978 13.3468V23.9068L19.6869 21.2859C19.9592 21.1838 20.1396 20.9234 20.1396 20.6326V19.1626H19.9071C18.753 19.1626 17.814 18.2237 17.814 17.0696V17.0696Z" fill="#A5BEE2"/>
<path d="M4.7907 17.0698V15.2093C4.7907 14.824 4.47833 14.5116 4.09302 14.5116H3.62791C2.72884 14.5116 2 15.2405 2 16.1395C2 17.0386 2.72884 17.7674 3.62791 17.7674H4.09302C4.47833 17.7674 4.7907 17.4551 4.7907 17.0698Z" fill="#A5BEE2"/>
</svg>
