<svg width="18" height="18" viewBox="0 0 18 18" fill="none" xmlns="http://www.w3.org/2000/svg">
<g clip-path="url(#clip0)">
<path d="M15.4018 9.60938H14.0098C14.1517 9.99785 14.2292 10.4171 14.2292 10.854V16.1152C14.2292 16.2974 14.1975 16.4722 14.1398 16.6349H16.4411C17.3008 16.6349 18.0002 15.9355 18.0002 15.0758V12.2077C18.0002 10.775 16.8346 9.60938 15.4018 9.60938Z" fill="#2AC2E9"/>
<path d="M3.77104 10.854C3.77104 10.4171 3.84856 9.99785 3.99045 9.60938H2.5984C1.16564 9.60938 0 10.775 0 12.2078V15.0759C0 15.9355 0.699365 16.6349 1.55904 16.6349H3.86044C3.80275 16.4722 3.77104 16.2974 3.77104 16.1152V10.854Z" fill="#2AC2E9"/>
<path d="M10.5914 8.25586H7.40895C5.97619 8.25586 4.81055 9.4215 4.81055 10.8543V16.1154C4.81055 16.4024 5.04321 16.6351 5.33023 16.6351H12.6701C12.9571 16.6351 13.1898 16.4024 13.1898 16.1154V10.8543C13.1898 9.4215 12.0241 8.25586 10.5914 8.25586Z" fill="#2AC2E9"/>
<path d="M8.9999 1.36523C7.27682 1.36523 5.875 2.76706 5.875 4.49017C5.875 5.65895 6.52008 6.67971 7.47275 7.21563C7.92461 7.46981 8.44556 7.61508 8.9999 7.61508C9.55425 7.61508 10.0752 7.46981 10.5271 7.21563C11.4798 6.67971 12.1248 5.65891 12.1248 4.49017C12.1248 2.76709 10.723 1.36523 8.9999 1.36523Z" fill="#2AC2E9"/>
<path d="M3.5128 4.27734C2.22414 4.27734 1.17578 5.32571 1.17578 6.61436C1.17578 7.90302 2.22414 8.95138 3.5128 8.95138C3.83968 8.95138 4.15096 8.88367 4.43372 8.76196C4.9226 8.55147 5.3257 8.17889 5.57514 7.71219C5.75022 7.38464 5.84981 7.01096 5.84981 6.61436C5.84981 5.32574 4.80145 4.27734 3.5128 4.27734Z" fill="#2AC2E9"/>
<path d="M14.4874 4.27734C13.1988 4.27734 12.1504 5.32571 12.1504 6.61436C12.1504 7.01099 12.25 7.38467 12.4251 7.71219C12.6745 8.17892 13.0776 8.55151 13.5665 8.76196C13.8492 8.88367 14.1605 8.95138 14.4874 8.95138C15.7761 8.95138 16.8244 7.90302 16.8244 6.61436C16.8244 5.32571 15.7761 4.27734 14.4874 4.27734Z" fill="#2AC2E9"/>
</g>
<defs>
<clipPath id="clip0">
<rect width="18" height="18" fill="white"/>
</clipPath>
</defs>
</svg>
