<svg width="48" height="48" viewBox="0 0 48 48" fill="none" xmlns="http://www.w3.org/2000/svg">
<g clip-path="url(#clip0)">
<path d="M43.2 4.8H40.8V2.4C40.8 0.96 39.84 0 38.4 0C36.96 0 36 0.96 36 2.4V4.8H12V2.4C12 0.96 11.04 0 9.6 0C8.16 0 7.2 0.96 7.2 2.4V4.8H2.4C1.2 4.8 0 5.76 0 7.2V40.8C0 42.24 1.2 43.2 2.4 43.2H17.04C15.36 40.32 14.4 36.96 14.4 33.6C14.4 23.04 23.04 14.4 33.6 14.4C38.16 14.4 42.24 16.08 45.6 18.72V7.2C45.6 6 44.4 4.8 43.2 4.8Z" fill="#13BBED"/>
<path d="M33.6002 19.1992C25.6802 19.1992 19.2002 25.6792 19.2002 33.5992C19.2002 41.5192 25.6802 47.9992 33.6002 47.9992C41.5202 47.9992 48.0002 41.5192 48.0002 33.5992C48.0002 25.6792 41.5202 19.1992 33.6002 19.1992ZM38.4002 35.9992H33.6002C32.1602 35.9992 31.2002 35.0392 31.2002 33.5992V26.3992C31.2002 24.9592 32.1602 23.9992 33.6002 23.9992C35.0402 23.9992 36.0002 24.9592 36.0002 26.3992V31.1992H38.4002C39.8402 31.1992 40.8002 32.1592 40.8002 33.5992C40.8002 35.0392 39.8402 35.9992 38.4002 35.9992Z" fill="#13BBED"/>
</g>
<defs>
<clipPath id="clip0">
<rect width="48" height="48" fill="white"/>
</clipPath>
</defs>
</svg>
