<svg width="12" height="10" viewBox="0 0 12 10" fill="none" xmlns="http://www.w3.org/2000/svg">
<path d="M11.6879 1.47676C11.2695 1.65723 10.8143 1.78712 10.3453 1.8377C10.8322 1.54845 11.1968 1.09149 11.3707 0.552545C10.9138 0.824327 10.4133 1.01491 9.8914 1.11583C9.67326 0.88262 9.40943 0.696837 9.11635 0.570055C8.82327 0.443272 8.50721 0.378207 8.18789 0.378912C6.8959 0.378912 5.85683 1.42618 5.85683 2.71133C5.85683 2.8918 5.87871 3.07227 5.91426 3.2459C3.97969 3.14473 2.2543 2.22051 1.10723 0.805474C0.898218 1.16247 0.78869 1.56895 0.790039 1.98262C0.790039 2.792 1.20156 3.50567 1.8291 3.9254C1.45928 3.91083 1.09812 3.80918 0.775 3.62872V3.65743C0.775 4.79083 1.57617 5.73008 2.64394 5.9461C2.44346 5.99818 2.23722 6.02482 2.03008 6.0254C1.87832 6.0254 1.73476 6.01036 1.58984 5.98985C1.88516 6.91407 2.74512 7.58536 3.76914 7.60723C2.96797 8.23477 1.96445 8.60391 0.874804 8.60391C0.679297 8.60391 0.498828 8.59708 0.311523 8.5752C1.34512 9.23829 2.57148 9.6211 3.89219 9.6211C8.17968 9.6211 10.5258 6.06915 10.5258 2.98614C10.5258 2.88497 10.5258 2.78379 10.5189 2.68262C10.9728 2.3504 11.3707 1.93887 11.6879 1.47676Z" fill="#3B3759"/>
</svg>
