<svg width="24" height="25" viewBox="0 0 24 25" fill="none" xmlns="http://www.w3.org/2000/svg">
<path d="M12 0.5C8.55375 0.5 5.75 3.30375 5.75 6.75C5.75 10.1962 8.55375 13 12 13C15.4462 13 18.25 10.1962 18.25 6.75C18.25 3.30375 15.4462 0.5 12 0.5ZM12 10.5C9.9325 10.5 8.25 8.8175 8.25 6.75C8.25 4.6825 9.9325 3 12 3C14.0675 3 15.75 4.6825 15.75 6.75C15.75 8.8175 14.0675 10.5 12 10.5ZM23.25 24.25V23C23.25 18.1763 19.3237 14.25 14.5 14.25H9.5C4.675 14.25 0.75 18.1763 0.75 23V24.25H3.25V23C3.25 19.5537 6.05375 16.75 9.5 16.75H14.5C17.9463 16.75 20.75 19.5537 20.75 23V24.25H23.25Z" fill="#2AC2E9"/>
</svg>
