<svg width="139" height="110" viewBox="0 0 139 110" fill="none" xmlns="http://www.w3.org/2000/svg">
<path d="M136.251 27.2384C130.181 11.8181 111.484 2.57071 95.6487 8.69026C77.5727 15.6753 83.566 44.3822 67.1474 50.187C58.2783 53.3227 45.1672 41.6094 36.2066 39.8134C19.6947 36.5037 4.74674 48.1364 1.06596 64.2455C-2.68922 80.6801 3.33366 102.631 21.4183 107.092C42.9606 112.405 54.1819 93.0697 72.2535 87.5177C90.7986 81.8202 111.419 95.2762 126.771 78.9044C138.114 66.8092 142.261 42.508 136.251 27.2384Z" fill="url(#paint0_linear)"/>
<path opacity="0.1" d="M129.456 34.0177C129.456 23.3112 120.764 14.632 110.041 14.632C101.733 14.632 94.6479 19.8432 91.8757 27.1687H21.668C18.6692 27.1687 16.2383 29.5958 16.2383 32.59V92.6064C16.2383 95.6006 18.6692 98.0277 21.668 98.0277H117.332C120.331 98.0277 122.762 95.6006 122.762 92.6064V48.656C126.861 45.1015 129.456 39.864 129.456 34.0177Z" fill="#2626BC"/>
<path d="M117.334 91.2511H21.6699C18.6711 91.2511 16.2402 88.824 16.2402 85.8298V25.8134C16.2402 22.8192 18.6711 20.3921 21.6699 20.3921H117.334C120.333 20.3921 122.764 22.8192 122.764 25.8134V85.8298C122.764 88.824 120.333 91.2511 117.334 91.2511Z" fill="#9FB0FE"/>
<path d="M122.763 25.8148V48.7197C119.356 51.6716 114.909 53.4606 110.042 53.4606C99.3179 53.4606 90.625 44.7811 90.625 34.0768C90.625 28.7368 92.7887 23.8983 96.2882 20.3935H117.334C120.331 20.3935 122.763 22.8195 122.763 25.8148Z" fill="#8399FE"/>
<path d="M122.763 25.8152V32.6487L74.4635 69.6951C73.0464 70.7821 71.2845 71.3784 69.5008 71.3784C67.7171 71.3784 65.9552 70.7821 64.5381 69.6951L16.2383 32.6487V25.8152C16.2383 22.8199 18.6708 20.3939 21.668 20.3939H117.334C120.331 20.3939 122.763 22.8199 122.763 25.8152Z" fill="#8399FE"/>
<path d="M71.1542 46.2476L122.762 85.8298C122.762 88.824 120.331 91.2511 117.333 91.2511H21.668C18.6692 91.2511 16.2383 88.824 16.2383 85.8298L67.8464 46.2476C68.8218 45.4995 70.1787 45.4995 71.1542 46.2476Z" fill="#8399FE"/>
<path d="M88.0961 59.2397L74.4649 69.6947C73.0478 70.7816 71.2858 71.378 69.5022 71.378C67.7185 71.378 65.9566 70.7816 64.5394 69.6947L50.9082 59.2397L67.8488 46.2476C68.8235 45.4995 70.1809 45.4995 71.1555 46.2476L88.0961 59.2397Z" fill="#6583FE"/>
<path d="M67.8483 65.3959L16.2402 25.8134C16.2402 22.8192 18.6711 20.3921 21.6699 20.3921H117.334C120.333 20.3921 122.764 22.8192 122.764 25.8134L71.1561 65.3959C70.1807 66.1438 68.8238 66.1438 67.8483 65.3959Z" fill="#B7C5FF"/>
<path d="M100.708 84.0378H91.9844C91.2348 84.0378 90.627 83.4309 90.627 82.6825V76.6773C90.627 75.9289 91.2348 75.322 91.9844 75.322H100.708C101.458 75.322 102.066 75.9289 102.066 76.6773V82.6825C102.066 83.4312 101.458 84.0378 100.708 84.0378Z" fill="#02FFB3"/>
<path d="M84.6695 78.5129H77.1133C76.3634 78.5129 75.7559 77.906 75.7559 77.1576C75.7559 76.4092 76.3634 75.8023 77.1133 75.8023H84.6695C85.4193 75.8023 86.0269 76.4092 86.0269 77.1576C86.0269 77.906 85.4193 78.5129 84.6695 78.5129Z" fill="white"/>
<path d="M84.6695 84.0378H58.1094C57.3595 84.0378 56.752 83.4309 56.752 82.6825C56.752 81.9341 57.3595 81.3271 58.1094 81.3271H84.6695C85.4194 81.3271 86.0269 81.9341 86.0269 82.6825C86.0269 83.4309 85.4194 84.0378 84.6695 84.0378Z" fill="white"/>
<path d="M110.041 46.6268C120.764 46.6268 129.456 37.9475 129.456 27.2411C129.456 16.5347 120.764 7.85538 110.041 7.85538C99.3177 7.85538 90.625 16.5347 90.625 27.2411C90.625 37.9475 99.3177 46.6268 110.041 46.6268Z" fill="#FF5BA8"/>
<path d="M110.041 47.9822C121.495 47.9822 130.814 38.6779 130.814 27.2411C130.814 15.8044 121.495 6.50006 110.041 6.50006C98.5863 6.50006 89.2676 15.8044 89.2676 27.2411C89.2676 33.8941 92.4247 39.8212 97.3179 43.6191L70.3269 64.3208C69.8407 64.6944 69.1604 64.6946 68.673 64.3208L17.6443 25.1829C17.9486 23.2394 19.6373 21.7474 21.6677 21.7474H83.937C84.6868 21.7474 85.2944 21.1405 85.2944 20.3921C85.2944 19.6437 84.6868 19.0368 83.937 19.0368H21.668C17.9256 19.0368 14.8809 22.0768 14.8809 25.8134V85.8298C14.8809 89.5664 17.9256 92.6064 21.668 92.6064H117.332C121.075 92.6064 124.119 89.5664 124.119 85.8298V50.0113C124.119 49.2629 123.512 48.656 122.762 48.656C122.012 48.656 121.405 49.2629 121.405 50.0113V83.0796L85.8651 55.8216L99.6945 45.2149C102.743 46.9714 106.275 47.9822 110.041 47.9822ZM53.1349 55.8216L17.5957 83.0796V28.5636L53.1349 55.8216ZM121.351 86.4568C121.047 88.4014 119.364 89.8958 117.332 89.8958H21.668C19.6365 89.8958 17.9527 88.4014 17.6492 86.4568L55.3635 57.5307L67.0194 66.4704C67.7497 67.0304 68.625 67.3107 69.5003 67.3107C70.3755 67.3107 71.2505 67.0307 71.9811 66.4704L83.637 57.5304L121.351 86.4568ZM91.9824 27.2411C91.9824 17.2993 100.083 9.21071 110.041 9.21071C119.998 9.21071 128.099 17.299 128.099 27.2411C128.099 37.1832 119.998 45.2715 110.041 45.2715C100.083 45.2715 91.9824 37.1829 91.9824 27.2411Z" fill="#2626BC"/>
<path d="M101.566 20.6301L104.337 27.2411L101.566 33.8521C101.096 34.9748 102.231 36.0998 103.351 35.6216L120.08 28.4875C121.179 28.0188 121.179 26.4634 120.08 25.9948L103.351 18.8606C102.231 18.3825 101.096 19.5074 101.566 20.6301Z" fill="white"/>
<path d="M110.656 28.5064L102.315 32.0655L104.335 27.2406L102.312 22.4156L110.656 25.9747C111.697 26.4192 111.697 28.0646 110.656 28.5064Z" fill="#FFDBED"/>
<path d="M89.8137 7.74561C88.8054 7.74561 87.7973 7.36259 87.0301 6.59629C85.4952 5.06369 85.4952 2.57017 87.0301 1.03784C88.5643 -0.494215 91.0622 -0.494757 92.5969 1.03784C94.1319 2.57044 94.1319 5.06396 92.5969 6.59629C91.8297 7.36259 90.8217 7.74561 89.8137 7.74561ZM89.8137 2.59782C89.5009 2.59782 89.1879 2.71654 88.9495 2.95454C88.4733 3.42999 88.4733 4.20388 88.9495 4.67959C89.4262 5.15504 90.2005 5.15531 90.6772 4.67959C91.1534 4.20415 91.1534 3.43026 90.6772 2.95454C90.4392 2.71682 90.1261 2.59782 89.8137 2.59782Z" fill="#00ECA2"/>
<path d="M59.3293 110.112C58.3213 110.112 57.313 109.728 56.5458 108.962C55.0108 107.43 55.0108 104.936 56.5458 103.404C58.0802 101.871 60.5784 101.871 62.1128 103.404C63.6478 104.936 63.6478 107.43 62.1128 108.962C61.3456 109.729 60.3373 110.112 59.3293 110.112ZM59.3293 104.964C59.0165 104.964 58.7035 105.082 58.4651 105.32C57.989 105.796 57.989 106.57 58.4651 107.046C58.9419 107.521 59.7164 107.521 60.1931 107.046C60.6693 106.57 60.6693 105.796 60.1931 105.32C59.9551 105.083 59.642 104.964 59.3293 104.964Z" fill="#00ECA2"/>
<path d="M80.0292 11.2358C79.682 11.2358 79.3342 11.1035 79.0695 10.839L77.4501 9.22235L75.8307 10.839C75.3011 11.3681 74.441 11.3681 73.9113 10.839C73.3811 10.3096 73.3811 9.4514 73.9113 8.92228L76.4904 6.34717C77.0201 5.81805 77.8802 5.81805 78.4098 6.34717L80.9889 8.92228C81.5191 9.45167 81.5191 10.3099 80.9889 10.839C80.7242 11.1033 80.3767 11.2358 80.0292 11.2358Z" fill="#FF7EB8"/>
<path d="M119.385 104.963C119.037 104.963 118.69 104.831 118.425 104.566L116.806 102.95L115.186 104.566C114.657 105.095 113.796 105.095 113.267 104.566C112.737 104.037 112.737 103.179 113.267 102.65L115.846 100.075C116.376 99.5454 117.236 99.5454 117.765 100.075L120.344 102.65C120.875 103.179 120.875 104.037 120.344 104.566C120.08 104.831 119.732 104.963 119.385 104.963Z" fill="#FF7EB8"/>
<path d="M48.5644 106.251C48.2171 106.251 47.8694 106.118 47.6047 105.854L45.9853 104.237L44.3659 105.854C43.8362 106.383 42.9761 106.383 42.4465 105.854C41.9163 105.324 41.9163 104.466 42.4465 103.937L45.0256 101.362C45.5552 100.833 46.4153 100.833 46.945 101.362L49.5241 103.937C50.0543 104.467 50.0543 105.325 49.5241 105.854C49.2591 106.118 48.9116 106.251 48.5644 106.251Z" fill="#6583FE"/>
<defs>
<linearGradient id="paint0_linear" x1="117.372" y1="121.857" x2="53.9699" y2="37.7324" gradientUnits="userSpaceOnUse">
<stop stop-color="#C6D1FF"/>
<stop offset="0.5834" stop-color="#E6D5F4"/>
<stop offset="0.997" stop-color="#FFD9EC"/>
</linearGradient>
</defs>
</svg>
