<svg width="18" height="14" viewBox="0 0 18 14" fill="none" xmlns="http://www.w3.org/2000/svg">
<path fill-rule="evenodd" clip-rule="evenodd" d="M12.58 9.94855C12.6475 11.4753 11.4153 12.7663 9.82815 12.8312C9.71125 12.8361 4.01207 12.8246 4.01207 12.8246C2.43261 12.9445 1.05027 11.8095 0.925684 10.2886C0.916298 10.1752 0.918858 4.06012 0.918858 4.06012C0.848887 2.53175 2.07934 1.23745 3.66733 1.17011C3.78594 1.16436 9.47745 1.17503 9.47745 1.17503C11.0646 1.05677 12.4512 2.19997 12.5741 3.72833C12.5826 3.83838 12.58 9.94855 12.58 9.94855Z" stroke="#5B5876" stroke-width="1.5" stroke-linecap="round" stroke-linejoin="round"/>
<path d="M12.582 5.31645L15.3262 3.07062C16.0062 2.51395 17.0262 2.99895 17.0254 3.87645L17.0154 10.0006C17.0145 10.8781 15.9937 11.3589 15.3154 10.8023L12.582 8.55645" stroke="#5B5876" stroke-width="1.5" stroke-linecap="round" stroke-linejoin="round"/>
</svg>
