<svg width="18" height="18" viewBox="0 0 18 18" fill="none" xmlns="http://www.w3.org/2000/svg">
<g clip-path="url(#clip0)">
<path d="M1.36065 15.3488H16.6397C17.3913 15.3488 18.0003 14.7395 18.0003 13.9882V4.01104C18.0003 3.2597 17.3913 2.65039 16.6397 2.65039H1.36065C0.609306 2.65039 0 3.2597 0 4.01104V13.9882C0 14.7395 0.609306 15.3488 1.36065 15.3488ZM10.0477 14.3937H7.952V13.099H10.0477V14.3937ZM15.0416 3.63651H17.1373V4.93121H15.0416V3.63651ZM14.9796 13.099H17.0756V14.3937H14.9796V13.099ZM11.5275 3.63651H13.6235V4.93121H11.5275V3.63651ZM11.4658 13.099H13.5618V14.3937H11.4658V13.099ZM8.01404 3.63651H10.1097V4.93121H8.01404V3.63651ZM7.42629 6.76435L10.5737 8.33823C11.3042 8.70362 11.3042 9.29594 10.5737 9.661L7.42629 11.2352C6.69584 11.6003 6.10318 11.2342 6.10318 10.4169V7.58231C6.10286 6.76533 6.69551 6.39929 7.42629 6.76435ZM4.50024 3.63651H6.59624V4.93121H4.50024V3.63651ZM4.43853 13.099H6.5342V14.3937H4.43853V13.099ZM0.986449 3.63651H3.08245V4.93121H0.986449V3.63651ZM0.924735 13.099H3.02073V14.3937H0.924735V13.099Z" fill="white"/>
</g>
<defs>
<clipPath id="clip0">
<rect width="18" height="18" fill="white"/>
</clipPath>
</defs>
</svg>
