<svg width="24" height="24" viewBox="0 0 24 24" fill="none" xmlns="http://www.w3.org/2000/svg">
<path d="M16.5834 1H13.3743L7.87402 5.125H11.0831L16.5834 1Z" fill="#A5BEE2"/>
<path opacity="0.7" d="M22.1291 1H18.8743L13.374 5.125H16.5831L22.1291 1Z" fill="#A5BEE2"/>
<path d="M18.875 5.12407H23.7337V1.68657C23.7337 1.63354 23.7149 1.5867 23.7036 1.53711L18.875 5.12407Z" fill="#A5BEE2"/>
<path opacity="0.7" d="M2.32812 5.125H5.58307L11.0833 1H7.87419L2.32812 5.125Z" fill="#A5BEE2"/>
<path d="M0.266602 22.3125C0.266602 22.6925 0.574097 23 0.954102 23H23.0458C23.4258 23 23.7333 22.6925 23.7333 22.3125V6.5H0.266602V22.3125ZM8.56244 9.9375C8.56244 9.68977 8.69535 9.46147 8.91091 9.33928C9.12646 9.21709 9.39096 9.22044 9.60377 9.34799L16.4788 13.473C16.6856 13.5972 16.8124 13.8208 16.8124 14.0625C16.8124 14.3041 16.6855 14.5277 16.4788 14.6519L9.60377 18.7769C9.39083 18.9044 9.12623 18.9077 8.91091 18.7856C8.69535 18.6635 8.56244 18.4352 8.56244 18.1875V9.9375Z" fill="#A5BEE2"/>
<path d="M0.954102 1C0.574097 1 0.266602 1.3075 0.266602 1.6875V4.95345L5.584 1H0.954102Z" fill="white"/>
<path opacity="0.7" d="M9.9375 11.1523V16.9733L14.789 14.0628L9.9375 11.1523Z" fill="white"/>
</svg>
