<svg width="24" height="22" viewBox="0 0 24 22" fill="none" xmlns="http://www.w3.org/2000/svg">
<path d="M16.3166 0H13.1074L7.60718 4.125H10.8163L16.3166 0Z" fill="#13BBED"/>
<path opacity="0.7" d="M21.8622 0H18.6074L13.1072 4.125H16.3163L21.8622 0Z" fill="#13BBED"/>
<path d="M18.6084 4.12436H23.4671V0.686858C23.4671 0.633829 23.4483 0.586987 23.437 0.537395L18.6084 4.12436Z" fill="#13BBED"/>
<path opacity="0.7" d="M2.06128 4.125H5.31622L10.8165 0H7.60734L2.06128 4.125Z" fill="#13BBED"/>
<path d="M0 21.3125C0 21.6925 0.307496 22 0.6875 22H22.7792C23.1592 22 23.4667 21.6925 23.4667 21.3125V5.5H0V21.3125ZM8.29583 8.9375C8.29583 8.68977 8.42875 8.46147 8.6443 8.33928C8.85986 8.21709 9.12436 8.22044 9.33717 8.34799L16.2122 12.473C16.419 12.5972 16.5458 12.8208 16.5458 13.0625C16.5458 13.3041 16.4189 13.5277 16.2122 13.6519L9.33717 17.7769C9.12423 17.9044 8.85963 17.9077 8.6443 17.7856C8.42875 17.6635 8.29583 17.4352 8.29583 17.1875V8.9375Z" fill="#13BBED"/>
<path d="M0.6875 0C0.307496 0 0 0.307496 0 0.6875V3.95345L5.3174 0H0.6875Z" fill="#13BBED"/>
<path opacity="0.7" d="M9.6709 10.1521V15.973L14.5224 13.0625L9.6709 10.1521Z" fill="#13BBED"/>
</svg>
