<svg width="69" height="21" viewBox="0 0 69 21" fill="none" xmlns="http://www.w3.org/2000/svg">
<path d="M63.8004 0.300781H59.5004C58.2004 0.300781 57.2004 0.700781 56.6004 2.00078L48.4004 20.7008H54.2004C54.2004 20.7008 55.2004 18.2008 55.4004 17.6008C56.0004 17.6008 61.7004 17.6008 62.5004 17.6008C62.7004 18.3008 63.2004 20.6008 63.2004 20.6008H68.4004L63.8004 0.300781ZM57.0004 13.4008C57.5004 12.2008 59.2004 7.70078 59.2004 7.70078C59.2004 7.80078 59.7004 6.50078 59.9004 5.80078L60.3004 7.60078C60.3004 7.60078 61.4004 12.5008 61.6004 13.5008H57.0004V13.4008Z" fill="#3362AB"/>
<path d="M48.8004 14C48.8004 18.2 45.0004 21 39.1004 21C36.6004 21 34.2004 20.5 32.9004 19.9L33.7004 15.3L34.4004 15.6C36.2004 16.4 37.4004 16.7 39.6004 16.7C41.2004 16.7 42.9004 16.1 42.9004 14.7C42.9004 13.8 42.2004 13.2 40.0004 12.2C37.9004 11.2 35.1004 9.6 35.1004 6.7C35.1004 2.7 39.0004 0 44.5004 0C46.6004 0 48.4004 0.4 49.5004 0.9L48.7004 5.3L48.3004 4.9C47.3004 4.5 46.0004 4.1 44.1004 4.1C42.0004 4.2 41.0004 5.1 41.0004 5.9C41.0004 6.8 42.2004 7.5 44.1004 8.4C47.3004 9.9 48.8004 11.6 48.8004 14Z" fill="#3362AB"/>
<path d="M0 0.501563L0.1 0.101562H8.7C9.9 0.101562 10.8 0.501562 11.1 1.80156L13 10.8016C11.1 6.00156 6.7 2.10156 0 0.501563Z" fill="#F9B50B"/>
<path d="M25.1 0.299219L16.4 20.5992H10.5L5.5 3.59922C9.1 5.89922 12.1 9.49922 13.2 11.9992L13.8 14.0992L19.2 0.199219H25.1V0.299219Z" fill="#3362AB"/>
<path d="M27.4004 0.199219H32.9004L29.4004 20.5992H23.9004L27.4004 0.199219Z" fill="#3362AB"/>
</svg>
